source-code-pro_medium.sfdir

StartChar: exclam
Encoding: 33 33 486
Width: 600
Flags: MW
HStem: -12 21G<278 322> -12 167<278 322>
VStem: 220 160<46.5 97> 260.5 79
LayerCount: 2
Fore
SplineSet
267 238 m 1x90
 254 566 l 1
 251 670 l 1
 349 670 l 1
 346 566 l 1
 333 238 l 1
 267 238 l 1x90
220 72 m 0xa0
 220 122 256 155 300 155 c 0x60
 344 155 380 122 380 72 c 0
 380 21 344 -12 300 -12 c 0
 256 -12 220 21 220 72 c 0xa0
EndSplineSet
EndChar

StartChar: quotedbl
Encoding: 34 34 491
Width: 600
Flags: MW
HStem: 340 346<148 148 148 213 387 452 387 387>
VStem: 119 123 358 123
LayerCount: 2
Fore
SplineSet
148 340 m 1
 120 568 l 1
 118 686 l 1
 243 686 l 1
 241 568 l 1
 213 340 l 1
 148 340 l 1
387 340 m 1
 359 568 l 1
 357 686 l 1
 482 686 l 1
 480 568 l 1
 452 340 l 1
 387 340 l 1
EndSplineSet
EndChar

StartChar: numbersign
Encoding: 35 35 533
Width: 600
Flags: MW
HStem: 0 21G<137 137 137 199 324 324 324 386> 200 66<83 161 83 169 83 223 231 348 417 503> 405 66<103 186 103 194 103 248 256 373 442 523>
VStem: 83 440<200 471 266 471>
LayerCount: 2
Fore
SplineSet
137 0 m 1
 161 200 l 1
 83 200 l 1
 83 266 l 1
 169 266 l 1
 186 405 l 1
 103 405 l 1
 103 471 l 1
 194 471 l 1
 217 650 l 1
 278 650 l 1
 256 471 l 1
 380 471 l 1
 404 650 l 1
 465 650 l 1
 442 471 l 1
 523 471 l 1
 523 405 l 1
 435 405 l 1
 417 266 l 1
 503 266 l 1
 503 200 l 1
 410 200 l 1
 386 0 l 1
 324 0 l 1
 348 200 l 1
 223 200 l 1
 199 0 l 1
 137 0 l 1
231 266 m 1
 355 266 l 1
 373 405 l 1
 248 405 l 1
 231 266 l 1
EndSplineSet
EndChar

StartChar: dollar
Encoding: 36 36 630
Width: 600
Flags: MW
HStem: 35 80<271 345> 537 80<272.5 340>
VStem: 108 96<413 486 413 503.5> 271 69<-110 35 35 35 617 747> 418 97<169 248.5>
LayerCount: 2
Fore
SplineSet
499 539 m 1
 448 481 l 1
 402 516 367 537 303 537 c 0
 242 537 204 509 204 463 c 0
 204 363 515 382 515 199 c 0
 515 113 447 50 340 37 c 1
 340 -110 l 1
 271 -110 l 1
 271 35 l 1
 200 42 127 73 80 114 c 1
 125 182 l 1
 178 145 238 115 310 115 c 0
 380 115 418 146 418 192 c 0
 418 305 108 285 108 461 c 0
 108 546 173 604 271 616 c 1
 271 747 l 1
 340 747 l 1
 340 617 l 1
 412 610 459 579 499 539 c 1
EndSplineSet
Substitution2: "'ss04' Style Set 4 in Latin lookup 20 subtable" dollar.a
Substitution2: "'aalt' Access All Alternates in Latin lookup 0 subtable" dollar.a
EndChar

StartChar: percent
Encoding: 37 37 649
Width: 600
Flags: MW
HStem: -12 57<413.5 452 413.5 474> 262 57<413.5 452> 318 57<148 186.5 148 208> 592 57<148 186.5>
VStem: 26 71<448 524.5 448 537.5> 237 72<448 524.5> 291 72<117.5 193.5 117.5 207> 503 71<117.5 193.5>
LayerCount: 2
Fore
SplineSet
167 318 m 0xbd
 85 318 26 382 26 486 c 0
 26 589 85 649 167 649 c 0
 249 649 309 589 309 486 c 0
 309 382 249 318 167 318 c 0xbd
167 375 m 0
 206 375 237 410 237 486 c 0
 237 563 206 592 167 592 c 0
 129 592 97 563 97 486 c 0
 97 410 129 375 167 375 c 0
81 31 m 1
 26 83 l 1
 210 268 l 1
 247 233 l 1
 81 31 l 1
520 624 m 1
 575 572 l 1
 391 387 l 1
 354 422 l 1
 520 624 l 1
433 -12 m 0xc3
 351 -12 291 51 291 155 c 0
 291 259 351 319 433 319 c 0
 515 319 574 259 574 155 c 0
 574 51 515 -12 433 -12 c 0xc3
433 45 m 0
 471 45 503 80 503 155 c 0
 503 232 471 262 433 262 c 0
 394 262 363 232 363 155 c 0
 363 80 394 45 433 45 c 0
EndSplineSet
EndChar

StartChar: ampersand
Encoding: 38 38 460
Width: 600
Flags: MW
HStem: -12 78<215.5 266.5 215.5 273.5> 598 69<241 281.5>
VStem: 37 95<143.5 199.5 143.5 214> 112 84<492.5 535 492.5 552> 317 78<505 550>
LayerCount: 2
Fore
SplineSet
132 177 m 0xe8
 132 110 183 66 248 66 c 0
 285 66 320 83 352 111 c 1
 292 163 237 226 194 291 c 1
 158 258 132 222 132 177 c 0xe8
196 509 m 0xd8
 196 476 206 441 223 404 c 1
 275 441 317 478 317 532 c 0
 317 568 302 598 261 598 c 0
 221 598 196 561 196 509 c 0xd8
579 69 m 1
 554 -12 l 1
 510 1 464 25 416 60 c 1
 368 16 310 -12 237 -12 c 0
 115 -12 37 67 37 171 c 0xe8
 37 257 93 311 155 356 c 1
 128 410 112 462 112 508 c 0
 112 596 170 667 260 667 c 0
 346 667 395 612 395 533 c 0
 395 449 325 395 258 343 c 1
 297 283 352 224 408 176 c 1
 441 226 466 287 483 358 c 1
 574 358 l 1
 552 273 518 195 472 126 c 1
 510 98 547 79 579 69 c 1
EndSplineSet
EndChar

StartChar: quotesingle
Encoding: 39 39 490
Width: 600
Flags: MW
HStem: 340 346<268 268 268 332>
VStem: 238.5 123
LayerCount: 2
Fore
SplineSet
268 340 m 1
 240 568 l 1
 237 686 l 1
 363 686 l 1
 360 568 l 1
 332 340 l 1
 268 340 l 1
EndSplineSet
EndChar

StartChar: parenleft
Encoding: 40 40 511
Width: 600
Flags: MW
HStem: -176 908<422 422>
VStem: 201 86<195.5 360.5 195.5 374>
LayerCount: 2
Fore
SplineSet
422 -176 m 1
 285 -67 201 86 201 278 c 0
 201 470 285 623 422 732 c 1
 477 685 l 1
 347 571 287 443 287 278 c 0
 287 113 347 -15 477 -129 c 1
 422 -176 l 1
EndSplineSet
Substitution2: "'subs' Subscript in Latin lookup 14 subtable" parenleft.subs
Substitution2: "'sups' Superscript in Latin lookup 13 subtable" parenleft.sups
Substitution2: "'dnom' Denominators in Latin lookup 9 subtable" parenleft.dnom
Substitution2: "'numr' Numerators in Latin lookup 8 subtable" parenleft.numr
AlternateSubs2: "'aalt' Access All Alternates in Latin lookup 1 subtable" parenleft.numr parenleft.dnom parenleft.sups parenleft.subs
EndChar

StartChar: parenright
Encoding: 41 41 512
Width: 600
Flags: MW
HStem: -176 908<178 178>
VStem: 313 86<195.5 360.5>
LayerCount: 2
Fore
SplineSet
178 -176 m 1
 123 -129 l 1
 253 -15 313 113 313 278 c 0
 313 443 253 571 123 685 c 1
 178 732 l 1
 315 623 399 470 399 278 c 0
 399 86 315 -67 178 -176 c 1
EndSplineSet
Substitution2: "'subs' Subscript in Latin lookup 14 subtable" parenright.subs
Substitution2: "'sups' Superscript in Latin lookup 13 subtable" parenright.sups
Substitution2: "'dnom' Denominators in Latin lookup 9 subtable" parenright.dnom
Substitution2: "'numr' Numerators in Latin lookup 8 subtable" parenright.numr
AlternateSubs2: "'aalt' Access All Alternates in Latin lookup 1 subtable" parenright.numr parenright.dnom parenright.sups parenright.subs
EndChar

StartChar: asterisk
Encoding: 42 42 521
Width: 600
Flags: MW
HStem: 106 453<181 328 272 419>
VStem: 267.5 65
LayerCount: 2
Fore
SplineSet
181 106 m 1
 133 139 l 1
 239 302 l 1
 79 372 l 1
 96 424 l 1
 263 372 l 1
 272 559 l 1
 328 559 l 1
 337 372 l 1
 504 424 l 1
 521 372 l 1
 361 302 l 1
 467 139 l 1
 419 106 l 1
 300 261 l 1
 181 106 l 1
EndSplineSet
Substitution2: "'ss01' Style Set 1 in Latin lookup 17 subtable" asterisk.a
Substitution2: "'aalt' Access All Alternates in Latin lookup 0 subtable" asterisk.a
EndChar

StartChar: plus
Encoding: 43 43 660
Width: 600
Flags: MW
HStem: 294 72<81 262 81 262 338 519>
VStem: 262 76<101 294 101 294 366 559>
LayerCount: 2
Fore
SplineSet
262 101 m 1
 262 294 l 1
 81 294 l 1
 81 366 l 1
 262 366 l 1
 262 559 l 1
 338 559 l 1
 338 366 l 1
 519 366 l 1
 519 294 l 1
 338 294 l 1
 338 101 l 1
 262 101 l 1
EndSplineSet
EndChar

StartChar: comma
Encoding: 44 44 482
Width: 600
Flags: MW
HStem: 5 165<282 306.5>
VStem: 320 84
LayerCount: 2
Fore
SplineSet
220 -214 m 1
 193 -153 l 1
 276 -118 318 -67 320 6 c 1
 315 5 309 5 304 5 c 0
 257 5 218 33 218 87 c 0
 218 140 258 170 306 170 c 0
 370 170 404 117 404 31 c 0
 404 -89 337 -173 220 -214 c 1
EndSplineSet
Substitution2: "'subs' Subscript in Latin lookup 14 subtable" comma.subs
Substitution2: "'sups' Superscript in Latin lookup 13 subtable" comma.sups
Substitution2: "'dnom' Denominators in Latin lookup 9 subtable" comma.dnom
Substitution2: "'numr' Numerators in Latin lookup 8 subtable" comma.numr
AlternateSubs2: "'aalt' Access All Alternates in Latin lookup 1 subtable" comma.numr comma.dnom comma.sups comma.subs
EndChar

StartChar: period
Encoding: 46 46 481
Width: 600
Flags: MW
HStem: -12 186<274.5 325.5>
VStem: 210 180<53.5 108>
LayerCount: 2
Fore
SplineSet
210 81 m 0
 210 135 249 174 300 174 c 0
 351 174 390 135 390 81 c 0
 390 26 351 -12 300 -12 c 0
 249 -12 210 26 210 81 c 0
EndSplineSet
Substitution2: "'subs' Subscript in Latin lookup 14 subtable" period.subs
Substitution2: "'sups' Superscript in Latin lookup 13 subtable" period.sups
Substitution2: "'dnom' Denominators in Latin lookup 9 subtable" period.dnom
Substitution2: "'numr' Numerators in Latin lookup 8 subtable" period.numr
AlternateSubs2: "'aalt' Access All Alternates in Latin lookup 1 subtable" period.numr period.dnom period.sups period.subs
EndChar

StartChar: slash
Encoding: 47 47 517
Width: 600
Flags: MW
HStem: -160 870<93 507 93 507>
VStem: 93 414
LayerCount: 2
Fore
SplineSet
507 710 m 1
 179 -160 l 1
 93 -160 l 1
 421 710 l 1
 507 710 l 1
EndSplineSet
Substitution2: "'frac' Diagonal Fractions in Latin lookup 10 subtable" slash.frac
EndChar

StartChar: zero
Encoding: 48 48 461
Width: 600
Flags: MW
HStem: -12 79<259 341 259 371.5> 257 138<282 318> 571 78<259 341>
VStem: 67 91<231.5 410.5 231.5 428> 234 132<304.5 347.5> 442 91<231.5 410.5>
LayerCount: 2
Fore
SplineSet
300 -12 m 0
 157 -12 67 108 67 321 c 0
 67 535 157 649 300 649 c 0
 443 649 533 535 533 321 c 0
 533 108 443 -12 300 -12 c 0
300 571 m 0
 218 571 158 500 158 321 c 0
 158 142 218 67 300 67 c 0
 382 67 442 142 442 321 c 0
 442 500 382 571 300 571 c 0
300 257 m 0
 264 257 234 283 234 326 c 0
 234 369 264 395 300 395 c 0
 336 395 366 369 366 326 c 0
 366 283 336 257 300 257 c 0
EndSplineSet
Substitution2: "'onum' Oldstyle Figures in Latin lookup 15 subtable" zero.onum
Substitution2: "'subs' Subscript in Latin lookup 14 subtable" zero.subs
Substitution2: "'sups' Superscript in Latin lookup 13 subtable" zero.sups
Substitution2: "'dnom' Denominators in Latin lookup 9 subtable" zero.dnom
Substitution2: "'numr' Numerators in Latin lookup 8 subtable" zero.numr
AlternateSubs2: "'aalt' Access All Alternates in Latin lookup 1 subtable" zero.numr zero.dnom zero.sups zero.subs zero.onum
EndChar

StartChar: one
Encoding: 49 49 462
Width: 600
Flags: MW
HStem: 0 81<94 271 370 530 94 271> 525 112<136 370>
VStem: 271 99<81 525 525 525>
LayerCount: 2
Fore
SplineSet
370 81 m 1
 530 81 l 1
 530 0 l 1
 94 0 l 1
 94 81 l 1
 271 81 l 1
 271 525 l 1
 136 525 l 1
 136 587 l 1
 205 598 254 614 296 637 c 1
 370 637 l 1
 370 81 l 1
EndSplineSet
Substitution2: "'onum' Oldstyle Figures in Latin lookup 15 subtable" one.onum
Substitution2: "'subs' Subscript in Latin lookup 14 subtable" one.subs
Substitution2: "'sups' Superscript in Latin lookup 13 subtable" one.sups
Substitution2: "'dnom' Denominators in Latin lookup 9 subtable" one.dnom
Substitution2: "'numr' Numerators in Latin lookup 8 subtable" one.numr
AlternateSubs2: "'aalt' Access All Alternates in Latin lookup 1 subtable" one.numr one.dnom one.sups one.subs one.onum
EndChar

StartChar: two
Encoding: 50 50 463
Width: 600
Flags: MW
HStem: 0 84<330 525 330 525> 570 79<237.5 309.5>
VStem: 396 95<401.5 488>
LayerCount: 2
Fore
SplineSet
69 0 m 1
 69 58 l 1
 277 239 396 350 396 453 c 0
 396 523 353 570 266 570 c 0
 209 570 159 536 120 496 c 1
 64 551 l 1
 124 612 187 649 279 649 c 0
 408 649 491 573 491 458 c 0
 491 341 373 223 213 78 c 1
 251 81 294 84 330 84 c 2
 525 84 l 1
 525 0 l 1
 69 0 l 1
EndSplineSet
Substitution2: "'onum' Oldstyle Figures in Latin lookup 15 subtable" two.onum
Substitution2: "'subs' Subscript in Latin lookup 14 subtable" two.subs
Substitution2: "'sups' Superscript in Latin lookup 13 subtable" two.sups
Substitution2: "'dnom' Denominators in Latin lookup 9 subtable" two.dnom
Substitution2: "'numr' Numerators in Latin lookup 8 subtable" two.numr
AlternateSubs2: "'aalt' Access All Alternates in Latin lookup 1 subtable" two.numr two.dnom two.sups two.subs two.onum
EndChar

StartChar: three
Encoding: 51 51 464
Width: 600
Flags: MW
HStem: -12 81<240 319 240 349.5> 293 74<200 272.5 200 281.5> 570 79<249.5 314.5>
VStem: 200 167<331 335 331 367 331 367> 400 100<447 505.5> 422 100<143 211>
LayerCount: 2
Fore
SplineSet
53 78 m 1xf4
 102 142 l 1
 144 103 202 69 278 69 c 0
 360 69 422 110 422 176 c 0xf4
 422 246 363 293 200 293 c 1
 200 367 l 1
 345 367 400 414 400 477 c 0
 400 534 351 570 278 570 c 0
 221 570 170 544 128 507 c 1
 76 569 l 1
 131 616 200 649 282 649 c 0
 408 649 500 589 500 484 c 0xf8
 500 410 446 362 367 335 c 1
 367 331 l 1
 451 312 522 257 522 171 c 0
 522 56 414 -12 285 -12 c 0
 175 -12 100 29 53 78 c 1xf4
EndSplineSet
Substitution2: "'onum' Oldstyle Figures in Latin lookup 15 subtable" three.onum
Substitution2: "'subs' Subscript in Latin lookup 14 subtable" three.subs
Substitution2: "'sups' Superscript in Latin lookup 13 subtable" three.sups
Substitution2: "'dnom' Denominators in Latin lookup 9 subtable" three.dnom
Substitution2: "'numr' Numerators in Latin lookup 8 subtable" three.numr
AlternateSubs2: "'aalt' Access All Alternates in Latin lookup 1 subtable" three.numr three.dnom three.sups three.subs three.onum
EndChar

StartChar: four
Encoding: 52 52 465
Width: 600
Flags: MW
HStem: 0 21G<361 454 361 361> 170 78<142 361 142 361 454 549> 542 96<361 366 361 361>
VStem: 361 93<0 170 0 170 248 422 422 422 542 542>
LayerCount: 2
Fore
SplineSet
142 248 m 1
 361 248 l 1
 361 422 l 1
 362 458 364 505 366 542 c 1
 361 542 l 1
 341 509 317 477 295 445 c 1
 142 248 l 1
549 248 m 1
 549 170 l 1
 454 170 l 1
 454 0 l 1
 361 0 l 1
 361 170 l 1
 38 170 l 1
 38 237 l 1
 343 638 l 1
 454 638 l 1
 454 248 l 1
 549 248 l 1
EndSplineSet
Substitution2: "'onum' Oldstyle Figures in Latin lookup 15 subtable" four.onum
Substitution2: "'subs' Subscript in Latin lookup 14 subtable" four.subs
Substitution2: "'sups' Superscript in Latin lookup 13 subtable" four.sups
Substitution2: "'dnom' Denominators in Latin lookup 9 subtable" four.dnom
Substitution2: "'numr' Numerators in Latin lookup 8 subtable" four.numr
AlternateSubs2: "'aalt' Access All Alternates in Latin lookup 1 subtable" four.numr four.dnom four.sups four.subs four.onum
EndChar

StartChar: five
Encoding: 53 53 466
Width: 600
Flags: MW
HStem: -12 81<233.5 315.5 233.5 347> 332 73<284 322> 553 84<212 494 212 212>
VStem: 115 89.5 425 100<161.5 244>
LayerCount: 2
Fore
SplineSet
53 76 m 1
 101 140 l 1
 143 103 194 69 273 69 c 0
 358 69 425 120 425 203 c 0
 425 285 366 332 278 332 c 0
 228 332 199 320 155 295 c 1
 105 327 l 1
 125 637 l 1
 494 637 l 1
 494 553 l 1
 212 553 l 1
 197 382 l 1
 231 396 262 405 306 405 c 0
 426 405 525 343 525 206 c 0
 525 67 409 -12 285 -12 c 0
 172 -12 103 30 53 76 c 1
EndSplineSet
Substitution2: "'onum' Oldstyle Figures in Latin lookup 15 subtable" five.onum
Substitution2: "'subs' Subscript in Latin lookup 14 subtable" five.subs
Substitution2: "'sups' Superscript in Latin lookup 13 subtable" five.sups
Substitution2: "'dnom' Denominators in Latin lookup 9 subtable" five.dnom
Substitution2: "'numr' Numerators in Latin lookup 8 subtable" five.numr
AlternateSubs2: "'aalt' Access All Alternates in Latin lookup 1 subtable" five.numr five.dnom five.sups five.subs five.onum
EndChar

StartChar: six
Encoding: 54 54 467
Width: 600
Flags: MW
HStem: -12 77<278 353.5 278 378> 319 73<309 359> 568 81<300.5 371.5>
VStem: 73 92 444 93<154.5 235.5>
LayerCount: 2
Fore
SplineSet
319 65 m 0
 388 65 444 114 444 195 c 0
 444 276 399 319 319 319 c 0
 273 319 218 297 168 239 c 1
 181 121 237 65 319 65 c 0
526 579 m 1
 472 518 l 1
 440 548 395 568 348 568 c 0
 253 568 169 502 165 312 c 1
 215 362 279 392 339 392 c 0
 455 392 537 327 537 195 c 0
 537 70 436 -12 320 -12 c 0
 183 -12 73 87 73 297 c 0
 73 548 202 649 341 649 c 0
 422 649 483 618 526 579 c 1
EndSplineSet
Substitution2: "'onum' Oldstyle Figures in Latin lookup 15 subtable" six.onum
Substitution2: "'subs' Subscript in Latin lookup 14 subtable" six.subs
Substitution2: "'sups' Superscript in Latin lookup 13 subtable" six.sups
Substitution2: "'dnom' Denominators in Latin lookup 9 subtable" six.dnom
Substitution2: "'numr' Numerators in Latin lookup 8 subtable" six.numr
AlternateSubs2: "'aalt' Access All Alternates in Latin lookup 1 subtable" six.numr six.dnom six.sups six.subs six.onum
EndChar

StartChar: seven
Encoding: 55 55 468
Width: 600
Flags: MW
HStem: 0 21G<217 217 217 319> 553 84<68 423 68 534>
VStem: 217 102<0 0>
LayerCount: 2
Fore
SplineSet
217 0 m 1
 228 234 281 377 423 553 c 1
 68 553 l 1
 68 637 l 1
 534 637 l 1
 534 576 l 1
 367 387 330 250 319 0 c 1
 217 0 l 1
EndSplineSet
Substitution2: "'onum' Oldstyle Figures in Latin lookup 15 subtable" seven.onum
Substitution2: "'subs' Subscript in Latin lookup 14 subtable" seven.subs
Substitution2: "'sups' Superscript in Latin lookup 13 subtable" seven.sups
Substitution2: "'dnom' Denominators in Latin lookup 9 subtable" seven.dnom
Substitution2: "'numr' Numerators in Latin lookup 8 subtable" seven.numr
AlternateSubs2: "'aalt' Access All Alternates in Latin lookup 1 subtable" seven.numr seven.dnom seven.sups seven.subs seven.onum
EndChar

StartChar: nine
Encoding: 57 57 470
Width: 600
Flags: MW
HStem: -12 81<228.5 299.5 228.5 328.5> 245 73<241 291> 572 77<246.5 322>
VStem: 63 93<401.5 482.5 401.5 504.5> 435 93
LayerCount: 2
Fore
SplineSet
281 318 m 0
 327 318 382 340 432 398 c 1
 419 516 363 572 281 572 c 0
 212 572 156 523 156 442 c 0
 156 361 201 318 281 318 c 0
75 58 m 1
 129 119 l 1
 160 89 205 69 252 69 c 0
 347 69 431 135 435 325 c 1
 385 275 321 245 261 245 c 0
 145 245 63 310 63 442 c 0
 63 567 164 649 280 649 c 0
 417 649 528 550 528 340 c 0
 528 89 398 -12 259 -12 c 0
 178 -12 117 19 75 58 c 1
EndSplineSet
Substitution2: "'onum' Oldstyle Figures in Latin lookup 15 subtable" nine.onum
Substitution2: "'subs' Subscript in Latin lookup 14 subtable" nine.subs
Substitution2: "'sups' Superscript in Latin lookup 13 subtable" nine.sups
Substitution2: "'dnom' Denominators in Latin lookup 9 subtable" nine.dnom
Substitution2: "'numr' Numerators in Latin lookup 8 subtable" nine.numr
AlternateSubs2: "'aalt' Access All Alternates in Latin lookup 1 subtable" nine.numr nine.dnom nine.sups nine.subs nine.onum
EndChar

StartChar: colon
Encoding: 58 58 483
Width: 600
Flags: MW
HStem: -12 186<274.5 325.5> 337 186<274.5 325.5>
VStem: 210 180<53.5 108 403 457>
LayerCount: 2
Fore
SplineSet
210 430 m 0
 210 484 249 523 300 523 c 0
 351 523 390 484 390 430 c 0
 390 376 351 337 300 337 c 0
 249 337 210 376 210 430 c 0
210 81 m 0
 210 135 249 174 300 174 c 0
 351 174 390 135 390 81 c 0
 390 26 351 -12 300 -12 c 0
 249 -12 210 26 210 81 c 0
EndSplineSet
EndChar

StartChar: semicolon
Encoding: 59 59 484
Width: 600
Flags: MW
HStem: 5 165<282 306.5> 337 186<274.5 325.5>
VStem: 210 180<403 457> 320 84
LayerCount: 2
Fore
SplineSet
300 337 m 0xe0
 249 337 210 376 210 430 c 0
 210 484 249 523 300 523 c 0
 351 523 390 484 390 430 c 0
 390 376 351 337 300 337 c 0xe0
220 -214 m 1
 193 -153 l 1
 276 -118 318 -67 320 6 c 1
 315 5 309 5 304 5 c 0
 257 5 218 33 218 87 c 0
 218 140 258 170 306 170 c 0
 370 170 404 117 404 31 c 0xd0
 404 -89 337 -173 220 -214 c 1
EndSplineSet
EndChar

StartChar: less
Encoding: 60 60 666
Width: 600
Flags: MW
HStem: 44 576<496 496>
VStem: 119 85<330 334 330 368 330 368>
LayerCount: 2
Fore
SplineSet
119 296 m 1
 119 368 l 1
 496 620 l 1
 496 527 l 1
 204 334 l 1
 204 330 l 1
 496 137 l 1
 496 44 l 1
 119 296 l 1
EndSplineSet
EndChar

StartChar: equal
Encoding: 61 61 665
Width: 600
Flags: MW
HStem: 184 73<81 519 81 519> 403 73<81 519 81 519>
VStem: 81 438<184 257 184 257 403 476 184 476>
LayerCount: 2
Fore
SplineSet
81 403 m 1
 81 476 l 1
 519 476 l 1
 519 403 l 1
 81 403 l 1
81 184 m 1
 81 257 l 1
 519 257 l 1
 519 184 l 1
 81 184 l 1
EndSplineSet
EndChar

StartChar: greater
Encoding: 62 62 667
Width: 600
Flags: MW
HStem: 44 576<104 104>
VStem: 396 85<330 334 334 334>
LayerCount: 2
Fore
SplineSet
481 368 m 1
 481 296 l 1
 104 44 l 1
 104 137 l 1
 396 330 l 1
 396 334 l 1
 104 527 l 1
 104 620 l 1
 481 368 l 1
EndSplineSet
EndChar

StartChar: question
Encoding: 63 63 488
Width: 600
Flags: MW
HStem: -12 21G<264 308> -12 167<264 308> 601 81<262 318.5>
VStem: 206 160<46.5 97> 387 96<465.5 538.5>
LayerCount: 2
Fore
SplineSet
236 238 m 1xb8
 213 379 387 418 387 513 c 0
 387 564 351 601 286 601 c 0
 238 601 198 579 163 546 c 1
 106 598 l 1
 152 647 215 682 293 682 c 0
 405 682 483 623 483 524 c 0
 483 393 307 364 323 238 c 1
 236 238 l 1xb8
206 72 m 0xb0
 206 122 242 155 286 155 c 0x70
 330 155 366 122 366 72 c 0
 366 21 330 -12 286 -12 c 0
 242 -12 206 21 206 72 c 0xb0
EndSplineSet
EndChar

StartChar: at
Encoding: 64 64 531
Width: 600
Flags: MW
HStem: -145 64<281 373 281 374> 88 68<347.5 375> 574 64<279.5 386.5>
VStem: 45 72<141.5 358 141.5 380.5> 220 77<202.5 252.5 202.5 273.5> 472 75<213 330 330 330>
LayerCount: 2
Fore
SplineSet
547 398 m 2
 547 100 l 1
 490 100 l 1
 482 156 l 1
 478 156 l 1
 450 119 401 88 349 88 c 0
 278 88 220 141 220 222 c 0
 220 325 315 372 481 393 c 1
 481 407 l 2
 481 497 437 574 336 574 c 0
 223 574 117 468 117 248 c 0
 117 35 219 -81 343 -81 c 0
 403 -81 443 -65 482 -38 c 1
 514 -90 l 1
 461 -125 408 -145 340 -145 c 0
 182 -145 45 -10 45 251 c 0
 45 510 175 638 340 638 c 0
 482 638 547 533 547 398 c 2
297 224 m 0
 297 181 325 156 370 156 c 0
 404 156 439 176 472 213 c 1
 472 330 l 1
 346 312 297 281 297 224 c 0
EndSplineSet
Substitution2: "'case' Case-Sensitive Forms in Latin lookup 16 subtable" at.case
Substitution2: "'aalt' Access All Alternates in Latin lookup 0 subtable" at.case
EndChar

StartChar: B
Encoding: 66 66 3
Width: 600
GlyphClass: 2
Flags: MW
HStem: 0 79<198 288 288 300> 307 73<198 272 272 288 198 272> 577 78<198 275 198 198>
VStem: 98 100<79 79 79 307 380 577> 415 98<462.5 516.5> 450 98<157.5 235.5>
AnchorPoint: "Anchor-2" 309 -22 basechar 0
AnchorPoint: "Anchor-0" 275 694 basechar 0
LayerCount: 2
Fore
SplineSet
98 0 m 1xf4
 98 655 l 1
 284 655 l 2
 418 655 513 612 513 494 c 0xf8
 513 431 476 372 399 352 c 1
 399 348 l 1
 494 332 548 281 548 192 c 0
 548 62 445 0 300 0 c 2
 98 0 l 1xf4
198 380 m 1
 272 380 l 2
 373 380 415 417 415 484 c 0
 415 549 368 577 275 577 c 2
 198 577 l 1
 198 380 l 1
198 79 m 1
 288 79 l 2
 392 79 450 117 450 198 c 0xf4
 450 273 394 307 288 307 c 2
 198 307 l 1
 198 79 l 1
EndSplineSet
EndChar

StartChar: C
Encoding: 67 67 4
Width: 600
GlyphClass: 2
Flags: MW
HStem: -12 87<303.5 391 303.5 398.5> 580 87<302.5 387.5>
VStem: 63 103<250.5 406.5 250.5 432.5>
AnchorPoint: "Anchor-2" 347 -22 basechar 0
AnchorPoint: "Anchor-1" 347 0 basechar 0
AnchorPoint: "Anchor-0" 349 677 basechar 0
LayerCount: 2
Fore
SplineSet
63 326 m 0
 63 539 189 667 361 667 c 0
 441 667 504 628 543 586 c 1
 487 523 l 1
 454 558 414 580 361 580 c 0
 244 580 166 484 166 329 c 0
 166 172 244 75 363 75 c 0
 419 75 462 100 502 144 c 1
 558 83 l 1
 505 22 440 -12 357 -12 c 0
 191 -12 63 111 63 326 c 0
EndSplineSet
EndChar

StartChar: E
Encoding: 69 69 6
Width: 600
GlyphClass: 2
Flags: MW
HStem: 0 84<210 531 210 531> 300 84<210 473 210 473> 571 84<210 521 210 210>
VStem: 110 100<84 300 384 571>
AnchorPoint: "Anchor-4" 424 0 basechar 0
AnchorPoint: "Anchor-2" 331 -22 basechar 0
AnchorPoint: "Anchor-0" 320 677 basechar 0
LayerCount: 2
Fore
SplineSet
110 0 m 1
 110 655 l 1
 521 655 l 1
 521 571 l 1
 210 571 l 1
 210 384 l 1
 473 384 l 1
 473 300 l 1
 210 300 l 1
 210 84 l 1
 531 84 l 1
 531 0 l 1
 110 0 l 1
EndSplineSet
EndChar

StartChar: F
Encoding: 70 70 7
Width: 600
GlyphClass: 2
Flags: MW
HStem: 0 21G<128 128 128 227> 283 85<227 489 227 489> 571 84<227 536 227 227>
VStem: 128 99<0 283 368 571>
AnchorPoint: "Anchor-2" 190 -22 basechar 0
AnchorPoint: "Anchor-0" 336 677 basechar 0
LayerCount: 2
Fore
SplineSet
128 0 m 1
 128 655 l 1
 536 655 l 1
 536 571 l 1
 227 571 l 1
 227 368 l 1
 489 368 l 1
 489 283 l 1
 227 283 l 1
 227 0 l 1
 128 0 l 1
EndSplineSet
EndChar

StartChar: H
Encoding: 72 72 9
Width: 600
GlyphClass: 2
Flags: MW
HStem: 0 21G<75 75 75 176 424 424 424 525> 299 87<176 424 176 424> 635 20G<75 176 176 176 424 525 525 525>
VStem: 75 101<0 299 386 655> 424 101<0 299 299 299 386 655 0 655>
AnchorPoint: "Anchor-2" 299 -22 basechar 0
AnchorPoint: "Anchor-0" 299 677 basechar 0
LayerCount: 2
Fore
SplineSet
75 0 m 1
 75 655 l 1
 176 655 l 1
 176 386 l 1
 424 386 l 1
 424 655 l 1
 525 655 l 1
 525 0 l 1
 424 0 l 1
 424 299 l 1
 176 299 l 1
 176 0 l 1
 75 0 l 1
EndSplineSet
EndChar

StartChar: I
Encoding: 73 73 10
Width: 600
GlyphClass: 2
Flags: MW
HStem: 0 84<90 250 90 250 350 510> 571 84<90 250 90 510 350 350 350 510>
VStem: 250 100<84 571 84 571>
AnchorPoint: "Anchor-4" 278 0 basechar 0
AnchorPoint: "Anchor-2" 300 -22 basechar 0
AnchorPoint: "Anchor-0" 300 677 basechar 0
LayerCount: 2
Fore
SplineSet
90 0 m 1
 90 84 l 1
 250 84 l 1
 250 571 l 1
 90 571 l 1
 90 655 l 1
 510 655 l 1
 510 571 l 1
 350 571 l 1
 350 84 l 1
 510 84 l 1
 510 0 l 1
 90 0 l 1
EndSplineSet
EndChar

StartChar: J
Encoding: 74 74 11
Width: 600
GlyphClass: 2
Flags: MW
HStem: -12 87<248.5 316 248.5 359> 572 84<130 399 130 499>
VStem: 399 100<221 572 572 572>
AnchorPoint: "Anchor-2" 314 -22 basechar 0
AnchorPoint: "Anchor-0" 407 677 basechar 0
LayerCount: 2
Fore
SplineSet
75 97 m 1
 138 157 l 1
 175 102 224 75 273 75 c 0
 359 75 399 118 399 221 c 2
 399 572 l 1
 130 572 l 1
 130 656 l 1
 499 656 l 1
 499 213 l 2
 499 89 443 -12 275 -12 c 0
 202 -12 123 20 75 97 c 1
EndSplineSet
EndChar

StartChar: K
Encoding: 75 75 12
Width: 600
GlyphClass: 2
Flags: MW
HStem: 0 21G<90 90 90 191 472 472 472 583> 635 20G<90 191 191 191 448 560 560 560>
VStem: 90 101<0 199 342 655>
AnchorPoint: "Anchor-2" 335 -22 basechar 0
AnchorPoint: "Anchor-0" 319 677 basechar 0
LayerCount: 2
Fore
SplineSet
90 0 m 1
 90 655 l 1
 191 655 l 1
 191 342 l 1
 194 342 l 1
 448 655 l 1
 560 655 l 1
 357 402 l 1
 583 0 l 1
 472 0 l 1
 296 324 l 1
 191 199 l 1
 191 0 l 1
 90 0 l 1
EndSplineSet
EndChar

StartChar: M
Encoding: 77 77 14
Width: 600
GlyphClass: 2
Flags: MW
HStem: 0 21G<77 77 77 159 439 439 439 523> 177 109<299 303 299 324 274 303> 555 100<146 149 146 146 449 452 449 449>
VStem: 77 82<0 329 0 655> 439 84<0 329 329 358>
AnchorPoint: "Anchor-2" 300 -22 basechar 0
AnchorPoint: "Anchor-0" 300 677 basechar 0
LayerCount: 2
Fore
SplineSet
77 0 m 1
 77 655 l 1
 183 655 l 1
 269 389 l 1
 299 286 l 1
 303 286 l 1
 332 389 l 1
 417 655 l 1
 523 655 l 1
 523 0 l 1
 439 0 l 1
 439 329 l 2
 439 387 447 497 452 555 c 1
 449 555 l 1
 404 405 l 1
 324 177 l 1
 274 177 l 1
 194 405 l 1
 149 555 l 1
 146 555 l 1
 151 497 159 387 159 329 c 2
 159 0 l 1
 77 0 l 1
EndSplineSet
EndChar

StartChar: O
Encoding: 79 79 16
Width: 600
GlyphClass: 2
Flags: MW
HStem: -12 87<254.5 345.5 254.5 375> 580 87<254.5 345.5>
VStem: 45 103<252.5 407.5 252.5 435.5> 452 103<252.5 407.5>
AnchorPoint: "Anchor-4" 300 0 basechar 0
AnchorPoint: "Anchor-3" 421 645 basechar 0
AnchorPoint: "Anchor-2" 300 -22 basechar 0
AnchorPoint: "Anchor-0" 300 677 basechar 0
LayerCount: 2
Fore
SplineSet
300 -12 m 0
 150 -12 45 119 45 330 c 0
 45 541 150 667 300 667 c 0
 450 667 555 540 555 330 c 0
 555 119 450 -12 300 -12 c 0
300 75 m 0
 391 75 452 175 452 330 c 0
 452 485 391 580 300 580 c 0
 209 580 148 485 148 330 c 0
 148 175 209 75 300 75 c 0
EndSplineSet
EndChar

StartChar: P
Encoding: 80 80 17
Width: 600
GlyphClass: 2
Flags: MW
HStem: 0 21G<94 94 94 194> 250 81<194 295 295 305 194 295> 575 80<194 295 194 194>
VStem: 94 100<0 250 331 575> 452 99<414.5 501.5>
AnchorPoint: "Anchor-2" 151 -22 basechar 0
AnchorPoint: "Anchor-0" 314 677 basechar 0
LayerCount: 2
Fore
SplineSet
94 0 m 1
 94 655 l 1
 305 655 l 2
 449 655 551 605 551 458 c 0
 551 316 447 250 305 250 c 2
 194 250 l 1
 194 0 l 1
 94 0 l 1
194 331 m 1
 295 331 l 2
 401 331 452 371 452 458 c 0
 452 545 399 575 295 575 c 2
 194 575 l 1
 194 331 l 1
EndSplineSet
EndChar

StartChar: Q
Encoding: 81 81 18
Width: 600
GlyphClass: 2
Flags: MW
HStem: -167 84<460.5 496> -5 21G 581 87<252 344.5>
VStem: 46 102<253 407.5 253 435.5> 448 102<253 407.5>
AnchorPoint: "Anchor-0" 302 683 basechar 0
LayerCount: 2
Fore
SplineSet
148 330 m 0
 148 176 206 74 298 74 c 0
 391 74 448 176 448 330 c 0
 448 485 391 581 298 581 c 0
 206 581 148 485 148 330 c 0
542 -73 m 1
 560 -151 l 1
 539 -160 512 -167 480 -167 c 0
 362 -167 285 -99 250 -7 c 1
 126 18 46 143 46 330 c 0
 46 541 148 668 298 668 c 0
 448 668 550 540 550 330 c 0
 550 148 473 25 356 -5 c 1
 379 -59 429 -83 492 -83 c 0
 512 -83 530 -79 542 -73 c 1
EndSplineSet
EndChar

StartChar: R
Encoding: 82 82 19
Width: 600
GlyphClass: 2
Flags: MW
HStem: 0 21G<92 192 92 92 448 561 448 448> 266 81<192 291 291 299 192 291> 575 80<192 192 192 291>
VStem: 92 100<0 266 347 575> 439 99<426 506>
AnchorPoint: "Anchor-2" 320 -22 basechar 0
AnchorPoint: "Anchor-0" 304 677 basechar 0
LayerCount: 2
Fore
SplineSet
192 575 m 1
 192 347 l 1
 291 347 l 2
 387 347 439 386 439 466 c 0
 439 546 387 575 291 575 c 2
 192 575 l 1
561 0 m 1
 448 0 l 1
 299 266 l 1
 192 266 l 1
 192 0 l 1
 92 0 l 1
 92 655 l 1
 303 655 l 2
 438 655 538 607 538 466 c 0
 538 365 483 304 400 279 c 1
 561 0 l 1
EndSplineSet
EndChar

StartChar: S
Encoding: 83 83 20
Width: 600
GlyphClass: 2
Flags: MW
HStem: -12 87<271 348 271 377.5> 580 87<277 345>
VStem: 93 101<465 520.5 465 539> 439 102<142 201>
AnchorPoint: "Anchor-2" 305 -22 basechar 0
AnchorPoint: "Anchor-1" 305 0 basechar 0
AnchorPoint: "Anchor-0" 312 677 basechar 0
LayerCount: 2
Fore
SplineSet
63 85 m 1
 121 153 l 1
 171 106 237 75 305 75 c 0
 391 75 439 113 439 171 c 0
 439 231 391 250 325 276 c 1
 233 317 l 1
 166 343 93 392 93 488 c 0
 93 590 184 667 314 667 c 0
 395 667 468 635 519 585 c 1
 467 521 l 1
 424 558 376 580 314 580 c 0
 240 580 194 547 194 494 c 0
 194 436 250 416 308 393 c 1
 397 354 l 1
 479 322 541 275 541 179 c 0
 541 74 452 -12 303 -12 c 0
 209 -12 125 24 63 85 c 1
EndSplineSet
EndChar

StartChar: T
Encoding: 84 84 21
Width: 600
GlyphClass: 2
Flags: MW
HStem: 0 21G<250 250 250 350> 571 84<39 250 39 561 350 350 350 561>
VStem: 250 100<0 571 0 571>
AnchorPoint: "Anchor-2" 300 -22 basechar 0
AnchorPoint: "Anchor-1" 300 0 basechar 0
AnchorPoint: "Anchor-0" 299 677 basechar 0
LayerCount: 2
Fore
SplineSet
250 0 m 1
 250 571 l 1
 39 571 l 1
 39 655 l 1
 561 655 l 1
 561 571 l 1
 350 571 l 1
 350 0 l 1
 250 0 l 1
EndSplineSet
EndChar

StartChar: V
Encoding: 86 86 23
Width: 600
GlyphClass: 2
Flags: MW
HStem: 0 99<242 304 300 304 300 359> 635 20G<35 141 141 141 463 565 565 565>
VStem: 35 530<655 655>
AnchorPoint: "Anchor-2" 300 -22 basechar 0
AnchorPoint: "Anchor-0" 299 677 basechar 0
LayerCount: 2
Fore
SplineSet
242 0 m 1
 35 655 l 1
 141 655 l 1
 240 314 l 2
 262 238 277 174 300 99 c 1
 304 99 l 1
 328 174 343 238 365 314 c 2
 463 655 l 1
 565 655 l 1
 359 0 l 1
 242 0 l 1
EndSplineSet
EndChar

StartChar: X
Encoding: 88 88 25
Width: 600
GlyphClass: 2
Flags: MW
HStem: 0 21G<45 45 45 150 445 445 445 555> 635 20G<57 168 168 168 437 543 543 543>
VStem: 45 510<0 0>
AnchorPoint: "Anchor-2" 294 -22 basechar 0
AnchorPoint: "Anchor-0" 301 677 basechar 0
LayerCount: 2
Fore
SplineSet
45 0 m 1
 239 338 l 1
 57 655 l 1
 168 655 l 1
 253 499 l 2
 269 469 284 440 304 401 c 1
 308 401 l 1
 326 440 339 469 355 499 c 2
 437 655 l 1
 543 655 l 1
 361 333 l 1
 555 0 l 1
 445 0 l 1
 353 165 l 2
 335 198 317 231 297 271 c 1
 293 271 l 1
 274 231 257 198 240 165 c 2
 150 0 l 1
 45 0 l 1
EndSplineSet
EndChar

StartChar: Y
Encoding: 89 89 26
Width: 600
GlyphClass: 2
Flags: MW
HStem: 0 21G<250 250 250 350> 635 20G<33 139 139 139 464 567 567 567>
VStem: 250 100<0 230 0 230>
AnchorPoint: "Anchor-2" 300 -22 basechar 0
AnchorPoint: "Anchor-0" 300 677 basechar 0
LayerCount: 2
Fore
SplineSet
250 0 m 1
 250 230 l 1
 33 655 l 1
 139 655 l 1
 229 470 l 2
 253 419 275 370 300 318 c 1
 304 318 l 1
 329 370 353 419 377 470 c 2
 464 655 l 1
 567 655 l 1
 350 230 l 1
 350 0 l 1
 250 0 l 1
EndSplineSet
EndChar

StartChar: Z
Encoding: 90 90 27
Width: 600
GlyphClass: 2
Flags: MW
HStem: 0 84<185 541 185 541> 572 84<94 414 94 536>
VStem: 63 478<0 60 60 60>
AnchorPoint: "Anchor-2" 312 -22 basechar 0
AnchorPoint: "Anchor-0" 311 677 basechar 0
LayerCount: 2
Fore
SplineSet
63 0 m 1
 63 60 l 1
 414 572 l 1
 94 572 l 1
 94 656 l 1
 536 656 l 1
 536 595 l 1
 185 84 l 1
 541 84 l 1
 541 0 l 1
 63 0 l 1
EndSplineSet
EndChar

StartChar: bracketleft
Encoding: 91 91 513
Width: 600
Flags: MW
HStem: -152 56<297 500 297 500> 652 56<297 500 297 297>
VStem: 219 78<-96 652 -96 708 -96 708>
LayerCount: 2
Fore
SplineSet
219 -152 m 1
 219 708 l 1
 500 708 l 1
 500 652 l 1
 297 652 l 1
 297 -96 l 1
 500 -96 l 1
 500 -152 l 1
 219 -152 l 1
EndSplineSet
EndChar

StartChar: backslash
Encoding: 92 92 519
Width: 600
Flags: MW
HStem: -160 870<93 421 93 507>
VStem: 93 414
LayerCount: 2
Fore
SplineSet
421 -160 m 1
 93 710 l 1
 179 710 l 1
 507 -160 l 1
 421 -160 l 1
EndSplineSet
EndChar

StartChar: bracketright
Encoding: 93 93 514
Width: 600
Flags: MW
HStem: -152 56<100 303 100 381 100 303> 652 56<100 303 100 381>
VStem: 303 78<-96 652 652 652>
LayerCount: 2
Fore
SplineSet
100 -96 m 1
 303 -96 l 1
 303 652 l 1
 100 652 l 1
 100 708 l 1
 381 708 l 1
 381 -152 l 1
 100 -152 l 1
 100 -96 l 1
EndSplineSet
EndChar

StartChar: asciicircum
Encoding: 94 94 671
Width: 600
Flags: MW
HStem: 579 91<298 302 298 298>
VStem: 105 390<281 281>
LayerCount: 2
Fore
SplineSet
105 281 m 1
 258 670 l 1
 342 670 l 1
 495 281 l 1
 411 281 l 1
 350 445 l 1
 302 579 l 1
 298 579 l 1
 250 445 l 1
 189 281 l 1
 105 281 l 1
EndSplineSet
EndChar

StartChar: underscore
Encoding: 95 95 510
Width: 600
Flags: MW
HStem: -146 81<60 540 60 540>
VStem: 60 480<-146 -65 -146 -65>
LayerCount: 2
Fore
SplineSet
60 -65 m 1
 540 -65 l 1
 540 -146 l 1
 60 -146 l 1
 60 -65 l 1
EndSplineSet
EndChar

StartChar: grave
Encoding: 96 96 715
Width: 600
Flags: MW
HStem: 573 153<174 295 174 369>
VStem: 174 195<573 726>
LayerCount: 2
Fore
SplineSet
295 573 m 1
 174 726 l 1
 279 726 l 1
 369 573 l 1
 295 573 l 1
EndSplineSet
EndChar

StartChar: b
Encoding: 98 98 29
Width: 600
GlyphClass: 2
Flags: MW
HStem: -12 82<301.5 344.5 290 382> 0 21G<88 88 88 166> 418 83<314.5 360> 689 20G<88 187 187 187>
VStem: 88 99<121 121 121 352 521 709> 442 102<193 302>
AnchorPoint: "Anchor-2" 301 -22 basechar 0
AnchorPoint: "Anchor-0" 145 730 basechar 0
LayerCount: 2
Fore
SplineSet
88 0 m 1x7c
 88 709 l 1
 187 709 l 1
 187 521 l 1
 184 431 l 1
 228 473 287 501 342 501 c 0
 471 501 544 403 544 252 c 0
 544 85 439 -12 325 -12 c 0
 278 -12 222 12 178 54 c 1
 175 54 l 1xbc
 166 0 l 1
 88 0 l 1x7c
187 121 m 1
 228 84 274 70 306 70 c 0
 383 70 442 135 442 251 c 0
 442 353 404 418 316 418 c 0
 276 418 231 398 187 352 c 1
 187 121 l 1
EndSplineSet
Substitution2: "'sups' Superscript in Latin lookup 12 subtable" b.sups
Substitution2: "'aalt' Access All Alternates in Latin lookup 0 subtable" b.sups
EndChar

StartChar: c
Encoding: 99 99 30
Width: 600
GlyphClass: 2
Flags: MW
HStem: -12 81<301 380.5> 419 82<303.5 380>
VStem: 76 102<191.5 296.5 191.5 325.5>
AnchorPoint: "Anchor-2" 342 -22 basechar 0
AnchorPoint: "Anchor-1" 342 0 basechar 0
AnchorPoint: "Anchor-0" 343 511 basechar 0
LayerCount: 2
Fore
SplineSet
76 244 m 0
 76 407 203 501 351 501 c 0
 431 501 491 470 531 431 c 1
 483 368 l 1
 444 400 404 419 356 419 c 0
 251 419 178 349 178 244 c 0
 178 139 249 69 353 69 c 0
 412 69 460 95 499 127 c 1
 541 63 l 1
 486 15 416 -12 345 -12 c 0
 192 -12 76 82 76 244 c 0
EndSplineSet
Substitution2: "'sups' Superscript in Latin lookup 12 subtable" c.sups
Substitution2: "'aalt' Access All Alternates in Latin lookup 0 subtable" c.sups
EndChar

StartChar: d
Encoding: 100 100 31
Width: 600
GlyphClass: 2
Flags: MW
HStem: -12 82<248.5 296> 0 21G<431 512 431 431> 418 83<259 304.5 218.5 316.5> 689 20G<413 512 512 512>
VStem: 56 102<189 298 189 323.5> 413 99<136 368 368 368 527 709 0 709>
AnchorPoint: "Anchor-2" 307 -22 basechar 0
AnchorPoint: "Anchor-0" 444 730 basechar 0
LayerCount: 2
Fore
SplineSet
56 244 m 0xbc
 56 403 162 501 275 501 c 0
 334 501 375 478 417 440 c 1
 413 527 l 1
 413 709 l 1
 512 709 l 1
 512 0 l 1
 431 0 l 1x7c
 423 60 l 1
 420 60 l 1
 381 21 325 -12 267 -12 c 0
 140 -12 56 82 56 244 c 0xbc
158 245 m 0
 158 133 207 70 290 70 c 0
 334 70 375 92 413 136 c 1
 413 368 l 1
 374 405 336 418 297 418 c 0
 221 418 158 351 158 245 c 0
EndSplineSet
Substitution2: "'sups' Superscript in Latin lookup 12 subtable" d.sups
Substitution2: "'aalt' Access All Alternates in Latin lookup 0 subtable" d.sups
EndChar

StartChar: e
Encoding: 101 101 32
Width: 600
GlyphClass: 2
Flags: MW
HStem: -12 78<294 367.5> 219 68<167 448 166 535 167 167> 423 78<280.5 359>
VStem: 65 102<219 219 219 324> 448 92<287 330.5>
AnchorPoint: "Anchor-4" 439 0 basechar 0
AnchorPoint: "Anchor-2" 312 -22 basechar 0
AnchorPoint: "Anchor-0" 314 511 basechar 0
LayerCount: 2
Fore
SplineSet
65 244 m 0
 65 404 188 501 315 501 c 0
 458 501 540 406 540 270 c 0
 540 250 537 231 535 219 c 1
 167 219 l 1
 173 123 245 66 343 66 c 0
 396 66 441 82 485 108 c 1
 520 45 l 1
 469 13 405 -12 330 -12 c 0
 183 -12 65 83 65 244 c 0
166 287 m 1
 448 287 l 1
 448 374 401 423 317 423 c 0
 244 423 179 374 166 287 c 1
EndSplineSet
Substitution2: "'sups' Superscript in Latin lookup 12 subtable" e.sups
Substitution2: "'aalt' Access All Alternates in Latin lookup 0 subtable" e.sups
EndChar

StartChar: f
Encoding: 102 102 33
Width: 600
GlyphClass: 2
Flags: MW
HStem: 0 21G<235 333 235 235> 409 80<98 235 333 528> 642 79<407.5 462 367.5 468.5>
VStem: 235 98<0 409 0 409 489 523 523 525>
AnchorPoint: "Anchor-2" 292 -22 basechar 0
AnchorPoint: "Anchor-0" 369 740 basechar 0
LayerCount: 2
Fore
SplineSet
580 693 m 1
 558 620 l 1
 521 636 489 642 448 642 c 0
 367 642 333 599 333 525 c 2
 333 489 l 1
 528 489 l 1
 528 409 l 1
 333 409 l 1
 333 0 l 1
 235 0 l 1
 235 409 l 1
 98 409 l 1
 98 484 l 1
 235 489 l 1
 235 523 l 2
 235 640 298 721 437 721 c 0
 487 721 535 711 580 693 c 1
EndSplineSet
Substitution2: "'sups' Superscript in Latin lookup 12 subtable" f.sups
Substitution2: "'aalt' Access All Alternates in Latin lookup 0 subtable" f.sups
EndChar

StartChar: g
Encoding: 103 103 34
Width: 600
GlyphClass: 2
Flags: MW
HStem: -220 66<252.5 353 252.5 375.5> -11 80<274 280 280 366> -3 21G 155 64<278 318 262 343.5> 414 75<443 565 443 443> 431 70<262 304 237 318>
VStem: 67 84<-99.5 -68.5> 93 95<296 357 292 379.5> 96 81<102 119> 392 90<292 341 268.5 357> 472 95<-87.5 -43>
AnchorPoint: "Anchor-2" 293 -230 basechar 0
AnchorPoint: "Anchor-0" 307 511 basechar 0
LayerCount: 2
Fore
SplineSet
151 -76 m 0xba40
 151 -123 204 -154 301 -154 c 0
 405 -154 472 -111 472 -64 c 0
 472 -22 436 -11 366 -11 c 2
 280 -11 l 2xd920
 250 -11 226 -9 205 -3 c 1
 165 -26 151 -50 151 -76 c 0xba40
67 -88 m 0
 67 -49 95 -11 146 18 c 1
 146 22 l 1
 120 37 96 62 96 103 c 0xb8c0
 96 135 118 170 155 195 c 1
 155 199 l 1
 121 224 93 267 93 325 c 0
 93 434 184 501 290 501 c 0xd540
 318 501 342 497 364 489 c 1
 565 489 l 1
 565 414 l 1
 443 414 l 1
 463 393 482 360 482 322 c 0xd940
 482 215 397 155 290 155 c 0
 266 155 238 160 211 171 c 1
 189 157 177 141 177 120 c 0
 177 84 212 69 274 69 c 2
 378 69 l 2
 505 69 567 35 567 -49 c 0xd8a0
 567 -142 460 -220 291 -220 c 0
 153 -220 67 -174 67 -88 c 0
290 219 m 0xd540
 346 219 392 259 392 325 c 0
 392 389 346 431 290 431 c 0
 234 431 188 389 188 325 c 0
 188 259 234 219 290 219 c 0xd540
EndSplineSet
Substitution2: "'ss03' Style Set 3 in Latin lookup 19 subtable" g.a
Substitution2: "'sups' Superscript in Latin lookup 12 subtable" g.sups
AlternateSubs2: "'aalt' Access All Alternates in Latin lookup 1 subtable" g.sups g.a
EndChar

StartChar: h
Encoding: 104 104 35
Width: 600
GlyphClass: 2
Flags: MW
HStem: 0 21G<88 88 88 187 428 428 428 527> 415 86<323 363> 689 20G<88 187 187 187>
VStem: 88 99<0 337 521 709> 428 99<0 290 290 303 0 332.5>
AnchorPoint: "Anchor-2" 312 -22 basechar 0
AnchorPoint: "Anchor-0" 151 730 basechar 0
LayerCount: 2
Fore
SplineSet
88 0 m 1
 88 709 l 1
 187 709 l 1
 187 521 l 1
 181 411 l 1
 230 461 285 501 361 501 c 0
 475 501 527 430 527 303 c 2
 527 0 l 1
 428 0 l 1
 428 290 l 2
 428 375 400 415 326 415 c 0
 274 415 237 389 187 337 c 1
 187 0 l 1
 88 0 l 1
EndSplineSet
Substitution2: "'sups' Superscript in Latin lookup 12 subtable" h.sups
Substitution2: "'aalt' Access All Alternates in Latin lookup 0 subtable" h.sups
EndChar

StartChar: i
Encoding: 105 105 36
Width: 600
GlyphClass: 2
Flags: MW
HStem: 0 21G<306 405 306 306> 409 80<87 405 87 306> 582 141<326 368>
VStem: 273 148<630.5 673> 306 99<0 409 409 409>
AnchorPoint: "Anchor-4" 387 0 basechar 0
AnchorPoint: "Anchor-2" 355 -22 basechar 0
AnchorPoint: "Anchor-0" 355 702 basechar 0
LayerCount: 2
Fore
SplineSet
87 409 m 1xe8
 87 489 l 1
 405 489 l 1
 405 0 l 1
 306 0 l 1
 306 409 l 1
 87 409 l 1xe8
347 582 m 0xf0
 305 582 273 609 273 652 c 0
 273 694 305 723 347 723 c 0
 389 723 421 694 421 652 c 0
 421 609 389 582 347 582 c 0xf0
EndSplineSet
Substitution2: "'sups' Superscript in Latin lookup 12 subtable" i.sups
Substitution2: "'aalt' Access All Alternates in Latin lookup 0 subtable" i.sups
EndChar

StartChar: j
Encoding: 106 106 37
Width: 600
GlyphClass: 2
Flags: MW
HStem: -212 80<173.5 236 173.5 275.5> 409 80<87 405 87 306> 582 141<326 368>
VStem: 273 148<630.5 673> 306 99<-7 -1 -1 409 409 409>
AnchorPoint: "Anchor-2" 237 -232 basechar 0
AnchorPoint: "Anchor-0" 301 702 basechar 0
LayerCount: 2
Fore
SplineSet
87 409 m 1xc8
 87 489 l 1
 405 489 l 1
 405 -1 l 2
 405 -121 357 -212 194 -212 c 0
 141 -212 91 -198 52 -179 c 1
 83 -106 l 1
 119 -123 156 -132 191 -132 c 0
 281 -132 306 -87 306 -7 c 2
 306 409 l 1
 87 409 l 1xc8
347 582 m 0xf0
 305 582 273 609 273 652 c 0
 273 694 305 723 347 723 c 0
 389 723 421 694 421 652 c 0
 421 609 389 582 347 582 c 0xf0
EndSplineSet
Substitution2: "'sups' Superscript in Latin lookup 12 subtable" j.sups
Substitution2: "'aalt' Access All Alternates in Latin lookup 0 subtable" j.sups
EndChar

StartChar: k
Encoding: 107 107 38
Width: 600
GlyphClass: 2
Flags: MW
HStem: 0 21G<98 98 98 197 468 468 468 577> 469 20G<442 553 553 553> 689 20G<98 197 197 197>
VStem: 98 99<0 130 247 709>
AnchorPoint: "Anchor-2" 332 -22 basechar 0
AnchorPoint: "Anchor-0" 175 730 basechar 0
LayerCount: 2
Fore
SplineSet
98 0 m 1
 98 709 l 1
 197 709 l 1
 197 247 l 1
 201 247 l 1
 442 489 l 1
 553 489 l 1
 362 293 l 1
 577 0 l 1
 468 0 l 1
 301 232 l 1
 197 130 l 1
 197 0 l 1
 98 0 l 1
EndSplineSet
Substitution2: "'sups' Superscript in Latin lookup 12 subtable" k.sups
Substitution2: "'aalt' Access All Alternates in Latin lookup 0 subtable" k.sups
EndChar

StartChar: l
Encoding: 108 108 39
Width: 600
GlyphClass: 2
Flags: MW
HStem: -12 81<400 431> 630 79<76 335 76 236>
VStem: 236 99<171 630 630 630>
AnchorPoint: "Anchor-2" 368 -22 basechar 0
AnchorPoint: "Anchor-0" 280 730 basechar 0
LayerCount: 2
Fore
SplineSet
76 630 m 1
 76 709 l 1
 335 709 l 1
 335 165 l 2
 335 97 373 69 427 69 c 0
 453 69 480 76 515 90 c 1
 539 16 l 1
 493 1 459 -12 403 -12 c 0
 294 -12 236 53 236 171 c 2
 236 630 l 1
 76 630 l 1
EndSplineSet
Substitution2: "'sups' Superscript in Latin lookup 12 subtable" l.sups
Substitution2: "'aalt' Access All Alternates in Latin lookup 0 subtable" l.sups
EndChar

StartChar: m
Encoding: 109 109 40
Width: 600
GlyphClass: 2
Flags: MW
HStem: 0 21G<54 54 54 148 268 268 268 346 466 466 466 560> 415 86<221 236 426 436> 469 20G<54 130 130 130>
VStem: 54 94<0 348 0 489> 268 78<0 340 340 348 0 365> 466 94<0 340 340 348 0 365>
CounterMasks: 1 1c
AnchorPoint: "Anchor-2" 305 -22 basechar 0
AnchorPoint: "Anchor-0" 315 511 basechar 0
LayerCount: 2
Fore
SplineSet
54 0 m 1xdc
 54 489 l 1
 130 489 l 1xbc
 138 425 l 1
 141 425 l 1
 164 469 193 501 249 501 c 0
 297 501 328 473 340 418 c 1
 366 467 399 501 453 501 c 0
 521 501 560 446 560 348 c 2
 560 0 l 1
 466 0 l 1
 466 340 l 2
 466 390 452 415 420 415 c 0
 389 415 368 393 346 348 c 1
 346 0 l 1
 268 0 l 1
 268 340 l 2
 268 390 252 415 220 415 c 0
 190 415 170 393 148 348 c 1
 148 0 l 1
 54 0 l 1xdc
EndSplineSet
Substitution2: "'sups' Superscript in Latin lookup 12 subtable" m.sups
Substitution2: "'aalt' Access All Alternates in Latin lookup 0 subtable" m.sups
EndChar

StartChar: n
Encoding: 110 110 41
Width: 600
GlyphClass: 2
Flags: MW
HStem: 0 21G<88 88 88 187 428 428 428 527> 415 86<323 363> 469 20G<88 169 169 169>
VStem: 88 99<0 337 0 489> 428 99<0 290 290 303 0 332.5>
AnchorPoint: "Anchor-2" 311 -22 basechar 0
AnchorPoint: "Anchor-0" 317 511 basechar 0
LayerCount: 2
Fore
SplineSet
88 0 m 1xd8
 88 489 l 1
 169 489 l 1xb8
 177 410 l 1
 181 410 l 1
 230 461 285 501 361 501 c 0
 475 501 527 430 527 303 c 2
 527 0 l 1
 428 0 l 1
 428 290 l 2
 428 375 400 415 326 415 c 0
 274 415 237 389 187 337 c 1
 187 0 l 1
 88 0 l 1xd8
EndSplineSet
Substitution2: "'sups' Superscript in Latin lookup 12 subtable" n.sups
Substitution2: "'aalt' Access All Alternates in Latin lookup 0 subtable" n.sups
EndChar

StartChar: o
Encoding: 111 111 42
Width: 600
GlyphClass: 2
Flags: MW
HStem: -12 81<256.5 343.5 256.5 364> 419 82<256.5 343.5>
VStem: 56 102<191.5 296.5 191.5 325.5> 442 102<191.5 296.5>
AnchorPoint: "Anchor-4" 350 0 basechar 0
AnchorPoint: "Anchor-3" 413 489 basechar 0
AnchorPoint: "Anchor-2" 300 -22 basechar 0
AnchorPoint: "Anchor-0" 300 511 basechar 0
LayerCount: 2
Fore
SplineSet
56 244 m 0
 56 407 172 501 300 501 c 0
 428 501 544 407 544 244 c 0
 544 82 428 -12 300 -12 c 0
 172 -12 56 82 56 244 c 0
158 244 m 0
 158 139 213 69 300 69 c 0
 387 69 442 139 442 244 c 0
 442 349 387 419 300 419 c 0
 213 419 158 349 158 244 c 0
EndSplineSet
Substitution2: "'sups' Superscript in Latin lookup 12 subtable" o.sups
Substitution2: "'aalt' Access All Alternates in Latin lookup 0 subtable" o.sups
EndChar

StartChar: p
Encoding: 112 112 43
Width: 600
GlyphClass: 2
Flags: MW
HStem: -200 21G<88 187 88 88> -12 82<301.5 344 289.5 381.5> 418 83<314 360> 469 20G<88 169 169 169>
VStem: 88 99<-200 -40 121 352> 442 102<193 302>
AnchorPoint: "Anchor-2" 140 -218 basechar 0
AnchorPoint: "Anchor-0" 316 511 basechar 0
LayerCount: 2
Fore
SplineSet
184 48 m 1xec
 187 -40 l 1
 187 -200 l 1
 88 -200 l 1
 88 489 l 1
 169 489 l 1xdc
 177 429 l 1
 180 429 l 1
 224 471 285 501 343 501 c 0
 472 501 544 403 544 252 c 0
 544 85 439 -12 324 -12 c 0
 279 -12 226 10 184 48 c 1xec
187 121 m 1
 228 84 274 70 305 70 c 0
 383 70 442 135 442 251 c 0
 442 353 404 418 316 418 c 0
 276 418 231 398 187 352 c 1xec
 187 121 l 1
EndSplineSet
Substitution2: "'sups' Superscript in Latin lookup 12 subtable" p.sups
Substitution2: "'aalt' Access All Alternates in Latin lookup 0 subtable" p.sups
EndChar

StartChar: q
Encoding: 113 113 44
Width: 600
GlyphClass: 2
Flags: MW
HStem: -200 21G<413 512 413 413> -12 82<248.5 295> 418 83<259 304 218.5 316.5> 469 20G<434 512 512 512>
VStem: 56 102<189 298 189 323.5> 413 99<-200 -27 -27 -27 136 368 368 368>
AnchorPoint: "Anchor-2" 448 -218 basechar 0
AnchorPoint: "Anchor-0" 302 511 basechar 0
LayerCount: 2
Fore
SplineSet
56 244 m 0xec
 56 403 162 501 275 501 c 0
 333 501 378 479 422 436 c 1
 425 436 l 1xec
 434 489 l 1
 512 489 l 1xdc
 512 -200 l 1
 413 -200 l 1
 413 -27 l 1
 418 58 l 1
 378 18 323 -12 267 -12 c 0
 140 -12 56 82 56 244 c 0xec
158 245 m 0
 158 133 207 70 290 70 c 0
 334 70 375 92 413 136 c 1
 413 368 l 1
 374 405 336 418 297 418 c 0
 221 418 158 351 158 245 c 0
EndSplineSet
Substitution2: "'sups' Superscript in Latin lookup 12 subtable" q.sups
Substitution2: "'aalt' Access All Alternates in Latin lookup 0 subtable" q.sups
EndChar

StartChar: r
Encoding: 114 114 45
Width: 600
GlyphClass: 2
Flags: MW
HStem: 0 21G<138 138 138 237> 412 89<400.5 447.5> 469 20G<138 220 220 220> 481 20
VStem: 138 99<0 278 0 489>
AnchorPoint: "Anchor-2" 226 -22 basechar 0
AnchorPoint: "Anchor-0" 361 511 basechar 0
LayerCount: 2
Fore
SplineSet
138 0 m 1xc8
 138 489 l 1
 220 489 l 1xa8
 228 375 l 1
 231 375 l 1
 281 454 357 501 444 501 c 0xc8
 482 501 510 495 540 481 c 1x98
 518 396 l 1
 485 407 466 412 429 412 c 0
 359 412 291 376 237 278 c 1
 237 0 l 1
 138 0 l 1xc8
EndSplineSet
Substitution2: "'sups' Superscript in Latin lookup 12 subtable" r.sups
Substitution2: "'aalt' Access All Alternates in Latin lookup 0 subtable" r.sups
EndChar

StartChar: s
Encoding: 115 115 46
Width: 600
GlyphClass: 2
Flags: MW
HStem: -12 76<268.5 350.5> 425 76<265.5 336>
VStem: 96 100<344.5 380.5 344.5 399> 430 100<112 149>
AnchorPoint: "Anchor-2" 309 -22 basechar 0
AnchorPoint: "Anchor-1" 313 0 basechar 0
AnchorPoint: "Anchor-0" 306 511 basechar 0
LayerCount: 2
Fore
SplineSet
67 64 m 1
 114 128 l 1
 169 89 228 64 309 64 c 0
 392 64 430 93 430 131 c 0
 430 167 387 191 279 218 c 0
 182 243 96 287 96 358 c 0
 96 440 170 501 306 501 c 0
 383 501 457 470 506 437 c 1
 460 375 l 1
 416 404 365 425 307 425 c 0
 224 425 196 398 196 363 c 0
 196 326 255 304 339 283 c 0
 461 252 530 214 530 137 c 0
 530 55 450 -12 306 -12 c 0
 213 -12 127 23 67 64 c 1
EndSplineSet
Substitution2: "'sups' Superscript in Latin lookup 12 subtable" s.sups
Substitution2: "'aalt' Access All Alternates in Latin lookup 0 subtable" s.sups
EndChar

StartChar: t
Encoding: 116 116 47
Width: 600
GlyphClass: 2
Flags: MW
HStem: -12 80<370.5 419.5> 409 80<64 202 297 528>
VStem: 198 99<193 409>
AnchorPoint: "Anchor-2" 376 -22 basechar 0
AnchorPoint: "Anchor-1" 375 0 basechar 0
AnchorPoint: "Anchor-0" 264 647 basechar 0
LayerCount: 2
Fore
SplineSet
198 193 m 2
 198 409 l 1
 64 409 l 1
 64 484 l 1
 202 489 l 1
 215 624 l 1
 297 624 l 1
 297 489 l 1
 528 489 l 1
 528 409 l 1
 297 409 l 1
 297 193 l 2
 297 109 326 68 415 68 c 0
 458 68 494 76 527 89 c 1
 547 16 l 1
 503 1 447 -12 392 -12 c 0
 247 -12 198 71 198 193 c 2
EndSplineSet
Substitution2: "'sups' Superscript in Latin lookup 12 subtable" t.sups
Substitution2: "'aalt' Access All Alternates in Latin lookup 0 subtable" t.sups
EndChar

StartChar: u
Encoding: 117 117 48
Width: 600
GlyphClass: 2
Flags: MW
HStem: -12 85<237 277> 0 21G<429 510 429 429> 469 20G<73 172 172 172 411 510 510 510>
VStem: 73 99<186 199 199 489> 411 99<154 489 0 489>
AnchorPoint: "Anchor-2" 320 -22 basechar 0
AnchorPoint: "Anchor-0" 295 511 basechar 0
LayerCount: 2
Fore
SplineSet
510 489 m 1xb8
 510 0 l 1
 429 0 l 1x78
 421 81 l 1
 417 81 l 1
 369 26 314 -12 240 -12 c 0
 125 -12 73 58 73 186 c 2
 73 489 l 1
 172 489 l 1
 172 199 l 2
 172 113 200 73 274 73 c 0
 325 73 363 96 411 154 c 1
 411 489 l 1
 510 489 l 1xb8
EndSplineSet
Substitution2: "'sups' Superscript in Latin lookup 12 subtable" u.sups
Substitution2: "'aalt' Access All Alternates in Latin lookup 0 subtable" u.sups
EndChar

StartChar: v
Encoding: 118 118 49
Width: 600
GlyphClass: 2
Flags: MW
HStem: 0 78<246 305 301 305 301 358> 469 20G<46 146 146 146 459 554 554 554>
VStem: 46 508<489 489>
AnchorPoint: "Anchor-2" 301 -22 basechar 0
AnchorPoint: "Anchor-0" 301 511 basechar 0
LayerCount: 2
Fore
SplineSet
246 0 m 1
 46 489 l 1
 146 489 l 1
 249 223 l 2
 268 174 284 126 301 78 c 1
 305 78 l 1
 322 126 337 174 356 223 c 2
 459 489 l 1
 554 489 l 1
 358 0 l 1
 246 0 l 1
EndSplineSet
Substitution2: "'sups' Superscript in Latin lookup 12 subtable" v.sups
Substitution2: "'aalt' Access All Alternates in Latin lookup 0 subtable" v.sups
EndChar

StartChar: w
Encoding: 119 119 50
Width: 600
GlyphClass: 2
Flags: MW
HStem: 0 82<109 184 180 184 180 225 423 427> 367 83<298 302 298 298> 469 20G<7 106 106 106 501 593 593 593>
VStem: 7 586<489 489>
AnchorPoint: "Anchor-2" 300 -22 basechar 0
AnchorPoint: "Anchor-0" 300 511 basechar 0
LayerCount: 2
Fore
SplineSet
109 0 m 1
 7 489 l 1
 106 489 l 1
 158 221 l 2
 167 174 173 129 180 82 c 1
 184 82 l 1
 192 129 201 175 211 221 c 2
 263 450 l 1
 341 450 l 1
 395 221 l 1
 405 174 414 129 423 82 c 1
 427 82 l 1
 436 129 441 174 449 221 c 1
 501 489 l 1
 593 489 l 1
 495 0 l 1
 377 0 l 1
 327 225 l 1
 318 271 311 317 302 367 c 1
 298 367 l 1
 291 327 285 284 274 224 c 1
 225 0 l 1
 109 0 l 1
EndSplineSet
Substitution2: "'sups' Superscript in Latin lookup 12 subtable" w.sups
Substitution2: "'aalt' Access All Alternates in Latin lookup 0 subtable" w.sups
EndChar

StartChar: x
Encoding: 120 120 51
Width: 600
GlyphClass: 2
Flags: MW
HStem: 0 21G<57 57 57 162 434 434 434 542> 469 20G<70 178 178 178 425 530 530 530>
VStem: 57 485<0 0>
AnchorPoint: "Anchor-2" 300 -22 basechar 0
AnchorPoint: "Anchor-0" 300 512 basechar 0
LayerCount: 2
Fore
SplineSet
57 0 m 1
 239 254 l 1
 70 489 l 1
 178 489 l 1
 249 389 l 1
 266 362 286 333 304 306 c 1
 308 306 l 1
 325 333 344 363 360 390 c 1
 425 489 l 1
 530 489 l 1
 360 244 l 1
 542 0 l 1
 434 0 l 1
 356 104 l 1
 337 132 315 164 294 192 c 1
 290 192 l 1
 272 163 253 134 234 104 c 1
 162 0 l 1
 57 0 l 1
EndSplineSet
Substitution2: "'sups' Superscript in Latin lookup 12 subtable" x.sups
Substitution2: "'aalt' Access All Alternates in Latin lookup 0 subtable" x.sups
EndChar

StartChar: y
Encoding: 121 121 52
Width: 600
GlyphClass: 2
Flags: MW
HStem: -205 80<122 161.5 121.5 191> 469 20G<45 144 144 144 462 556 556 556>
VStem: 45 511<489 489>
AnchorPoint: "Anchor-2" 266 -242 basechar 0
AnchorPoint: "Anchor-0" 305 511 basechar 0
LayerCount: 2
Fore
SplineSet
87 -118 m 1
 99 -122 114 -125 129 -125 c 0
 194 -125 233 -85 255 -31 c 1
 268 3 l 1
 45 489 l 1
 144 489 l 1
 254 234 l 2
 272 190 291 139 311 91 c 1
 315 91 l 1
 331 138 349 189 365 234 c 1
 462 489 l 1
 556 489 l 1
 347 -31 l 1
 308 -135 248 -205 134 -205 c 0
 110 -205 85 -201 67 -195 c 1
 87 -118 l 1
EndSplineSet
Substitution2: "'sups' Superscript in Latin lookup 12 subtable" y.sups
Substitution2: "'aalt' Access All Alternates in Latin lookup 0 subtable" y.sups
EndChar

StartChar: z
Encoding: 122 122 53
Width: 600
GlyphClass: 2
Flags: MW
HStem: 0 80<210 534 210 534> 409 80<107 385 107 525>
VStem: 71 463<0 53 53 53>
AnchorPoint: "Anchor-2" 317 -22 basechar 0
AnchorPoint: "Anchor-0" 321 511 basechar 0
LayerCount: 2
Fore
SplineSet
71 0 m 1
 71 53 l 1
 385 409 l 1
 107 409 l 1
 107 489 l 1
 525 489 l 1
 525 436 l 1
 210 80 l 1
 534 80 l 1
 534 0 l 1
 71 0 l 1
EndSplineSet
Substitution2: "'sups' Superscript in Latin lookup 12 subtable" z.sups
Substitution2: "'aalt' Access All Alternates in Latin lookup 0 subtable" z.sups
EndChar

StartChar: braceleft
Encoding: 123 123 515
Width: 600
Flags: MW
HStem: -152 56<372 500 451 500 451 500> 248 60<116 116> 652 56<435 451 451 500>
VStem: 116 129<276 280 276 308 276 308> 250 89
LayerCount: 2
Fore
SplineSet
250 -16 m 0
 250 56 259 104 259 171 c 0xe8
 259 209 232 247 116 248 c 1
 116 308 l 1xf0
 232 309 259 347 259 385 c 0
 259 448 250 503 250 572 c 0
 250 677 309 708 435 708 c 2
 500 708 l 1
 500 652 l 1
 451 652 l 2
 354 652 333 630 333 567 c 0
 333 511 339 452 339 391 c 0
 339 324 315 292 245 280 c 1
 245 276 l 1
 315 264 339 232 339 165 c 0
 339 99 333 48 333 -11 c 0
 333 -74 354 -96 451 -96 c 2
 500 -96 l 1
 500 -152 l 1
 435 -152 l 2
 309 -152 250 -121 250 -16 c 0
EndSplineSet
EndChar

StartChar: bar
Encoding: 124 124 518
Width: 600
Flags: MW
HStem: -250 1000<256 344 256 344>
VStem: 256 88<-250 750 -250 750>
LayerCount: 2
Fore
SplineSet
256 -250 m 1
 256 750 l 1
 344 750 l 1
 344 -250 l 1
 256 -250 l 1
EndSplineSet
EndChar

StartChar: braceright
Encoding: 125 125 516
Width: 600
Flags: MW
HStem: -152 56<100 149 149 165 100 149> 248 60<484 484> 652 56<100 149 100 165>
VStem: 262 88 355 129<276 280 280 280>
LayerCount: 2
Fore
SplineSet
100 -96 m 1
 149 -96 l 2
 246 -96 268 -74 268 -11 c 0
 268 48 262 99 262 165 c 0
 262 232 285 264 355 276 c 1
 355 280 l 1
 285 292 262 324 262 391 c 0
 262 452 268 511 268 567 c 0
 268 630 246 652 149 652 c 2
 100 652 l 1
 100 708 l 1
 165 708 l 2
 292 708 350 677 350 572 c 0
 350 503 341 448 341 385 c 0xf0
 341 347 368 309 484 308 c 1
 484 248 l 1xe8
 368 247 341 209 341 171 c 0
 341 104 350 56 350 -16 c 0
 350 -121 292 -152 165 -152 c 2
 100 -152 l 1
 100 -96 l 1
EndSplineSet
EndChar

StartChar: asciitilde
Encoding: 126 126 673
Width: 600
Flags: MW
HStem: 253 72<361 404.5 361 414> 335 72<196 239>
VStem: 70 460<277 382>
LayerCount: 2
Fore
SplineSet
132 250 m 1
 70 277 l 1xe0
 107 374 159 407 213 407 c 0
 293 407 333 325 389 325 c 0
 420 325 446 344 468 410 c 1
 530 382 l 1xa0
 493 286 441 253 387 253 c 0
 307 253 267 335 211 335 c 0
 181 335 154 315 132 250 c 1
EndSplineSet
EndChar

StartChar: exclamdown
Encoding: 161 161 487
Width: 600
Flags: MW
HStem: 334 167<278 322> 481 20G<278 322>
VStem: 220 160<391.5 442.5> 260.5 79
LayerCount: 2
Fore
SplineSet
333 250 m 1x50
 346 -78 l 1
 349 -181 l 1
 251 -181 l 1
 254 -78 l 1
 267 250 l 1
 333 250 l 1x50
380 417 m 0x60
 380 366 344 334 300 334 c 0xa0
 256 334 220 366 220 417 c 0
 220 468 256 501 300 501 c 0
 344 501 380 468 380 417 c 0x60
EndSplineSet
EndChar

StartChar: cent
Encoding: 162 162 634
Width: 600
Flags: MW
HStem: -35 689<313 372 313 372> 66 81<372 372> 472 82<372 372>
VStem: 109 97<268 349.5 268 378.5> 313 59<-35 66 -35 67 -35 67 152 466 466 466 554 654>
LayerCount: 2
Fore
SplineSet
313 152 m 1x98
 313 466 l 1
 246 447 206 390 206 309 c 0
 206 227 245 170 313 152 c 1x98
468 190 m 1x78
 510 128 l 1
 471 93 422 71 372 66 c 1
 372 -35 l 1
 313 -35 l 1
 313 67 l 1
 191 82 109 167 109 309 c 0
 109 448 197 533 313 551 c 1
 313 654 l 1
 372 654 l 1
 372 554 l 1
 429 550 470 525 501 496 c 1
 454 434 l 1
 429 456 403 469 372 472 c 1
 372 147 l 1
 411 150 443 169 468 190 c 1x78
EndSplineSet
EndChar

StartChar: sterling
Encoding: 163 163 631
Width: 600
Flags: MW
HStem: 0 84<215 536 215 536> 281 65<171 171 171 192 279 279 279 446> 568 81<322.5 388.5>
VStem: 142 94<441 490 437.5 518> 198 86<200.5 241.5 200.5 242>
LayerCount: 2
Fore
SplineSet
215 84 m 1xe8
 536 84 l 1
 536 0 l 1
 75 0 l 1
 75 61 l 1
 154 95 198 159 198 234 c 0
 198 250 196 265 192 281 c 1xe8
 75 281 l 1
 75 342 l 1
 171 346 l 1
 157 384 142 422 142 460 c 0
 142 576 228 649 357 649 c 0
 438 649 494 618 535 572 c 1
 479 517 l 1
 449 547 414 568 363 568 c 0
 282 568 236 524 236 456 c 0
 236 419 249 383 261 346 c 1xf0
 446 346 l 1
 446 281 l 1
 279 281 l 1
 282 266 284 250 284 233 c 0
 284 168 262 129 215 88 c 1
 215 84 l 1xe8
EndSplineSet
EndChar

StartChar: currency
Encoding: 164 164 629
Width: 600
Flags: MW
HStem: 133 72<280.5 319> 454 72<280.5 319.5 280.5 330.5>
VStem: 100 90<306.5 352> 410 90<306.5 352 306.5 366.5>
LayerCount: 2
Fore
SplineSet
104 78 m 1
 52 130 l 1
 135 214 l 1
 113 245 100 284 100 329 c 0
 100 375 113 414 135 444 c 1
 52 529 l 1
 104 581 l 1
 192 492 l 1
 223 514 261 526 300 526 c 0
 339 526 377 514 408 492 c 1
 496 581 l 1
 548 529 l 1
 464 444 l 1
 487 414 500 375 500 329 c 0
 500 284 486 245 464 214 c 1
 548 130 l 1
 496 78 l 1
 408 167 l 1
 377 145 338 133 300 133 c 0
 261 133 223 145 192 167 c 1
 104 78 l 1
190 329 m 0
 190 254 239 205 300 205 c 0
 361 205 410 254 410 329 c 0
 410 404 361 454 300 454 c 0
 239 454 190 404 190 329 c 0
EndSplineSet
EndChar

StartChar: yen
Encoding: 165 165 632
Width: 600
Flags: MW
HStem: 0 209<72 349 72 250> 155 54<72 250 72 250 349 528> 271 53<72 226 72 250 72 226 373 528> 617 20G<47 149 149 149 454 553 553 553>
VStem: 250 99<0 155 0 155 209 271>
LayerCount: 2
Fore
SplineSet
47 637 m 1x78
 149 637 l 1
 233 476 l 2
 255 432 276 388 299 342 c 1
 303 342 l 1
 326 388 347 432 370 476 c 2
 454 637 l 1
 553 637 l 1
 373 324 l 1
 528 324 l 1
 528 271 l 1
 349 271 l 1
 349 209 l 1
 528 209 l 1
 528 155 l 1
 349 155 l 1x78
 349 0 l 1
 250 0 l 1xb8
 250 155 l 1
 72 155 l 1
 72 209 l 1
 250 209 l 1
 250 271 l 1
 72 271 l 1
 72 324 l 1
 226 324 l 1
 47 637 l 1x78
EndSplineSet
EndChar

StartChar: brokenbar
Encoding: 166 166 520
Width: 600
Flags: MW
HStem: -250 1000<256 344 256 344>
VStem: 256 88<-250 211 -250 211 296 750>
LayerCount: 2
Fore
SplineSet
256 296 m 1
 256 750 l 1
 344 750 l 1
 344 296 l 1
 256 296 l 1
256 211 m 1
 344 211 l 1
 344 -250 l 1
 256 -250 l 1
 256 211 l 1
EndSplineSet
EndChar

StartChar: section
Encoding: 167 167 524
Width: 600
Flags: MW
HStem: -69 75<258 309.5 258 335.5> 610 76<281.5 329>
VStem: 86 85<304.5 363.5 304.5 367> 144 90<532.5 569 504 587> 363 90<51 89.5 32 120.5> 429 85<256.5 317.5>
LayerCount: 2
Fore
SplineSet
370 197 m 1xe4
 409 215 429 237 429 276 c 0
 429 359 314 379 231 426 c 1
 193 407 171 382 171 345 c 0
 171 264 287 245 370 197 c 1xe4
468 626 m 1
 421 563 l 1
 388 590 351 610 307 610 c 0
 256 610 234 585 234 553 c 0
 234 455 514 467 514 284 c 0xd4
 514 221 480 183 425 153 c 1
 442 132 453 106 453 73 c 0
 453 -9 387 -69 284 -69 c 0
 211 -69 144 -42 101 5 c 1
 160 58 l 1
 194 25 232 6 284 6 c 0
 335 6 363 34 363 68 c 0
 363 173 86 153 86 339 c 0xe8
 86 395 122 440 175 468 c 1
 156 489 144 515 144 550 c 0xd4
 144 624 199 686 302 686 c 0
 371 686 428 658 468 626 c 1
EndSplineSet
EndChar

StartChar: dieresis
Encoding: 168 168 725
Width: 600
Flags: MW
HStem: 584 122<182.5 218 382 417.5>
VStem: 140 121<627.5 662> 339 121<627.5 662>
LayerCount: 2
Fore
SplineSet
200 584 m 0
 165 584 140 610 140 645 c 0
 140 679 165 706 200 706 c 0
 236 706 261 679 261 645 c 0
 261 610 236 584 200 584 c 0
400 584 m 0
 364 584 339 610 339 645 c 0
 339 679 364 706 400 706 c 0
 435 706 460 679 460 645 c 0
 460 610 435 584 400 584 c 0
EndSplineSet
EndChar

StartChar: copyright
Encoding: 169 169 526
Width: 600
Flags: MW
HStem: -10 46<233.5 366.5 233.5 376.5> 126 63<284 328 284 333.5> 450 63<287 328.5> 608 46<233.5 366.5>
VStem: 27 51<238 410 238 426> 144 77<281.5 360 281.5 381.5> 522 51<238 410>
LayerCount: 2
Fore
SplineSet
27 324 m 0
 27 528 147 654 300 654 c 0
 453 654 573 528 573 324 c 0
 573 119 453 -10 300 -10 c 0
 147 -10 27 119 27 324 c 0
78 324 m 0
 78 152 167 36 300 36 c 0
 433 36 522 152 522 324 c 0
 522 496 433 608 300 608 c 0
 167 608 78 496 78 324 c 0
144 323 m 0
 144 440 223 513 311 513 c 0
 360 513 391 492 418 466 c 1
 378 421 l 1
 358 439 341 450 316 450 c 0
 258 450 221 397 221 323 c 0
 221 240 256 189 312 189 c 0
 344 189 365 203 387 220 c 1
 422 171 l 1
 391 145 358 126 309 126 c 0
 216 126 144 200 144 323 c 0
EndSplineSet
EndChar

StartChar: ordfeminine
Encoding: 170 170 594
Width: 600
Flags: MW
HStem: 252 58<274.5 287.5> 533 59<290.5 328>
VStem: 164 72<337.5 369 337.5 381> 371 74<346 420 420 420>
LayerCount: 2
Fore
SplineSet
164 346 m 0
 164 416 228 452 371 467 c 1
 369 504 352 533 304 533 c 0
 269 533 234 518 205 500 c 1
 176 549 l 1
 213 571 264 592 317 592 c 0
 402 592 445 542 445 453 c 2
 445 260 l 1
 384 260 l 1
 379 296 l 1
 377 296 l 1
 346 272 308 252 267 252 c 0
 209 252 164 290 164 346 c 0
236 352 m 0
 236 323 260 310 289 310 c 0
 318 310 344 323 371 346 c 1
 371 420 l 1
 272 409 236 386 236 352 c 0
EndSplineSet
Substitution2: "'ss02' Style Set 2 in Latin lookup 18 subtable" ordfeminine.a
Substitution2: "'aalt' Access All Alternates in Latin lookup 0 subtable" ordfeminine.a
EndChar

StartChar: guillemotleft
Encoding: 171 171 500
Width: 600
Flags: MW
HStem: 45 414<229 229 229 468>
VStem: 72 75<252 252 252 301 252 301> 311 75<252 252 252 301 252 301>
LayerCount: 2
Fore
SplineSet
229 45 m 1
 72 203 l 1
 72 301 l 1
 229 459 l 1
 274 419 l 1
 147 252 l 1
 274 84 l 1
 229 45 l 1
468 45 m 1
 311 203 l 1
 311 301 l 1
 468 459 l 1
 513 419 l 1
 386 252 l 1
 513 84 l 1
 468 45 l 1
EndSplineSet
EndChar

StartChar: logicalnot
Encoding: 172 172 675
Width: 600
Flags: MW
HStem: 294 72<81 519 81 442>
VStem: 442 77<101 294 294 294>
LayerCount: 2
Fore
SplineSet
81 294 m 1
 81 366 l 1
 519 366 l 1
 519 101 l 1
 442 101 l 1
 442 294 l 1
 81 294 l 1
EndSplineSet
EndChar

StartChar: uni00AD
Encoding: 173 173 503
Width: 600
Flags: MW
HStem: 294 72<81 519 81 519>
VStem: 81 438<294 366 294 366>
LayerCount: 2
Fore
SplineSet
81 294 m 1
 81 366 l 1
 519 366 l 1
 519 294 l 1
 81 294 l 1
EndSplineSet
Substitution2: "'ss01' Style Set 1 in Latin lookup 17 subtable" uni00AD.a
Substitution2: "'aalt' Access All Alternates in Latin lookup 0 subtable" uni00AD.a
EndChar

StartChar: registered
Encoding: 174 174 528
Width: 600
Flags: MW
HStem: 317 40<258 342 258 352> 484 35<270 294 294 307 270 308 270 294> 582 36<270 296 270 270> 674 40<258 342>
VStem: 109 43<468 562 468 573.5> 225 45<417 484 519 582> 335 48<541 559.5> 447 43<468 562>
LayerCount: 2
Fore
SplineSet
300 317 m 0
 195 317 109 398 109 515 c 0
 109 632 195 714 300 714 c 0
 404 714 490 632 490 515 c 0
 490 398 404 317 300 317 c 0
300 357 m 0
 384 357 447 421 447 515 c 0
 447 609 384 674 300 674 c 0
 216 674 152 609 152 515 c 0
 152 421 216 357 300 357 c 0
225 417 m 1
 225 618 l 1
 304 618 l 2
 347 618 383 600 383 553 c 0
 383 529 369 507 346 498 c 1
 391 417 l 1
 342 417 l 1
 308 484 l 1
 270 484 l 1
 270 417 l 1
 225 417 l 1
270 519 m 1
 294 519 l 2
 320 519 335 530 335 550 c 0
 335 569 324 582 296 582 c 2
 270 582 l 1
 270 519 l 1
EndSplineSet
EndChar

StartChar: degree
Encoding: 176 176 628
Width: 600
Flags: MW
HStem: 421 52<278.5 322 278.5 335.5> 633 52<278.5 322>
VStem: 170 57<529 576 529 592> 374 57<529 576>
LayerCount: 2
Fore
SplineSet
300 421 m 0
 230 421 170 474 170 552 c 0
 170 632 230 685 300 685 c 0
 371 685 431 632 431 552 c 0
 431 474 371 421 300 421 c 0
300 473 m 0
 344 473 374 506 374 552 c 0
 374 600 344 633 300 633 c 0
 257 633 227 600 227 552 c 0
 227 506 257 473 300 473 c 0
EndSplineSet
EndChar

StartChar: plusminus
Encoding: 177 177 670
Width: 600
Flags: MW
HStem: 0 73<81 519 81 519> 301 73<81 262 81 262 338 519>
VStem: 262 76<135 301 135 301 374 559>
LayerCount: 2
Fore
SplineSet
262 135 m 1
 262 301 l 1
 81 301 l 1
 81 374 l 1
 262 374 l 1
 262 559 l 1
 338 559 l 1
 338 374 l 1
 519 374 l 1
 519 301 l 1
 338 301 l 1
 338 135 l 1
 262 135 l 1
81 0 m 1
 81 73 l 1
 519 73 l 1
 519 0 l 1
 81 0 l 1
EndSplineSet
EndChar

StartChar: two.sups
Encoding: 178 178 540
Width: 600
Flags: MW
HStem: 440 62<300 425 300 425> 698 61<269.5 300>
VStem: 181 244<440 481 481 481> 338 73<628 660.5>
LayerCount: 2
Fore
SplineSet
181 440 m 1xe0
 181 481 l 1
 279 554 338 602 338 644 c 0
 338 677 318 698 282 698 c 0
 257 698 233 682 215 658 c 1
 169 697 l 1
 201 733 242 759 292 759 c 0
 365 759 411 720 411 654 c 0xd0
 411 602 361 556 300 502 c 1
 425 502 l 1
 425 440 l 1
 181 440 l 1xe0
EndSplineSet
EndChar

StartChar: three.sups
Encoding: 179 179 541
Width: 600
Flags: MW
HStem: 428 57<277.5 309.5 276 334.5> 575 42<260 285.5 260 290.5> 702 57<276 302.5>
VStem: 336 73<655 675> 350 74<513 543 493.5 543.5>
LayerCount: 2
Fore
SplineSet
170 479 m 1xe8
 204 525 l 1
 225 503 259 485 293 485 c 0
 326 485 350 498 350 528 c 0
 350 559 321 575 260 575 c 1xe8
 260 617 l 1
 311 617 336 634 336 663 c 0
 336 687 320 702 285 702 c 0
 262 702 234 689 214 670 c 1
 180 715 l 1
 207 741 252 759 300 759 c 0
 363 759 409 726 409 674 c 0xf0
 409 636 393 614 354 600 c 1
 398 589 424 563 424 523 c 0
 424 464 369 428 300 428 c 0
 255 428 207 445 170 479 c 1xe8
EndSplineSet
EndChar

StartChar: acute
Encoding: 180 180 716
Width: 600
Flags: MW
HStem: 573 153<231 426 231 426>
VStem: 231 195<573 726>
LayerCount: 2
Fore
SplineSet
426 726 m 1
 305 573 l 1
 231 573 l 1
 321 726 l 1
 426 726 l 1
EndSplineSet
EndChar

StartChar: uni00B5
Encoding: 181 181 678
Width: 600
Flags: MW
HStem: -12 81<483.5 536.5> -9 82<248 296 237.5 298>
VStem: 73 99<156.5 199 199 489> 411 94<92.5 489>
LayerCount: 2
Fore
SplineSet
73 -190 m 1x70
 73 489 l 1
 172 489 l 1
 172 199 l 2
 172 114 203 73 272 73 c 0x70
 320 73 364 91 411 175 c 1
 411 489 l 1
 511 489 l 1
 508 361 505 214 505 106 c 0
 505 79 517 69 534 69 c 0
 539 69 543 69 552 71 c 1
 565 -3 l 1
 552 -8 535 -12 511 -12 c 0xb0
 456 -12 431 22 421 95 c 1
 418 95 l 1
 380 25 327 -9 269 -9 c 0
 227 -9 190 -1 166 37 c 1
 167 -59 168 -111 173 -190 c 1
 73 -190 l 1x70
EndSplineSet
EndChar

StartChar: paragraph
Encoding: 182 182 525
Width: 600
Flags: MW
HStem: 635 20G<302 344 344 344 398 496 496 496>
VStem: 66 278<363.5 519> 398 98<-80 655 -80 655>
LayerCount: 2
Fore
SplineSet
398 -80 m 1
 398 655 l 1
 496 655 l 1
 496 -80 l 1
 398 -80 l 1
344 655 m 1
 344 219 l 1
 310 219 l 2
 172 219 66 288 66 439 c 0
 66 599 169 655 302 655 c 2
 344 655 l 1
EndSplineSet
EndChar

StartChar: periodcentered
Encoding: 183 183 508
Width: 600
Flags: MW
HStem: 256 186<274.5 325.5>
VStem: 210 180<321.5 376>
LayerCount: 2
Fore
SplineSet
210 349 m 0
 210 403 249 442 300 442 c 0
 351 442 390 403 390 349 c 0
 390 294 351 256 300 256 c 0
 249 256 210 294 210 349 c 0
EndSplineSet
EndChar

StartChar: cedilla
Encoding: 184 184 731
Width: 600
Flags: MW
HStem: -215 46<216 225> -48 51<319 319>
VStem: 303 75<-135.5 -110.5>
LayerCount: 2
Fore
SplineSet
241 -75 m 1
 281 3 l 1
 343 3 l 1
 319 -48 l 1
 352 -59 378 -79 378 -120 c 0
 378 -181 305 -209 225 -215 c 1
 216 -169 l 1
 267 -163 303 -149 303 -122 c 0
 303 -99 283 -86 241 -75 c 1
EndSplineSet
EndChar

StartChar: one.sups
Encoding: 185 185 539
Width: 600
Flags: MW
HStem: 666 81<205 361>
VStem: 286 75<440 666 666 666>
LayerCount: 2
Fore
SplineSet
286 440 m 1
 286 666 l 1
 205 666 l 1
 205 713 l 1
 251 720 273 729 302 747 c 1
 361 747 l 1
 361 440 l 1
 286 440 l 1
EndSplineSet
EndChar

StartChar: guillemotright
Encoding: 187 187 501
Width: 600
Flags: MW
HStem: 45 414<132 132 132 371>
VStem: 214 75<252 252> 453 75<252 252>
LayerCount: 2
Fore
SplineSet
87 84 m 1
 214 252 l 1
 87 419 l 1
 132 459 l 1
 289 301 l 1
 289 203 l 1
 132 45 l 1
 87 84 l 1
326 84 m 1
 453 252 l 1
 326 419 l 1
 371 459 l 1
 528 301 l 1
 528 203 l 1
 371 45 l 1
 326 84 l 1
EndSplineSet
EndChar

StartChar: onequarter
Encoding: 188 188 651
Width: 600
Flags: MW
HStem: 0 119<374 529 374 463> 70 49<374 463 374 463 529 580> 252 55<464 468 464 464> 556 48<73 154 73 73> 556 81<73 229>
VStem: 154 75<330 556 556 556> 463 66<0 70 0 70 119 166 166 166>
LayerCount: 2
Fore
SplineSet
575 572 m 1xae
 391 387 l 1
 353 422 l 1
 519 624 l 1
 575 572 l 1xae
154 330 m 1
 154 556 l 1
 73 556 l 1xae
 73 604 l 1xb6
 118 610 141 620 170 637 c 1
 229 637 l 1
 229 330 l 1
 154 330 l 1
25 83 m 1
 209 268 l 1
 247 233 l 1
 81 31 l 1
 25 83 l 1
374 119 m 1
 463 119 l 1
 463 166 l 1
 468 252 l 1
 464 252 l 1
 422 189 l 1
 374 119 l 1
580 119 m 1
 580 70 l 1
 529 70 l 1x6e
 529 0 l 1
 463 0 l 1xae
 463 70 l 1
 301 70 l 1
 301 106 l 1x6e
 442 307 l 1
 529 307 l 1
 529 119 l 1
 580 119 l 1
EndSplineSet
EndChar

StartChar: onehalf
Encoding: 189 189 652
Width: 600
Flags: MW
HStem: 0 62<433 557 433 557> 258 61<401.5 432> 556 48<73 154 73 73> 556 81<73 229>
VStem: 154 75<330 556 556 556> 313 244<0 41 41 41> 471 72<188 220.5>
LayerCount: 2
Fore
SplineSet
154 330 m 1xda
 154 556 l 1
 73 556 l 1xdc
 73 604 l 1xea
 118 610 141 620 170 637 c 1
 229 637 l 1
 229 330 l 1
 154 330 l 1xda
81 31 m 1
 25 83 l 1
 209 268 l 1
 247 233 l 1
 81 31 l 1
519 624 m 1
 575 572 l 1
 391 387 l 1
 353 422 l 1
 519 624 l 1
313 0 m 1
 313 41 l 1
 411 114 471 162 471 204 c 0
 471 237 450 258 414 258 c 0
 389 258 365 242 347 218 c 1
 302 257 l 1
 333 293 374 319 424 319 c 0
 498 319 543 280 543 214 c 0xda
 543 162 493 116 433 62 c 1
 557 62 l 1
 557 0 l 1
 313 0 l 1
EndSplineSet
EndChar

StartChar: threequarters
Encoding: 190 190 653
Width: 600
Flags: MW
HStem: 0 119<374 530 374 463> 70 49<374 463 374 463 530 580> 252 55<465 468 465 465> 318 57<144.5 176.5 143.5 201.5> 465 42<127 152.5 127 157.5> 592 57<143.5 170>
VStem: 203 74<545 565> 217 74<403.5 433 383.5 433.5> 463 67<0 70 0 70 119 166 166 166>
LayerCount: 2
Fore
SplineSet
595 572 m 1x9e80
 411 387 l 1
 374 422 l 1
 540 624 l 1
 595 572 l 1x9e80
46 83 m 1
 230 268 l 1
 267 233 l 1
 101 31 l 1
 46 83 l 1
81 561 m 1
 48 605 l 1
 75 631 119 649 168 649 c 0
 230 649 277 617 277 564 c 0xbe80
 277 526 261 504 221 490 c 1
 266 479 291 453 291 413 c 0
 291 354 236 318 167 318 c 0
 122 318 74 335 38 369 c 1
 72 415 l 1
 92 394 127 375 160 375 c 0
 193 375 217 389 217 418 c 0
 217 449 188 465 127 465 c 1x9d80
 127 507 l 1
 178 507 203 524 203 553 c 0
 203 577 187 592 153 592 c 0
 129 592 101 579 81 561 c 1
374 119 m 1
 463 119 l 1
 463 166 l 1
 468 252 l 1
 465 252 l 1
 423 189 l 1
 374 119 l 1
530 307 m 1
 530 119 l 1
 580 119 l 1x9e80
 580 70 l 1
 530 70 l 1x5e80
 530 0 l 1
 463 0 l 1x9e80
 463 70 l 1
 302 70 l 1
 302 106 l 1x5e80
 443 307 l 1
 530 307 l 1
EndSplineSet
EndChar

StartChar: questiondown
Encoding: 191 191 489
Width: 600
Flags: MW
HStem: -193 81<282.5 339 282.5 347> 334 167<293 337> 481 20G<293 337>
VStem: 118 96<-49.5 23.5 -49.5 29.5> 235 160<391.5 442.5>
LayerCount: 2
Fore
SplineSet
365 250 m 1xb8
 388 110 214 71 214 -24 c 0
 214 -75 250 -112 315 -112 c 0
 363 -112 403 -91 438 -58 c 1
 495 -110 l 1
 449 -158 386 -193 308 -193 c 0
 196 -193 118 -134 118 -36 c 0
 118 95 294 124 278 250 c 1
 365 250 l 1xb8
395 417 m 0xa8
 395 366 359 334 315 334 c 0xc8
 271 334 235 366 235 417 c 0
 235 468 271 501 315 501 c 0
 359 501 395 468 395 417 c 0xa8
EndSplineSet
EndChar

StartChar: Agrave
Encoding: 192 192 54
Width: 600
Flags: MW
HStem: 0 21G<26 128 26 26 468 574 468 468> 188 79<208 389 208 412 184 389> 575 80<296 300 296 296> 705 114<161 357 161 276>
VStem: 26 548<0 0>
LayerCount: 2
Fore
SplineSet
357 705 m 1
 276 705 l 1
 161 819 l 1
 271 819 l 1
 357 705 l 1
208 267 m 1
 389 267 l 1
 362 357 l 2
 341 428 320 502 300 575 c 1
 296 575 l 1
 277 501 256 428 235 357 c 2
 208 267 l 1
468 0 m 1
 412 188 l 1
 184 188 l 1
 128 0 l 1
 26 0 l 1
 242 655 l 1
 358 655 l 1
 574 0 l 1
 468 0 l 1
EndSplineSet
EndChar

StartChar: Atilde
Encoding: 195 195 57
Width: 600
Flags: MW
HStem: 0 21G<26 128 26 26 468 574 468 468> 188 79<208 389 208 412 184 389> 575 80<296 300 296 296> 709 65<340.5 367.5 340.5 385.5> 759 65<232.5 259.5>
VStem: 149 53<709 709> 398 53<824 824>
LayerCount: 2
Fore
SplineSet
398 824 m 1xee
 451 824 l 1xee
 444 755 410 709 361 709 c 0xf6
 308 709 277 759 242 759 c 0
 223 759 208 742 202 709 c 1
 149 709 l 1
 156 778 190 824 239 824 c 0xee
 292 824 323 774 358 774 c 0xf6
 377 774 392 791 398 824 c 1xee
208 267 m 1
 389 267 l 1
 362 357 l 2
 341 428 320 502 300 575 c 1
 296 575 l 1
 277 501 256 428 235 357 c 2
 208 267 l 1
468 0 m 1
 412 188 l 1
 184 188 l 1
 128 0 l 1
 26 0 l 1
 242 655 l 1
 358 655 l 1
 574 0 l 1
 468 0 l 1
EndSplineSet
EndChar

StartChar: Adieresis
Encoding: 196 196 58
Width: 600
Flags: MW
HStem: 0 21G<26 128 26 26 468 574 468 468> 188 79<208 389 208 412 184 389> 575 80<296 300 296 296> 711 109<194.5 226 374 405.5>
VStem: 156 109<750 781.5> 335 109<750 781.5>
LayerCount: 2
Fore
SplineSet
390 711 m 0
 358 711 335 734 335 766 c 0
 335 797 358 820 390 820 c 0
 421 820 444 797 444 766 c 0
 444 734 421 711 390 711 c 0
210 711 m 0
 179 711 156 734 156 766 c 0
 156 797 179 820 210 820 c 0
 242 820 265 797 265 766 c 0
 265 734 242 711 210 711 c 0
208 267 m 1
 389 267 l 1
 362 357 l 2
 341 428 320 502 300 575 c 1
 296 575 l 1
 277 501 256 428 235 357 c 2
 208 267 l 1
468 0 m 1
 412 188 l 1
 184 188 l 1
 128 0 l 1
 26 0 l 1
 242 655 l 1
 358 655 l 1
 574 0 l 1
 468 0 l 1
EndSplineSet
EndChar

StartChar: Aring
Encoding: 197 197 61
Width: 600
Flags: MW
HStem: 0 21G<26 128 26 26 468 574 468 468> 188 79<208 389 208 412 184 389> 575 80<296 300 296 296> 698 41<287 312.5 287 328.5> 838 41<287 312.5>
VStem: 202 52<773.5 804 773.5 816.5> 345 53<773.5 804>
LayerCount: 2
Fore
SplineSet
300 838 m 0
 274 838 254 819 254 789 c 0
 254 758 274 739 300 739 c 0
 325 739 345 758 345 789 c 0
 345 819 325 838 300 838 c 0
300 698 m 0
 242 698 202 734 202 789 c 0
 202 844 242 879 300 879 c 0
 357 879 398 844 398 789 c 0
 398 734 357 698 300 698 c 0
208 267 m 1
 389 267 l 1
 362 357 l 2
 341 428 320 502 300 575 c 1
 296 575 l 1
 277 501 256 428 235 357 c 2
 208 267 l 1
468 0 m 1
 412 188 l 1
 184 188 l 1
 128 0 l 1
 26 0 l 1
 242 655 l 1
 358 655 l 1
 574 0 l 1
 468 0 l 1
EndSplineSet
EndChar

StartChar: AE
Encoding: 198 198 76
Width: 600
GlyphClass: 2
Flags: MW
HStem: 0 84<406 592 406 592> 180 79<196 316 196 316 167 316> 301 84<406 545 406 545> 571 84<406 583 406 406>
VStem: 316 90<84 84 84 180 180 180 259 301 385 571>
AnchorPoint: "Anchor-0" 441 694 basechar 0
LayerCount: 2
Fore
SplineSet
196 259 m 1
 316 259 l 1
 316 578 l 1
 312 578 l 1
 288 507 262 439 237 372 c 2
 196 259 l 1
406 84 m 1
 592 84 l 1
 592 0 l 1
 316 0 l 1
 316 180 l 1
 167 180 l 1
 102 0 l 1
 -2 0 l 1
 246 655 l 1
 583 655 l 1
 583 571 l 1
 406 571 l 1
 406 385 l 1
 545 385 l 1
 545 301 l 1
 406 301 l 1
 406 84 l 1
EndSplineSet
EndChar

StartChar: Ccedilla
Encoding: 199 199 78
Width: 600
Flags: MW
HStem: -215 46<253 262> -9 21G<312 312> 580 87<302.5 387.5>
VStem: 63 103<250.5 406.5 250.5 432.5> 341 74<-135.5 -110.5>
LayerCount: 2
Fore
SplineSet
502 144 m 1
 558 83 l 1
 508 26 448 -7 373 -12 c 1
 356 -48 l 1
 389 -59 415 -79 415 -120 c 0
 415 -181 343 -209 262 -215 c 1
 253 -169 l 1
 305 -163 341 -149 341 -122 c 0
 341 -99 320 -86 278 -75 c 1
 312 -9 l 1
 168 12 63 131 63 326 c 0
 63 539 189 667 361 667 c 0
 441 667 504 628 543 586 c 1
 487 523 l 1
 454 558 414 580 361 580 c 0
 244 580 166 484 166 329 c 0
 166 172 244 75 363 75 c 0
 419 75 462 100 502 144 c 1
EndSplineSet
EndChar

StartChar: Eacute
Encoding: 201 201 88
Width: 600
Flags: MW
HStem: 0 84<210 531 210 531> 300 84<210 473 210 473> 571 84<210 521 210 210> 705 114<271 467 271 467>
VStem: 110 100<84 300 384 571>
LayerCount: 2
Fore
SplineSet
110 0 m 1
 110 655 l 1
 521 655 l 1
 521 571 l 1
 210 571 l 1
 210 384 l 1
 473 384 l 1
 473 300 l 1
 210 300 l 1
 210 84 l 1
 531 84 l 1
 531 0 l 1
 110 0 l 1
467 819 m 1
 353 705 l 1
 271 705 l 1
 357 819 l 1
 467 819 l 1
EndSplineSet
EndChar

StartChar: Ecircumflex
Encoding: 202 202 89
Width: 600
Flags: MW
HStem: 0 84<210 531 210 531> 300 84<210 473 210 473> 571 84<210 521 210 210> 705 114<184 376 184 376 280 394 280 472>
VStem: 110 100<84 300 384 571>
LayerCount: 2
Fore
SplineSet
110 0 m 1
 110 655 l 1
 521 655 l 1
 521 571 l 1
 210 571 l 1
 210 384 l 1
 473 384 l 1
 473 300 l 1
 210 300 l 1
 210 84 l 1
 531 84 l 1
 531 0 l 1
 110 0 l 1
263 705 m 1
 184 705 l 1
 280 819 l 1
 376 819 l 1
 472 705 l 1
 394 705 l 1
 330 771 l 1
 326 771 l 1
 263 705 l 1
EndSplineSet
MultipleSubs2: "Multiple Substitution lookup 2 subtable" E uni0302
EndChar

StartChar: Edieresis
Encoding: 203 203 91
Width: 600
Flags: MW
HStem: 0 84<210 531 210 531> 300 84<210 473 210 473> 571 84<210 521 210 210> 711 109<223 254.5 402 433.5>
VStem: 110 100<84 300 384 571> 184 109<750 781.5> 364 108<750 781.5>
LayerCount: 2
Fore
SplineSet
110 0 m 1xe8
 110 655 l 1
 521 655 l 1
 521 571 l 1
 210 571 l 1
 210 384 l 1
 473 384 l 1
 473 300 l 1
 210 300 l 1
 210 84 l 1
 531 84 l 1
 531 0 l 1
 110 0 l 1xe8
239 711 m 0xf6
 207 711 184 734 184 766 c 0
 184 797 207 820 239 820 c 0
 270 820 293 797 293 766 c 0
 293 734 270 711 239 711 c 0xf6
418 711 m 0
 386 711 364 734 364 766 c 0
 364 797 386 820 418 820 c 0
 449 820 472 797 472 766 c 0
 472 734 449 711 418 711 c 0
EndSplineSet
EndChar

StartChar: Igrave
Encoding: 204 204 115
Width: 600
Flags: MW
HStem: 0 84<90 250 90 250 350 510> 571 84<90 250 90 510 350 350 350 510> 705 114<161 276 161 357>
VStem: 250 100<84 571 84 571>
LayerCount: 2
Fore
SplineSet
90 0 m 1
 90 84 l 1
 250 84 l 1
 250 571 l 1
 90 571 l 1
 90 655 l 1
 510 655 l 1
 510 571 l 1
 350 571 l 1
 350 84 l 1
 510 84 l 1
 510 0 l 1
 90 0 l 1
276 705 m 1
 161 819 l 1
 271 819 l 1
 357 705 l 1
 276 705 l 1
EndSplineSet
EndChar

StartChar: Iacute
Encoding: 205 205 116
Width: 600
Flags: MW
HStem: 0 84<90 250 90 250 350 510> 571 84<90 250 90 510 350 350 350 510> 705 114<243 439 243 439>
VStem: 250 100<84 571 84 571>
LayerCount: 2
Fore
SplineSet
90 0 m 1
 90 84 l 1
 250 84 l 1
 250 571 l 1
 90 571 l 1
 90 655 l 1
 510 655 l 1
 510 571 l 1
 350 571 l 1
 350 84 l 1
 510 84 l 1
 510 0 l 1
 90 0 l 1
439 819 m 1
 324 705 l 1
 243 705 l 1
 329 819 l 1
 439 819 l 1
EndSplineSet
EndChar

StartChar: Icircumflex
Encoding: 206 206 117
Width: 600
Flags: MW
HStem: 0 84<90 250 90 250 350 510> 571 84<90 250 90 510 350 350 350 510> 705 114<156 348 156 348 252 365 252 444>
VStem: 250 100<84 571 84 571>
LayerCount: 2
Fore
SplineSet
90 0 m 1
 90 84 l 1
 250 84 l 1
 250 571 l 1
 90 571 l 1
 90 655 l 1
 510 655 l 1
 510 571 l 1
 350 571 l 1
 350 84 l 1
 510 84 l 1
 510 0 l 1
 90 0 l 1
235 705 m 1
 156 705 l 1
 252 819 l 1
 348 819 l 1
 444 705 l 1
 365 705 l 1
 302 771 l 1
 298 771 l 1
 235 705 l 1
EndSplineSet
EndChar

StartChar: Idieresis
Encoding: 207 207 119
Width: 600
Flags: MW
HStem: 0 84<90 250 90 250 350 510> 571 84<90 250 90 510 350 350 350 510> 711 109<194.5 226 374 405.5>
VStem: 156 109<750 781.5> 250 100<84 571 84 571> 335 109<750 781.5>
LayerCount: 2
Fore
SplineSet
90 0 m 1xc8
 90 84 l 1
 250 84 l 1
 250 571 l 1
 90 571 l 1
 90 655 l 1
 510 655 l 1
 510 571 l 1
 350 571 l 1
 350 84 l 1
 510 84 l 1
 510 0 l 1
 90 0 l 1xc8
210 711 m 0xf4
 179 711 156 734 156 766 c 0
 156 797 179 820 210 820 c 0
 242 820 265 797 265 766 c 0
 265 734 242 711 210 711 c 0xf4
390 711 m 0
 358 711 335 734 335 766 c 0
 335 797 358 820 390 820 c 0
 421 820 444 797 444 766 c 0
 444 734 421 711 390 711 c 0
EndSplineSet
EndChar

StartChar: Eth
Encoding: 208 208 228
Width: 600
Flags: MW
HStem: 0 81<186 244 244 256> 316 53<12 86 186 320> 574 81<186 244 186 186>
VStem: 86 100<81 81 81 316 369 574> 454 103<248.5 411.5>
LayerCount: 2
Fore
SplineSet
86 0 m 1
 86 316 l 1
 12 316 l 1
 12 364 l 1
 86 369 l 1
 86 655 l 1
 251 655 l 2
 445 655 557 543 557 330 c 0
 557 118 445 0 256 0 c 2
 86 0 l 1
186 81 m 1
 244 81 l 2
 381 81 454 167 454 330 c 0
 454 493 381 574 244 574 c 2
 186 574 l 1
 186 369 l 1
 320 369 l 1
 320 316 l 1
 186 316 l 1
 186 81 l 1
EndSplineSet
EndChar

StartChar: Ntilde
Encoding: 209 209 140
Width: 600
Flags: MW
HStem: 0 21G<79 79 79 174 420 420 420 521> 0 128<420 440 437 440 437 521> 527 128<160 163 160 160> 635 20G<79 180 180 180 426 521 521 521> 709 65<346.5 373.5 346.5 391.5> 759 65<238.5 265.5>
VStem: 79 95<0 314 0 655> 155 53<709 709> 404 53<824 824> 426 95<343 655 0 655>
LayerCount: 2
Fore
SplineSet
79 0 m 1x9640
 79 655 l 1
 180 655 l 1
 374 264 l 1
 437 128 l 1
 440 128 l 1x5640
 436 194 426 273 426 343 c 2
 426 655 l 1
 521 655 l 1
 521 0 l 1
 420 0 l 1
 226 391 l 1
 163 527 l 1
 160 527 l 1xa640
 164 459 174 385 174 314 c 2
 174 0 l 1
 79 0 l 1x9640
367 709 m 0x9a80
 314 709 283 759 248 759 c 0
 229 759 214 742 208 709 c 1
 155 709 l 1
 162 778 196 824 245 824 c 0x9540
 298 824 329 774 364 774 c 0x9a80
 383 774 398 791 404 824 c 1
 457 824 l 1x9680
 450 755 416 709 367 709 c 0x9a80
EndSplineSet
EndChar

StartChar: Ograve
Encoding: 210 210 145
Width: 600
Flags: MW
HStem: -12 87<254.5 345.5 254.5 375> 580 87<254.5 345.5> 705 114<161 276 161 357>
VStem: 45 103<252.5 407.5 252.5 435.5> 452 103<252.5 407.5>
LayerCount: 2
Fore
SplineSet
300 -12 m 0
 150 -12 45 119 45 330 c 0
 45 541 150 667 300 667 c 0
 450 667 555 540 555 330 c 0
 555 119 450 -12 300 -12 c 0
300 75 m 0
 391 75 452 175 452 330 c 0
 452 485 391 580 300 580 c 0
 209 580 148 485 148 330 c 0
 148 175 209 75 300 75 c 0
276 705 m 1
 161 819 l 1
 271 819 l 1
 357 705 l 1
 276 705 l 1
EndSplineSet
EndChar

StartChar: Otilde
Encoding: 213 213 148
Width: 600
Flags: MW
HStem: -12 87<254.5 345.5 254.5 375> 580 87<254.5 345.5> 709 65<340.5 367.5 340.5 385.5> 759 65<232.5 259.5>
VStem: 45 103<252.5 407.5 252.5 435.5> 149 53<709 709> 398 53<824 824> 452 103<252.5 407.5>
LayerCount: 2
Fore
SplineSet
300 -12 m 0xd9
 150 -12 45 119 45 330 c 0
 45 541 150 667 300 667 c 0
 450 667 555 540 555 330 c 0
 555 119 450 -12 300 -12 c 0xd9
300 75 m 0
 391 75 452 175 452 330 c 0
 452 485 391 580 300 580 c 0
 209 580 148 485 148 330 c 0
 148 175 209 75 300 75 c 0
361 709 m 0xea
 308 709 277 759 242 759 c 0
 223 759 208 742 202 709 c 1
 149 709 l 1
 156 778 190 824 239 824 c 0xd5
 292 824 323 774 358 774 c 0xea
 377 774 392 791 398 824 c 1
 451 824 l 1xda
 444 755 410 709 361 709 c 0xea
EndSplineSet
EndChar

StartChar: Odieresis
Encoding: 214 214 149
Width: 600
Flags: MW
HStem: -12 87<254.5 345.5 254.5 375> 580 87<254.5 345.5> 711 109<194.5 226 374 405.5>
VStem: 45 103<252.5 407.5 252.5 435.5> 156 109<750 781.5> 335 109<750 781.5> 452 103<252.5 407.5>
LayerCount: 2
Fore
SplineSet
300 -12 m 0
 150 -12 45 119 45 330 c 0
 45 541 150 667 300 667 c 0
 450 667 555 540 555 330 c 0
 555 119 450 -12 300 -12 c 0
300 75 m 0
 391 75 452 175 452 330 c 0
 452 485 391 580 300 580 c 0
 209 580 148 485 148 330 c 0
 148 175 209 75 300 75 c 0
210 711 m 0xfe
 179 711 156 734 156 766 c 0
 156 797 179 820 210 820 c 0
 242 820 265 797 265 766 c 0
 265 734 242 711 210 711 c 0xfe
390 711 m 0
 358 711 335 734 335 766 c 0
 335 797 358 820 390 820 c 0
 421 820 444 797 444 766 c 0
 444 734 421 711 390 711 c 0
EndSplineSet
EndChar

StartChar: multiply
Encoding: 215 215 662
Width: 600
Flags: MW
HStem: 122 415<149 149 149 451>
VStem: 97 406<175 175 175 484>
LayerCount: 2
Fore
SplineSet
149 122 m 1
 97 175 l 1
 248 330 l 1
 97 484 l 1
 149 537 l 1
 300 381 l 1
 451 537 l 1
 503 484 l 1
 352 330 l 1
 503 175 l 1
 451 122 l 1
 300 278 l 1
 149 122 l 1
EndSplineSet
EndChar

StartChar: Oslash
Encoding: 216 216 161
Width: 600
GlyphClass: 2
Flags: MW
HStem: -12 87<281 345.5 281 375> 580 87<254.5 319.5>
VStem: 45 103<303.5 407.5 303.5 435.5> 452 103<252.5 355.5>
AnchorPoint: "Anchor-0" 302 677 basechar 0
LayerCount: 2
Fore
SplineSet
433 462 m 1
 204 124 l 1
 229 92 262 75 300 75 c 0
 391 75 452 175 452 330 c 0
 452 381 445 425 433 462 c 1
168 191 m 1
 399 529 l 1
 373 562 339 580 300 580 c 0
 209 580 148 485 148 330 c 0
 148 277 155 230 168 191 c 1
562 651 m 1
 498 557 l 1
 534 500 555 423 555 330 c 0
 555 119 450 -12 300 -12 c 0
 242 -12 191 8 149 44 c 1
 97 -33 l 1
 41 4 l 1
 104 97 l 1
 67 155 45 234 45 330 c 0
 45 541 150 667 300 667 c 0
 360 667 412 647 454 610 c 1
 507 688 l 1
 562 651 l 1
EndSplineSet
EndChar

StartChar: Uacute
Encoding: 218 218 190
Width: 600
Flags: MW
HStem: -12 87<264 338.5 264 369> 635 20G<75 176 176 176 428 525 525 525> 705 114<243 439 243 439>
VStem: 75 101<249 655> 428 97<243 249 249 655>
LayerCount: 2
Fore
SplineSet
75 249 m 2
 75 655 l 1
 176 655 l 1
 176 243 l 2
 176 123 227 75 301 75 c 0
 376 75 428 123 428 243 c 2
 428 655 l 1
 525 655 l 1
 525 249 l 2
 525 65 437 -12 301 -12 c 0
 165 -12 75 65 75 249 c 2
439 819 m 1
 324 705 l 1
 243 705 l 1
 329 819 l 1
 439 819 l 1
EndSplineSet
EndChar

StartChar: Ucircumflex
Encoding: 219 219 191
Width: 600
Flags: MW
HStem: -12 87<264 338.5 264 369> 635 20G<75 176 176 176 428 525 525 525> 705 114<156 348 156 348 252 365 252 444>
VStem: 75 101<249 655> 428 97<243 249 249 655>
LayerCount: 2
Fore
SplineSet
75 249 m 2
 75 655 l 1
 176 655 l 1
 176 243 l 2
 176 123 227 75 301 75 c 0
 376 75 428 123 428 243 c 2
 428 655 l 1
 525 655 l 1
 525 249 l 2
 525 65 437 -12 301 -12 c 0
 165 -12 75 65 75 249 c 2
235 705 m 1
 156 705 l 1
 252 819 l 1
 348 819 l 1
 444 705 l 1
 365 705 l 1
 302 771 l 1
 298 771 l 1
 235 705 l 1
EndSplineSet
EndChar

StartChar: Udieresis
Encoding: 220 220 193
Width: 600
Flags: MW
HStem: -12 87<264 338.5 264 369> 635 20G<75 176 176 176 428 525 525 525> 711 109<194.5 226 374 405.5>
VStem: 75 101<249 655> 156 109<750 781.5> 335 109<750 781.5> 428 97<243 249 249 655>
LayerCount: 2
Fore
SplineSet
75 249 m 2xf2
 75 655 l 1
 176 655 l 1
 176 243 l 2
 176 123 227 75 301 75 c 0
 376 75 428 123 428 243 c 2
 428 655 l 1
 525 655 l 1
 525 249 l 2
 525 65 437 -12 301 -12 c 0
 165 -12 75 65 75 249 c 2xf2
210 711 m 0xec
 179 711 156 734 156 766 c 0
 156 797 179 820 210 820 c 0
 242 820 265 797 265 766 c 0
 265 734 242 711 210 711 c 0xec
390 711 m 0
 358 711 335 734 335 766 c 0
 335 797 358 820 390 820 c 0
 421 820 444 797 444 766 c 0
 444 734 421 711 390 711 c 0
EndSplineSet
EndChar

StartChar: Yacute
Encoding: 221 221 217
Width: 600
Flags: MW
HStem: 0 21G<250 250 250 350> 635 20G<33 139 139 139 464 567 567 567> 705 114<243 439 243 439>
VStem: 250 100<0 230 0 230>
LayerCount: 2
Fore
SplineSet
250 0 m 1
 250 230 l 1
 33 655 l 1
 139 655 l 1
 229 470 l 2
 253 419 275 370 300 318 c 1
 304 318 l 1
 329 370 353 419 377 470 c 2
 464 655 l 1
 567 655 l 1
 350 230 l 1
 350 0 l 1
 250 0 l 1
439 819 m 1
 324 705 l 1
 243 705 l 1
 329 819 l 1
 439 819 l 1
EndSplineSet
EndChar

StartChar: Thorn
Encoding: 222 222 229
Width: 600
Flags: MW
HStem: 0 21G<94 94 94 194> 143 80<194 295 295 305 194 295> 467 81<194 295 194 305> 467 188<94 295 94 194>
VStem: 94 100<0 143 223 467 548 655> 451 99<306.5 394>
LayerCount: 2
Fore
SplineSet
94 0 m 1xdc
 94 655 l 1
 194 655 l 1xdc
 194 548 l 1
 305 548 l 2xec
 449 548 550 498 550 350 c 0
 550 208 447 143 305 143 c 2
 194 143 l 1
 194 0 l 1
 94 0 l 1xdc
194 223 m 1
 295 223 l 2
 401 223 451 263 451 350 c 0
 451 438 399 467 295 467 c 2
 194 467 l 1
 194 223 l 1
EndSplineSet
EndChar

StartChar: germandbls
Encoding: 223 223 363
Width: 600
Flags: MW
HStem: -12 76<379 421.5 379 451.5> 0 21G<81 81 81 180> 642 79<254 312.5>
VStem: 81 99<0 502 0 513 0 574.5> 283 93<327.5 404.5 327.5 404.5> 366 93<520.5 584.5> 473 93<114 185.5>
LayerCount: 2
Fore
SplineSet
81 0 m 1x76
 81 513 l 2
 81 636 156 721 289 721 c 0xb6
 400 721 459 649 459 568 c 0
 459 469 376 437 376 372 c 0
 376 283 566 296 566 141 c 0
 566 55 503 -12 400 -12 c 0
 344 -12 300 4 257 31 c 1
 294 100 l 1
 330 75 361 64 397 64 c 0
 446 64 473 95 473 133 c 0xba
 473 238 283 223 283 360 c 0
 283 449 366 479 366 562 c 0
 366 607 337 642 288 642 c 0
 220 642 180 593 180 502 c 2
 180 0 l 1
 81 0 l 1x76
EndSplineSet
EndChar

StartChar: agrave
Encoding: 224 224 231
Width: 600
Flags: MW
HStem: -12 79<242.5 274.5> 0 21G<439 520 439 439> 420 81<273.5 342.5> 573 153<186 307 186 382>
VStem: 76 96<111.5 165.5 111.5 184> 421 99<132 248 248 248>
LayerCount: 2
Fore
SplineSet
76 129 m 0xbc
 76 239 175 292 421 311 c 1
 418 371 386 420 299 420 c 0
 239 420 181 393 133 365 c 1
 96 432 l 1
 150 465 231 501 316 501 c 0
 451 501 520 423 520 294 c 2
 520 0 l 1
 439 0 l 1x7c
 431 63 l 1
 428 63 l 1
 376 23 308 -12 241 -12 c 0
 147 -12 76 43 76 129 c 0xbc
172 136 m 0
 172 87 216 67 269 67 c 0
 321 67 371 91 421 132 c 1
 421 248 l 1
 229 233 172 195 172 136 c 0
307 573 m 1
 186 726 l 1
 292 726 l 1
 382 573 l 1
 307 573 l 1
EndSplineSet
Substitution2: "'ss02' Style Set 2 in Latin lookup 18 subtable" agrave.a
Substitution2: "'aalt' Access All Alternates in Latin lookup 0 subtable" agrave.a
EndChar

StartChar: atilde
Encoding: 227 227 234
Width: 600
Flags: MW
HStem: -12 79<242.5 274.5> 0 21G<439 520 439 439> 420 81<273.5 342.5> 578 64<351 377 351 393.5> 632 64<247.5 274>
VStem: 76 96<111.5 165.5 111.5 184> 163 54<578 578> 407 54<696 696> 421 99<132 248 248 248>
LayerCount: 2
Fore
SplineSet
76 129 m 0xac80
 76 239 175 292 421 311 c 1
 418 371 386 420 299 420 c 0
 239 420 181 393 133 365 c 1
 96 432 l 1
 150 465 231 501 316 501 c 0
 451 501 520 423 520 294 c 2
 520 0 l 1
 439 0 l 1x6c80
 431 63 l 1
 428 63 l 1
 376 23 308 -12 241 -12 c 0
 147 -12 76 43 76 129 c 0xac80
172 136 m 0
 172 87 216 67 269 67 c 0
 321 67 371 91 421 132 c 1
 421 248 l 1
 229 233 172 195 172 136 c 0
163 578 m 1xaa80
 171 650 203 696 258 696 c 0xaa80
 307 696 336 642 366 642 c 0xb5
 388 642 400 659 407 696 c 1
 461 696 l 1xad
 453 625 421 578 366 578 c 0xb5
 317 578 290 632 258 632 c 0
 237 632 224 616 217 578 c 1
 163 578 l 1xaa80
EndSplineSet
Substitution2: "'ss02' Style Set 2 in Latin lookup 18 subtable" atilde.a
Substitution2: "'aalt' Access All Alternates in Latin lookup 0 subtable" atilde.a
EndChar

StartChar: adieresis
Encoding: 228 228 235
Width: 600
Flags: MW
HStem: -12 79<242.5 274.5> 0 21G<439 520 439 439> 420 81<273.5 342.5> 584 122<195 230.5 394 429.5>
VStem: 76 96<111.5 165.5 111.5 184> 152 121<627.5 662> 352 120<627.5 662> 421 99<132 248 248 248>
LayerCount: 2
Fore
SplineSet
76 129 m 0xb9
 76 239 175 292 421 311 c 1
 418 371 386 420 299 420 c 0
 239 420 181 393 133 365 c 1
 96 432 l 1
 150 465 231 501 316 501 c 0
 451 501 520 423 520 294 c 2
 520 0 l 1
 439 0 l 1x79
 431 63 l 1
 428 63 l 1
 376 23 308 -12 241 -12 c 0
 147 -12 76 43 76 129 c 0xb9
172 136 m 0
 172 87 216 67 269 67 c 0
 321 67 371 91 421 132 c 1
 421 248 l 1
 229 233 172 195 172 136 c 0
213 584 m 0xb6
 177 584 152 610 152 645 c 0
 152 679 177 706 213 706 c 0
 248 706 273 679 273 645 c 0
 273 610 248 584 213 584 c 0xb6
412 584 m 0
 376 584 352 610 352 645 c 0
 352 679 376 706 412 706 c 0
 447 706 472 679 472 645 c 0
 472 610 447 584 412 584 c 0
EndSplineSet
Substitution2: "'ss02' Style Set 2 in Latin lookup 18 subtable" adieresis.a
Substitution2: "'aalt' Access All Alternates in Latin lookup 0 subtable" adieresis.a
EndChar

StartChar: aring
Encoding: 229 229 238
Width: 600
Flags: MW
HStem: -12 79<242.5 274.5> 0 21G<439 520 439 439> 420 81<273.5 342.5> 544 41<299.5 325 299.5 341> 692 41<299.5 325>
VStem: 76 96<111.5 165.5 111.5 184> 214 52<622.5 655 622.5 667> 358 53<622.5 655> 421 99<132 248 248 248>
LayerCount: 2
Fore
SplineSet
76 129 m 0xbe80
 76 239 175 292 421 311 c 1
 418 371 386 420 299 420 c 0
 239 420 181 393 133 365 c 1
 96 432 l 1
 150 465 231 501 316 501 c 0
 451 501 520 423 520 294 c 2
 520 0 l 1
 439 0 l 1x7e80
 431 63 l 1
 428 63 l 1
 376 23 308 -12 241 -12 c 0
 147 -12 76 43 76 129 c 0xbe80
172 136 m 0
 172 87 216 67 269 67 c 0
 321 67 371 91 421 132 c 1
 421 248 l 1
 229 233 172 195 172 136 c 0
312 544 m 0xbf80
 255 544 214 582 214 639 c 0
 214 695 255 733 312 733 c 0
 370 733 411 695 411 639 c 0
 411 582 370 544 312 544 c 0xbf80
312 585 m 0
 338 585 358 606 358 639 c 0
 358 671 338 692 312 692 c 0
 287 692 266 671 266 639 c 0
 266 606 287 585 312 585 c 0
EndSplineSet
Substitution2: "'ss02' Style Set 2 in Latin lookup 18 subtable" aring.a
Substitution2: "'aalt' Access All Alternates in Latin lookup 0 subtable" aring.a
EndChar

StartChar: ae
Encoding: 230 230 253
Width: 600
Flags: MW
HStem: -12 79<420 472.5 420 476> 219 63<341 515 340 591 341 341> 423 78<416 467.5>
VStem: 17 90<114 165 114 181> 259 81<224 282> 515 81<282 320>
LayerCount: 2
Fore
SplineSet
17 132 m 0
 17 230 98 285 259 311 c 1
 257 376 236 421 180 421 c 0
 147 421 100 403 68 382 c 1
 32 448 l 1
 76 476 130 501 189 501 c 0
 251 501 290 462 309 409 c 1
 341 467 385 501 447 501 c 0
 546 501 596 396 596 274 c 0
 596 253 594 235 591 219 c 1
 341 219 l 1
 347 126 385 67 455 67 c 0
 490 67 519 79 546 97 c 1
 581 32 l 1
 547 7 500 -12 452 -12 c 0
 381 -12 334 21 302 75 c 1
 248 18 198 -12 149 -12 c 0
 67 -12 17 45 17 132 c 0
340 282 m 1
 515 282 l 1
 515 358 497 423 438 423 c 0
 384 423 346 372 340 282 c 1
107 137 m 0
 107 91 133 66 174 66 c 0
 204 66 244 88 274 128 c 1
 265 155 260 190 259 224 c 2
 258 248 l 1
 151 229 107 193 107 137 c 0
EndSplineSet
EndChar

StartChar: ccedilla
Encoding: 231 231 255
Width: 600
Flags: MW
HStem: -215 46<252 261> -10 79<310 310> 419 82<303.5 380>
VStem: 76 102<191.5 296.5 191.5 325.5> 339 75<-135.5 -110.5>
LayerCount: 2
Fore
SplineSet
373 -11 m 1
 355 -48 l 1
 388 -59 414 -79 414 -120 c 0
 414 -181 341 -209 261 -215 c 1
 252 -169 l 1
 303 -163 339 -149 339 -122 c 0
 339 -99 319 -86 277 -75 c 1
 310 -10 l 1
 175 3 76 95 76 244 c 0
 76 407 203 501 351 501 c 0
 431 501 491 470 531 431 c 1
 483 368 l 1
 444 400 404 419 356 419 c 0
 251 419 178 349 178 244 c 0
 178 139 249 69 353 69 c 0
 412 69 460 95 499 127 c 1
 541 63 l 1
 493 21 434 -5 373 -11 c 1
EndSplineSet
EndChar

StartChar: eacute
Encoding: 233 233 265
Width: 600
Flags: MW
HStem: -12 78<294 367.5> 219 68<167 448 166 535 167 167> 423 78<280.5 359> 573 153<245 440 245 440>
VStem: 65 102<219 219 219 324> 448 92<287 330.5>
LayerCount: 2
Fore
SplineSet
65 244 m 0
 65 404 188 501 315 501 c 0
 458 501 540 406 540 270 c 0
 540 250 537 231 535 219 c 1
 167 219 l 1
 173 123 245 66 343 66 c 0
 396 66 441 82 485 108 c 1
 520 45 l 1
 469 13 405 -12 330 -12 c 0
 183 -12 65 83 65 244 c 0
166 287 m 1
 448 287 l 1
 448 374 401 423 317 423 c 0
 244 423 179 374 166 287 c 1
440 726 m 1
 319 573 l 1
 245 573 l 1
 335 726 l 1
 440 726 l 1
EndSplineSet
Substitution2: "'sups' Superscript in Latin lookup 12 subtable" eacute.sups
Substitution2: "'aalt' Access All Alternates in Latin lookup 0 subtable" eacute.sups
EndChar

StartChar: ecircumflex
Encoding: 234 234 266
Width: 600
Flags: MW
HStem: -12 78<294 367.5> 219 68<167 448 166 535 167 167> 423 78<280.5 359> 573 153<174 356 174 356 272 379 272 454>
VStem: 65 102<219 219 219 324> 448 92<287 330.5>
LayerCount: 2
Fore
SplineSet
65 244 m 0
 65 404 188 501 315 501 c 0
 458 501 540 406 540 270 c 0
 540 250 537 231 535 219 c 1
 167 219 l 1
 173 123 245 66 343 66 c 0
 396 66 441 82 485 108 c 1
 520 45 l 1
 469 13 405 -12 330 -12 c 0
 183 -12 65 83 65 244 c 0
166 287 m 1
 448 287 l 1
 448 374 401 423 317 423 c 0
 244 423 179 374 166 287 c 1
174 573 m 1
 272 726 l 1
 356 726 l 1
 454 573 l 1
 379 573 l 1
 316 671 l 1
 312 671 l 1
 249 573 l 1
 174 573 l 1
EndSplineSet
MultipleSubs2: "Multiple Substitution lookup 2 subtable" e uni0302
EndChar

StartChar: edieresis
Encoding: 235 235 268
Width: 600
Flags: MW
HStem: -12 78<294 367.5> 219 68<167 448 166 535 167 167> 423 78<280.5 359> 584 122<196.5 232 396 431.5>
VStem: 65 102<219 219 219 324> 154 121<627.5 662> 353 121<627.5 662> 448 92<287 330.5>
LayerCount: 2
Fore
SplineSet
65 244 m 0xe9
 65 404 188 501 315 501 c 0
 458 501 540 406 540 270 c 0
 540 250 537 231 535 219 c 1
 167 219 l 1
 173 123 245 66 343 66 c 0
 396 66 441 82 485 108 c 1
 520 45 l 1
 469 13 405 -12 330 -12 c 0
 183 -12 65 83 65 244 c 0xe9
166 287 m 1
 448 287 l 1
 448 374 401 423 317 423 c 0
 244 423 179 374 166 287 c 1
214 584 m 0xf6
 179 584 154 610 154 645 c 0
 154 679 179 706 214 706 c 0
 250 706 275 679 275 645 c 0
 275 610 250 584 214 584 c 0xf6
414 584 m 0
 378 584 353 610 353 645 c 0
 353 679 378 706 414 706 c 0
 449 706 474 679 474 645 c 0
 474 610 449 584 414 584 c 0
EndSplineSet
EndChar

StartChar: igrave
Encoding: 236 236 292
Width: 600
Flags: MW
HStem: 0 21G<306 405 306 306> 409 80<87 405 87 306> 573 153<221 342 221 417>
VStem: 306 99<0 409 409 409>
LayerCount: 2
Fore
SplineSet
87 409 m 1
 87 489 l 1
 405 489 l 1
 405 0 l 1
 306 0 l 1
 306 409 l 1
 87 409 l 1
342 573 m 1
 221 726 l 1
 327 726 l 1
 417 573 l 1
 342 573 l 1
EndSplineSet
EndChar

StartChar: iacute
Encoding: 237 237 293
Width: 600
Flags: MW
HStem: 0 21G<306 405 306 306> 409 80<87 405 87 306> 573 153<278 473 278 473>
VStem: 306 99<0 409 409 409>
LayerCount: 2
Fore
SplineSet
87 409 m 1
 87 489 l 1
 405 489 l 1
 405 0 l 1
 306 0 l 1
 306 409 l 1
 87 409 l 1
473 726 m 1
 352 573 l 1
 278 573 l 1
 368 726 l 1
 473 726 l 1
EndSplineSet
EndChar

StartChar: icircumflex
Encoding: 238 238 294
Width: 600
Flags: MW
HStem: 0 21G<306 405 306 306> 409 80<87 405 87 306> 573 153<207 389 207 389 305 413 305 487>
VStem: 306 99<0 409 409 409>
LayerCount: 2
Fore
SplineSet
87 409 m 1
 87 489 l 1
 405 489 l 1
 405 0 l 1
 306 0 l 1
 306 409 l 1
 87 409 l 1
207 573 m 1
 305 726 l 1
 389 726 l 1
 487 573 l 1
 413 573 l 1
 349 671 l 1
 345 671 l 1
 282 573 l 1
 207 573 l 1
EndSplineSet
EndChar

StartChar: idieresis
Encoding: 239 239 296
Width: 600
Flags: MW
HStem: 0 21G<306 405 306 306> 409 80<87 405 87 306> 584 122<229.5 265 429 464.5>
VStem: 187 121<627.5 662> 306 99<0 409 409 409> 386 121<627.5 662>
LayerCount: 2
Fore
SplineSet
87 409 m 1xe8
 87 489 l 1
 405 489 l 1
 405 0 l 1
 306 0 l 1
 306 409 l 1
 87 409 l 1xe8
247 584 m 0xf4
 212 584 187 610 187 645 c 0
 187 679 212 706 247 706 c 0
 283 706 308 679 308 645 c 0
 308 610 283 584 247 584 c 0xf4
447 584 m 0
 411 584 386 610 386 645 c 0
 386 679 411 706 447 706 c 0
 482 706 507 679 507 645 c 0
 507 610 482 584 447 584 c 0
EndSplineSet
EndChar

StartChar: eth
Encoding: 240 240 409
Width: 600
Flags: MW
HStem: -12 81<258.5 348.5 258.5 372> 373 76<250.5 312 219 324.5> 696 20G<484 484>
VStem: 56 93<176.5 268.5 176.5 293> 445 95<199 262.5>
LayerCount: 2
Fore
SplineSet
300 69 m 0
 397 69 445 143 445 255 c 0
 445 270 445 284 444 297 c 1
 401 353 349 373 300 373 c 0
 201 373 149 313 149 224 c 0
 149 129 217 69 300 69 c 0
512 668 m 1
 396 609 l 1
 482 528 540 418 540 260 c 0
 540 99 447 -12 297 -12 c 0
 169 -12 56 78 56 224 c 0
 56 362 155 449 283 449 c 0
 341 449 398 423 433 376 c 1
 415 458 376 519 319 570 c 1
 169 493 l 1
 141 541 l 1
 271 607 l 1
 237 630 199 651 157 671 c 1
 202 733 l 1
 255 709 305 681 349 647 c 1
 484 716 l 1
 512 668 l 1
EndSplineSet
EndChar

StartChar: ntilde
Encoding: 241 241 319
Width: 600
Flags: MW
HStem: 0 21G<88 88 88 187 428 428 428 527> 415 86<323 363> 469 20G<88 169 169 169> 578 64<356 382 356 398.5> 632 64<252.5 279>
VStem: 88 99<0 337 0 489> 168 54<578 578> 412 54<696 696> 428 99<0 290 290 303 0 332.5>
LayerCount: 2
Fore
SplineSet
88 0 m 1xcc80
 88 489 l 1
 169 489 l 1xac80
 177 410 l 1
 181 410 l 1
 230 461 285 501 361 501 c 0
 475 501 527 430 527 303 c 2
 527 0 l 1
 428 0 l 1
 428 290 l 2
 428 375 400 415 326 415 c 0
 274 415 237 389 187 337 c 1
 187 0 l 1
 88 0 l 1xcc80
168 578 m 1xca80
 176 650 208 696 263 696 c 0xca80
 312 696 341 642 371 642 c 0xd5
 393 642 405 659 412 696 c 1
 466 696 l 1xcd
 458 625 426 578 371 578 c 0xd5
 322 578 295 632 263 632 c 0
 242 632 229 616 222 578 c 1
 168 578 l 1xca80
EndSplineSet
EndChar

StartChar: otilde
Encoding: 245 245 328
Width: 600
Flags: MW
HStem: -12 81<256.5 343.5 256.5 364> 419 82<256.5 343.5> 578 64<338.5 365 338.5 381.5> 632 64<235 262>
VStem: 56 102<191.5 296.5 191.5 325.5> 151 54<578 578> 395 54<696 696> 442 102<191.5 296.5>
LayerCount: 2
Fore
SplineSet
56 244 m 0xd9
 56 407 172 501 300 501 c 0
 428 501 544 407 544 244 c 0
 544 82 428 -12 300 -12 c 0
 172 -12 56 82 56 244 c 0xd9
158 244 m 0
 158 139 213 69 300 69 c 0
 387 69 442 139 442 244 c 0
 442 349 387 419 300 419 c 0
 213 419 158 349 158 244 c 0
151 578 m 1xd5
 159 650 191 696 246 696 c 0xd5
 294 696 323 642 354 642 c 0xea
 376 642 388 659 395 696 c 1
 449 696 l 1xda
 441 625 409 578 354 578 c 0xea
 305 578 278 632 246 632 c 0
 224 632 212 616 205 578 c 1
 151 578 l 1xd5
EndSplineSet
EndChar

StartChar: odieresis
Encoding: 246 246 329
Width: 600
Flags: MW
HStem: -12 81<256.5 343.5 256.5 364> 419 82<256.5 343.5> 584 122<182.5 218 382 417.5>
VStem: 56 102<191.5 296.5 191.5 325.5> 140 121<627.5 662> 339 121<627.5 662> 442 102<191.5 296.5>
LayerCount: 2
Fore
SplineSet
56 244 m 0xf2
 56 407 172 501 300 501 c 0
 428 501 544 407 544 244 c 0
 544 82 428 -12 300 -12 c 0
 172 -12 56 82 56 244 c 0xf2
158 244 m 0
 158 139 213 69 300 69 c 0
 387 69 442 139 442 244 c 0
 442 349 387 419 300 419 c 0
 213 419 158 349 158 244 c 0
200 584 m 0xec
 165 584 140 610 140 645 c 0
 140 679 165 706 200 706 c 0
 236 706 261 679 261 645 c 0
 261 610 236 584 200 584 c 0xec
400 584 m 0
 364 584 339 610 339 645 c 0
 339 679 364 706 400 706 c 0
 435 706 460 679 460 645 c 0
 460 610 435 584 400 584 c 0
EndSplineSet
EndChar

StartChar: divide
Encoding: 247 247 663
Width: 600
Flags: MW
HStem: 90 119<282.5 317.5> 294 72<81 519 81 519> 450 119<282.5 317.5>
VStem: 239 122<132 167.5 492 527.5>
LayerCount: 2
Fore
SplineSet
300 450 m 0
 265 450 239 474 239 510 c 0
 239 545 265 569 300 569 c 0
 335 569 361 545 361 510 c 0
 361 474 335 450 300 450 c 0
239 150 m 0
 239 185 265 209 300 209 c 0
 335 209 361 185 361 150 c 0
 361 114 335 90 300 90 c 0
 265 90 239 114 239 150 c 0
81 294 m 1
 81 366 l 1
 519 366 l 1
 519 294 l 1
 81 294 l 1
EndSplineSet
EndChar

StartChar: oslash
Encoding: 248 248 341
Width: 600
GlyphClass: 2
Flags: MW
HStem: -12 21G -12 79<282.5 343.5 282.5 364> 422 79<256.5 317.5> 481 20G<236 326>
VStem: 56 102<224.5 296.5 224.5 325.5> 442 102<191.5 263.5>
AnchorPoint: "Anchor-0" 300 511 basechar 0
LayerCount: 2
Fore
SplineSet
421 345 m 1x6c
 212 100 l 1
 235 79 265 67 300 67 c 0
 387 67 442 139 442 244 c 0
 442 283 434 317 421 345 c 1x6c
179 143 m 1
 388 389 l 1
 365 410 335 422 300 422 c 0
 213 422 158 349 158 244 c 0
 158 205 165 171 179 143 c 1
535 480 m 1x5c
 483 419 l 1
 521 376 544 317 544 244 c 0
 544 82 428 -12 300 -12 c 0
 248 -12 197 4 156 34 c 1
 107 -24 l 1x5c
 65 9 l 1
 116 70 l 1
 79 113 56 171 56 244 c 0
 56 407 172 501 300 501 c 0
 352 501 403 485 444 455 c 1
 493 513 l 1xac
 535 480 l 1x5c
EndSplineSet
EndChar

StartChar: uacute
Encoding: 250 250 371
Width: 600
Flags: MW
HStem: -12 85<237 277> 0 21G<429 510 429 429> 469 20G<73 172 172 172 411 510 510 510> 573 153<225 421 225 421>
VStem: 73 99<186 199 199 489> 411 99<154 489 0 489>
LayerCount: 2
Fore
SplineSet
510 489 m 1xbc
 510 0 l 1
 429 0 l 1x7c
 421 81 l 1
 417 81 l 1
 369 26 314 -12 240 -12 c 0
 125 -12 73 58 73 186 c 2
 73 489 l 1
 172 489 l 1
 172 199 l 2
 172 113 200 73 274 73 c 0
 325 73 363 96 411 154 c 1
 411 489 l 1
 510 489 l 1xbc
421 726 m 1
 300 573 l 1
 225 573 l 1
 316 726 l 1
 421 726 l 1
EndSplineSet
EndChar

StartChar: udieresis
Encoding: 252 252 374
Width: 600
Flags: MW
HStem: -12 85<237 277> 0 21G<429 510 429 429> 469 20G<73 172 172 172 411 510 510 510> 584 122<177.5 213 377 412.5>
VStem: 73 99<186 199 199 489> 135 121<627.5 662> 334 121<627.5 662> 411 99<154 489 0 489>
LayerCount: 2
Fore
SplineSet
510 489 m 1xb9
 510 0 l 1
 429 0 l 1x75
 421 81 l 1
 417 81 l 1
 369 26 314 -12 240 -12 c 0
 125 -12 73 58 73 186 c 2
 73 489 l 1
 172 489 l 1
 172 199 l 2
 172 113 200 73 274 73 c 0
 325 73 363 96 411 154 c 1
 411 489 l 1
 510 489 l 1xb9
195 584 m 0
 160 584 135 610 135 645 c 0
 135 679 160 706 195 706 c 0
 231 706 256 679 256 645 c 0
 256 610 231 584 195 584 c 0
395 584 m 0xba
 359 584 334 610 334 645 c 0
 334 679 359 706 395 706 c 0
 430 706 455 679 455 645 c 0
 455 610 430 584 395 584 c 0xba
EndSplineSet
EndChar

StartChar: yacute
Encoding: 253 253 398
Width: 600
Flags: MW
HStem: -205 80<122 161.5 121.5 191> 469 20G<45 144 144 144 462 556 556 556> 573 153<235 431 235 431>
VStem: 45 511<489 489>
LayerCount: 2
Fore
SplineSet
87 -118 m 1
 99 -122 114 -125 129 -125 c 0
 194 -125 233 -85 255 -31 c 1
 268 3 l 1
 45 489 l 1
 144 489 l 1
 254 234 l 2
 272 190 291 139 311 91 c 1
 315 91 l 1
 331 138 349 189 365 234 c 1
 462 489 l 1
 556 489 l 1
 347 -31 l 1
 308 -135 248 -205 134 -205 c 0
 110 -205 85 -201 67 -195 c 1
 87 -118 l 1
431 726 m 1
 310 573 l 1
 235 573 l 1
 325 726 l 1
 431 726 l 1
EndSplineSet
EndChar

StartChar: thorn
Encoding: 254 254 410
Width: 600
GlyphClass: 2
Flags: MW
HStem: -200 21G<88 187 88 88> -12 82<300 343 289 380.5> 418 83<313.5 359.5> 689 20G<88 187 187 187>
VStem: 88 99<-200 -40 121 352 515 709> 442 102<193 302>
AnchorPoint: "Anchor-2" 306 -22 basechar 0
AnchorPoint: "Anchor-0" 145 730 basechar 0
LayerCount: 2
Fore
SplineSet
187 -40 m 1
 187 -200 l 1
 88 -200 l 1
 88 709 l 1
 187 709 l 1
 187 515 l 1
 184 431 l 1
 229 473 286 501 341 501 c 0
 470 501 544 403 544 252 c 0
 544 85 437 -12 324 -12 c 0
 276 -12 226 12 185 48 c 1
 187 -40 l 1
187 121 m 1
 227 84 273 70 305 70 c 0
 381 70 442 135 442 251 c 0
 442 353 404 418 315 418 c 0
 275 418 231 398 187 352 c 1
 187 121 l 1
EndSplineSet
EndChar

StartChar: amacron
Encoding: 257 257 236
Width: 600
Flags: MW
HStem: -12 79<242.5 274.5> 0 21G<439 520 439 439> 420 81<273.5 342.5> 598 67<186 439 186 439>
VStem: 76 96<111.5 165.5 111.5 184> 186 253<598 665> 421 99<132 248 248 248>
LayerCount: 2
Fore
SplineSet
76 129 m 0xba
 76 239 175 292 421 311 c 1
 418 371 386 420 299 420 c 0
 239 420 181 393 133 365 c 1
 96 432 l 1
 150 465 231 501 316 501 c 0
 451 501 520 423 520 294 c 2
 520 0 l 1
 439 0 l 1x7a
 431 63 l 1
 428 63 l 1
 376 23 308 -12 241 -12 c 0
 147 -12 76 43 76 129 c 0xba
172 136 m 0
 172 87 216 67 269 67 c 0
 321 67 371 91 421 132 c 1
 421 248 l 1
 229 233 172 195 172 136 c 0
186 598 m 1xbc
 186 665 l 1
 439 665 l 1
 439 598 l 1
 186 598 l 1xbc
EndSplineSet
Substitution2: "'ss02' Style Set 2 in Latin lookup 18 subtable" amacron.a
Substitution2: "'aalt' Access All Alternates in Latin lookup 0 subtable" amacron.a
EndChar

StartChar: Aogonek
Encoding: 260 260 75
Width: 600
GlyphClass: 2
Flags: MW
HStem: -215 68<524.5 530.5> 0 21G<26 128 26 26 468 493 468 468 574 574> 188 79<208 389 208 412 184 389> 575 80<296 300 296 296>
VStem: 416 76<-117.5 -98>
AnchorPoint: "Anchor-0" 300 677 basechar 0
LayerCount: 2
Fore
SplineSet
208 267 m 1
 389 267 l 1
 362 357 l 2
 340 428 320 502 300 575 c 1
 296 575 l 1
 277 501 257 428 235 357 c 2
 208 267 l 1
577 -133 m 1
 603 -185 l 1
 582 -202 545 -215 516 -215 c 0
 461 -215 416 -184 416 -126 c 0
 416 -70 459 -22 493 0 c 1
 468 0 l 1
 412 188 l 1
 184 188 l 1
 128 0 l 1
 26 0 l 1
 242 655 l 1
 358 655 l 1
 574 0 l 1
 526 -15 492 -61 492 -103 c 0
 492 -132 513 -147 536 -147 c 0
 552 -147 565 -141 577 -133 c 1
EndSplineSet
Ligature2: "'ccmp' Glyph Composition/Decomposition in Latin lookup 6 subtable" A uni0328
EndChar

StartChar: aogonek
Encoding: 261 261 252
Width: 600
GlyphClass: 2
Flags: MW
HStem: -207 63<467 470.5> -12 79<242.5 274.5> 0 21G<520 520> 420 81<273.5 342.5>
VStem: 76 96<111.5 165.5 111.5 184> 363 70<-115 -92.5> 421 99<132 248 248 248>
AnchorPoint: "Anchor-0" 310 511 basechar 0
LayerCount: 2
Fore
SplineSet
76 129 m 0xda
 76 239 175 292 421 311 c 1
 418 371 386 420 299 420 c 0
 239 420 181 393 133 365 c 1
 96 432 l 1
 150 465 231 501 316 501 c 0
 451 501 520 423 520 294 c 2
 520 0 l 1xba
 463 -21 433 -63 433 -100 c 0
 433 -130 455 -144 479 -144 c 0
 494 -144 507 -139 518 -131 c 1
 541 -178 l 1
 521 -195 484 -207 457 -207 c 0
 404 -207 363 -178 363 -120 c 0xdc
 363 -65 405 -20 440 2 c 1
 431 63 l 1
 428 63 l 1
 376 23 308 -12 241 -12 c 0
 147 -12 76 43 76 129 c 0xda
172 136 m 0
 172 87 216 67 269 67 c 0
 321 67 371 91 421 132 c 1
 421 248 l 1
 229 233 172 195 172 136 c 0
EndSplineSet
Substitution2: "'ss02' Style Set 2 in Latin lookup 18 subtable" aogonek.a
Ligature2: "'ccmp' Glyph Composition/Decomposition in Latin lookup 6 subtable" a uni0328
Substitution2: "'aalt' Access All Alternates in Latin lookup 0 subtable" aogonek.a
EndChar

StartChar: Cacute
Encoding: 262 262 79
Width: 600
Flags: MW
HStem: -12 87<303.5 391 303.5 398.5> 580 87<302.5 387.5> 705 114<292 488 292 488>
VStem: 63 103<250.5 406.5 250.5 432.5>
LayerCount: 2
Fore
SplineSet
63 326 m 0
 63 539 189 667 361 667 c 0
 441 667 504 628 543 586 c 1
 487 523 l 1
 454 558 414 580 361 580 c 0
 244 580 166 484 166 329 c 0
 166 172 244 75 363 75 c 0
 419 75 462 100 502 144 c 1
 558 83 l 1
 505 22 440 -12 357 -12 c 0
 191 -12 63 111 63 326 c 0
488 819 m 1
 373 705 l 1
 292 705 l 1
 378 819 l 1
 488 819 l 1
EndSplineSet
EndChar

StartChar: cacute
Encoding: 263 263 256
Width: 600
Flags: MW
HStem: -12 81<301 380.5> 419 82<303.5 380> 573 153<273 468 273 468>
VStem: 76 102<191.5 296.5 191.5 325.5>
LayerCount: 2
Fore
SplineSet
76 244 m 0
 76 407 203 501 351 501 c 0
 431 501 491 470 531 431 c 1
 483 368 l 1
 444 400 404 419 356 419 c 0
 251 419 178 349 178 244 c 0
 178 139 249 69 353 69 c 0
 412 69 460 95 499 127 c 1
 541 63 l 1
 486 15 416 -12 345 -12 c 0
 192 -12 76 82 76 244 c 0
468 726 m 1
 348 573 l 1
 273 573 l 1
 363 726 l 1
 468 726 l 1
EndSplineSet
EndChar

StartChar: Cdotaccent
Encoding: 266 266 82
Width: 600
Flags: MW
HStem: -12 87<303.5 391 303.5 398.5> 580 87<302.5 387.5> 710 120<330.5 367>
VStem: 63 103<250.5 406.5 250.5 432.5> 285 128<753 788>
LayerCount: 2
Fore
SplineSet
63 326 m 0
 63 539 189 667 361 667 c 0
 441 667 504 628 543 586 c 1
 487 523 l 1
 454 558 414 580 361 580 c 0
 244 580 166 484 166 329 c 0
 166 172 244 75 363 75 c 0
 419 75 462 100 502 144 c 1
 558 83 l 1
 505 22 440 -12 357 -12 c 0
 191 -12 63 111 63 326 c 0
349 710 m 0
 312 710 285 735 285 771 c 0
 285 805 312 830 349 830 c 0
 385 830 413 805 413 771 c 0
 413 735 385 710 349 710 c 0
EndSplineSet
EndChar

StartChar: cdotaccent
Encoding: 267 267 259
Width: 600
Flags: MW
HStem: -12 81<301 380.5> 419 82<303.5 380> 582 141<321.5 364>
VStem: 76 102<191.5 296.5 191.5 325.5> 269 148<630.5 673>
LayerCount: 2
Fore
SplineSet
76 244 m 0
 76 407 203 501 351 501 c 0
 431 501 491 470 531 431 c 1
 483 368 l 1
 444 400 404 419 356 419 c 0
 251 419 178 349 178 244 c 0
 178 139 249 69 353 69 c 0
 412 69 460 95 499 127 c 1
 541 63 l 1
 486 15 416 -12 345 -12 c 0
 192 -12 76 82 76 244 c 0
343 582 m 0
 300 582 269 609 269 652 c 0
 269 694 300 723 343 723 c 0
 385 723 417 694 417 652 c 0
 417 609 385 582 343 582 c 0
EndSplineSet
EndChar

StartChar: Ccaron
Encoding: 268 268 81
Width: 600
Flags: MW
HStem: -12 87<303.5 391 303.5 398.5> 580 87<302.5 387.5> 705 114<205 397 205 301>
VStem: 63 103<250.5 406.5 250.5 432.5>
LayerCount: 2
Fore
SplineSet
63 326 m 0
 63 539 189 667 361 667 c 0
 441 667 504 628 543 586 c 1
 487 523 l 1
 454 558 414 580 361 580 c 0
 244 580 166 484 166 329 c 0
 166 172 244 75 363 75 c 0
 419 75 462 100 502 144 c 1
 558 83 l 1
 505 22 440 -12 357 -12 c 0
 191 -12 63 111 63 326 c 0
414 819 m 1
 493 819 l 1
 397 705 l 1
 301 705 l 1
 205 819 l 1
 283 819 l 1
 347 753 l 1
 351 753 l 1
 414 819 l 1
EndSplineSet
EndChar

StartChar: ccaron
Encoding: 269 269 258
Width: 600
Flags: MW
HStem: -12 81<301 380.5> 419 82<303.5 380> 573 153<202 300 202 385>
VStem: 76 102<191.5 296.5 191.5 325.5>
LayerCount: 2
Fore
SplineSet
76 244 m 0
 76 407 203 501 351 501 c 0
 431 501 491 470 531 431 c 1
 483 368 l 1
 444 400 404 419 356 419 c 0
 251 419 178 349 178 244 c 0
 178 139 249 69 353 69 c 0
 412 69 460 95 499 127 c 1
 541 63 l 1
 486 15 416 -12 345 -12 c 0
 192 -12 76 82 76 244 c 0
300 573 m 1
 202 726 l 1
 277 726 l 1
 341 628 l 1
 345 628 l 1
 408 726 l 1
 483 726 l 1
 385 573 l 1
 300 573 l 1
EndSplineSet
EndChar

StartChar: Dcaron
Encoding: 270 270 83
Width: 600
Flags: MW
HStem: 0 81<180 238 238 249> 574 81<180 238 180 180> 705 114<154 346 154 250>
VStem: 80 100<81 81 81 574> 448 103<248.5 411.5>
LayerCount: 2
Fore
SplineSet
80 0 m 1
 80 655 l 1
 245 655 l 2
 440 655 551 543 551 330 c 0
 551 118 440 0 249 0 c 2
 80 0 l 1
180 81 m 1
 238 81 l 2
 375 81 448 167 448 330 c 0
 448 493 375 574 238 574 c 2
 180 574 l 1
 180 81 l 1
363 819 m 1
 442 819 l 1
 346 705 l 1
 250 705 l 1
 154 819 l 1
 233 819 l 1
 296 753 l 1
 300 753 l 1
 363 819 l 1
EndSplineSet
EndChar

StartChar: dcaron
Encoding: 271 271 260
Width: 600
GlyphClass: 3
Flags: MW
HStem: -12 82<235.5 283> 0 21G<418 499 418 418> 418 83<246 291.5 205.5 303.5> 548 161<400 588 400 541> 548 215<541 588 541 541>
VStem: 43 102<189 298 189 323.5> 400 99<136 368 368 368 527 709 0 709> 539 65.5
LayerCount: 2
Fore
SplineSet
43 244 m 0xb7
 43 403 149 501 262 501 c 0
 321 501 362 478 404 440 c 1
 400 527 l 1
 400 709 l 1
 499 709 l 1
 499 0 l 1
 418 0 l 1x77
 410 60 l 1
 407 60 l 1
 368 21 312 -12 254 -12 c 0
 127 -12 43 82 43 244 c 0xb7
145 245 m 0
 145 133 194 70 277 70 c 0
 321 70 362 92 400 136 c 1
 400 368 l 1
 361 405 323 418 284 418 c 0
 208 418 145 351 145 245 c 0
588 548 m 1
 541 548 l 1xb7
 537 763 l 1
 605 763 l 1
 604 702 l 1xaf
 588 548 l 1
EndSplineSet
Ligature2: "'ccmp' Glyph Composition/Decomposition in Latin lookup 6 subtable" d uni030C
EndChar

StartChar: dcroat
Encoding: 273 273 263
Width: 600
Flags: MW
HStem: -12 82<248.5 296> 0 21G<431 512 431 431> 398 83<259.5 304.5 218.5 317> 567 54<245 413 245 413> 567 142<245 512 413 512>
VStem: 56 102<182.5 284.5 182.5 310.5> 413 99<136 348 348 348 507 567 0 567 621 709>
LayerCount: 2
Fore
SplineSet
413 136 m 1xae
 413 348 l 1
 374 384 336 398 298 398 c 0
 221 398 158 334 158 235 c 0
 158 130 207 70 290 70 c 0
 334 70 375 92 413 136 c 1xae
583 621 m 1xb6
 583 572 l 1xb6
 512 567 l 1
 512 0 l 1
 431 0 l 1x6e
 423 60 l 1
 420 60 l 1
 381 21 325 -12 267 -12 c 0
 140 -12 56 78 56 234 c 0
 56 387 162 481 275 481 c 0
 334 481 375 458 417 420 c 1
 413 507 l 1
 413 567 l 1
 245 567 l 1xae
 245 621 l 1
 413 621 l 1xb6
 413 709 l 1
 512 709 l 1xae
 512 621 l 1
 583 621 l 1xb6
EndSplineSet
EndChar

StartChar: Emacron
Encoding: 274 274 92
Width: 600
Flags: MW
HStem: 0 84<210 531 210 531> 300 84<210 473 210 473> 571 84<210 521 210 210> 726 67<200 457 200 457>
VStem: 110 100<84 300 384 571> 200 257<726 793 726 793>
LayerCount: 2
Fore
SplineSet
110 0 m 1xf8
 110 655 l 1
 521 655 l 1
 521 571 l 1
 210 571 l 1
 210 384 l 1
 473 384 l 1
 473 300 l 1
 210 300 l 1
 210 84 l 1
 531 84 l 1
 531 0 l 1
 110 0 l 1xf8
200 726 m 1xf4
 200 793 l 1
 457 793 l 1
 457 726 l 1
 200 726 l 1xf4
EndSplineSet
EndChar

StartChar: emacron
Encoding: 275 275 269
Width: 600
Flags: MW
HStem: -12 78<294 367.5> 219 68<167 448 166 535 167 167> 423 78<280.5 359> 598 67<188 441 188 441>
VStem: 65 102<219 219 219 324> 188 253<598 665 598 665> 448 92<287 330.5>
LayerCount: 2
Fore
SplineSet
65 244 m 0
 65 404 188 501 315 501 c 0
 458 501 540 406 540 270 c 0
 540 250 537 231 535 219 c 1
 167 219 l 1
 173 123 245 66 343 66 c 0
 396 66 441 82 485 108 c 1
 520 45 l 1
 469 13 405 -12 330 -12 c 0
 183 -12 65 83 65 244 c 0
166 287 m 1
 448 287 l 1
 448 374 401 423 317 423 c 0
 244 423 179 374 166 287 c 1
188 598 m 1xfc
 188 665 l 1
 441 665 l 1
 441 598 l 1
 188 598 l 1xfc
EndSplineSet
EndChar

StartChar: Ebreve
Encoding: 276 276 93
Width: 600
Flags: MW
HStem: 0 84<210 531 210 531> 300 84<210 473 210 473> 571 84<210 521 210 210> 706 54<307 349.5 307 369>
VStem: 110 100<84 300 384 571>
LayerCount: 2
Fore
SplineSet
110 0 m 1
 110 655 l 1
 521 655 l 1
 521 571 l 1
 210 571 l 1
 210 384 l 1
 473 384 l 1
 473 300 l 1
 210 300 l 1
 210 84 l 1
 531 84 l 1
 531 0 l 1
 110 0 l 1
328 706 m 0
 247 706 209 759 202 819 c 1
 260 819 l 1
 266 789 286 760 328 760 c 0
 371 760 391 789 397 819 c 1
 455 819 l 1
 448 759 410 706 328 706 c 0
EndSplineSet
EndChar

StartChar: ebreve
Encoding: 277 277 270
Width: 600
Flags: MW
HStem: -12 78<294 367.5> 219 68<167 448 166 535 167 167> 423 78<280.5 359> 575 58<290.5 337.5 290.5 359.5> 575 139<180 359.5>
VStem: 65 102<219 219 219 324> 180 59<714 714> 389 60<714 714> 448 92<287 330.5>
LayerCount: 2
Fore
SplineSet
65 244 m 0xec80
 65 404 188 501 315 501 c 0
 458 501 540 406 540 270 c 0
 540 250 537 231 535 219 c 1
 167 219 l 1
 173 123 245 66 343 66 c 0
 396 66 441 82 485 108 c 1
 520 45 l 1
 469 13 405 -12 330 -12 c 0
 183 -12 65 83 65 244 c 0xec80
166 287 m 1
 448 287 l 1
 448 374 401 423 317 423 c 0
 244 423 179 374 166 287 c 1
314 575 m 0xef
 223 575 184 647 180 714 c 1
 239 714 l 1xee80
 244 671 267 633 314 633 c 0xf5
 361 633 384 671 389 714 c 1
 449 714 l 1
 444 647 405 575 314 575 c 0xef
EndSplineSet
EndChar

StartChar: Edotaccent
Encoding: 278 278 94
Width: 600
Flags: MW
HStem: 0 84<210 531 210 531> 300 84<210 473 210 473> 571 84<210 521 210 210> 710 120<310 346.5>
VStem: 110 100<84 300 384 571> 264 128<753 788>
LayerCount: 2
Fore
SplineSet
110 0 m 1
 110 655 l 1
 521 655 l 1
 521 571 l 1
 210 571 l 1
 210 384 l 1
 473 384 l 1
 473 300 l 1
 210 300 l 1
 210 84 l 1
 531 84 l 1
 531 0 l 1
 110 0 l 1
328 710 m 0
 292 710 264 735 264 771 c 0
 264 805 292 830 328 830 c 0
 365 830 392 805 392 771 c 0
 392 735 365 710 328 710 c 0
EndSplineSet
EndChar

StartChar: edotaccent
Encoding: 279 279 271
Width: 600
Flags: MW
HStem: -12 78<294 367.5> 219 68<167 448 166 535 167 167> 423 78<280.5 359> 582 141<293 335>
VStem: 65 102<219 219 219 324> 240 148<630.5 673> 448 92<287 330.5>
LayerCount: 2
Fore
SplineSet
65 244 m 0
 65 404 188 501 315 501 c 0
 458 501 540 406 540 270 c 0
 540 250 537 231 535 219 c 1
 167 219 l 1
 173 123 245 66 343 66 c 0
 396 66 441 82 485 108 c 1
 520 45 l 1
 469 13 405 -12 330 -12 c 0
 183 -12 65 83 65 244 c 0
166 287 m 1
 448 287 l 1
 448 374 401 423 317 423 c 0
 244 423 179 374 166 287 c 1
314 582 m 0
 272 582 240 609 240 652 c 0
 240 694 272 723 314 723 c 0
 356 723 388 694 388 652 c 0
 388 609 356 582 314 582 c 0
EndSplineSet
EndChar

StartChar: Eogonek
Encoding: 280 280 103
Width: 600
GlyphClass: 2
Flags: MW
HStem: -215 68<471.5 475.5> 0 84<210 437 527 527 527 531> 300 84<210 473 210 473> 571 84<210 521 210 210>
VStem: 110 100<84 300 384 571> 361 76<-118 -98>
AnchorPoint: "Anchor-0" 315 677 basechar 0
LayerCount: 2
Fore
SplineSet
110 0 m 1
 110 655 l 1
 521 655 l 1
 521 571 l 1
 210 571 l 1
 210 384 l 1
 473 384 l 1
 473 300 l 1
 210 300 l 1
 210 84 l 1
 531 84 l 1
 531 0 l 1
 527 0 l 1
 481 -5 437 -52 437 -103 c 0
 437 -133 460 -147 483 -147 c 0
 498 -147 510 -141 522 -133 c 1
 548 -185 l 1
 527 -202 490 -215 461 -215 c 0
 406 -215 361 -184 361 -126 c 0
 361 -70 400 -23 437 0 c 1
 110 0 l 1
EndSplineSet
Ligature2: "'ccmp' Glyph Composition/Decomposition in Latin lookup 6 subtable" E uni0328
EndChar

StartChar: eogonek
Encoding: 281 281 280
Width: 600
GlyphClass: 2
Flags: MW
HStem: -207 63<438 441.5> -12 78<294 341.5> 219 68<167 448 166 535 167 167> 423 78<280.5 359>
VStem: 65 102<219 219 219 324> 335 69<-114.5 -94.5> 448 92<287 330.5>
AnchorPoint: "Anchor-0" 314 511 basechar 0
LayerCount: 2
Fore
SplineSet
485 108 m 1
 520 45 l 1
 429 -19 404 -57 404 -100 c 0
 404 -129 426 -144 450 -144 c 0
 465 -144 477 -139 489 -131 c 1
 512 -178 l 1
 492 -195 455 -207 428 -207 c 0
 375 -207 335 -178 335 -120 c 0
 335 -69 370 -26 399 -2 c 1
 371 -11 353 -12 330 -12 c 0
 183 -12 65 83 65 244 c 0
 65 404 188 501 315 501 c 0
 458 501 540 406 540 270 c 0
 540 250 537 231 535 219 c 1
 167 219 l 1
 173 123 245 66 343 66 c 0
 396 66 441 82 485 108 c 1
166 287 m 1
 448 287 l 1
 448 374 401 423 317 423 c 0
 244 423 179 374 166 287 c 1
EndSplineSet
Ligature2: "'ccmp' Glyph Composition/Decomposition in Latin lookup 6 subtable" e uni0328
EndChar

StartChar: Ecaron
Encoding: 282 282 90
Width: 600
Flags: MW
HStem: 0 84<210 531 210 531> 300 84<210 473 210 473> 571 84<210 521 210 210> 705 114<184 376 184 280>
VStem: 110 100<84 300 384 571>
LayerCount: 2
Fore
SplineSet
110 0 m 1
 110 655 l 1
 521 655 l 1
 521 571 l 1
 210 571 l 1
 210 384 l 1
 473 384 l 1
 473 300 l 1
 210 300 l 1
 210 84 l 1
 531 84 l 1
 531 0 l 1
 110 0 l 1
394 819 m 1
 472 819 l 1
 376 705 l 1
 280 705 l 1
 184 819 l 1
 263 819 l 1
 326 753 l 1
 330 753 l 1
 394 819 l 1
EndSplineSet
EndChar

StartChar: Gbreve
Encoding: 286 286 105
Width: 600
Flags: MW
HStem: -12 87<283.5 365 283.5 381> 265 82<324 445 324 537> 580 87<287.5 374> 706 54<310 352 310 372>
VStem: 51 103<250.5 406.5 250.5 433> 445 92<109 265 265 265>
LayerCount: 2
Fore
SplineSet
51 326 m 0
 51 540 175 667 344 667 c 0
 431 667 489 626 528 586 c 1
 472 523 l 1
 441 556 404 580 344 580 c 0
 231 580 154 484 154 329 c 0
 154 172 222 75 345 75 c 0
 385 75 423 88 445 109 c 1
 445 265 l 1
 324 265 l 1
 324 347 l 1
 537 347 l 1
 537 65 l 1
 494 23 423 -12 339 -12 c 0
 173 -12 51 111 51 326 c 0
331 706 m 0
 249 706 211 759 204 819 c 1
 263 819 l 1
 269 789 289 760 331 760 c 0
 373 760 394 789 400 819 c 1
 458 819 l 1
 451 759 413 706 331 706 c 0
EndSplineSet
EndChar

StartChar: Gdotaccent
Encoding: 288 288 106
Width: 600
Flags: MW
HStem: -12 87<283.5 365 283.5 381> 265 82<324 445 324 537> 580 87<287.5 374> 710 120<313 349>
VStem: 51 103<250.5 406.5 250.5 433> 267 128<753 788> 445 92<109 265 265 265>
LayerCount: 2
Fore
SplineSet
51 326 m 0
 51 540 175 667 344 667 c 0
 431 667 489 626 528 586 c 1
 472 523 l 1
 441 556 404 580 344 580 c 0
 231 580 154 484 154 329 c 0
 154 172 222 75 345 75 c 0
 385 75 423 88 445 109 c 1
 445 265 l 1
 324 265 l 1
 324 347 l 1
 537 347 l 1
 537 65 l 1
 494 23 423 -12 339 -12 c 0
 173 -12 51 111 51 326 c 0
331 710 m 0
 295 710 267 735 267 771 c 0
 267 805 295 830 331 830 c 0
 367 830 395 805 395 771 c 0
 395 735 367 710 331 710 c 0
EndSplineSet
EndChar

StartChar: gdotaccent
Encoding: 289 289 283
Width: 600
Flags: MW
HStem: -220 66<252.5 353 252.5 375.5> -11 80<274 280 280 366> -3 21G 155 64<278 318 262 343.5> 414 75<443 565 443 443> 431 70<262 304 237 318> 582 141<285.5 328>
VStem: 67 84<-99.5 -68.5> 93 95<296 357 292 379.5> 96 81<102 119> 233 148<630.5 673> 392 90<292 341 268.5 357> 472 95<-87.5 -43>
LayerCount: 2
Fore
SplineSet
151 -76 m 0xbb10
 151 -123 204 -154 301 -154 c 0
 405 -154 472 -111 472 -64 c 0
 472 -22 436 -11 366 -11 c 2
 280 -11 l 2xda88
 250 -11 226 -9 205 -3 c 1
 165 -26 151 -50 151 -76 c 0xbb10
67 -88 m 0
 67 -49 95 -11 146 18 c 1
 146 22 l 1
 120 37 96 62 96 103 c 0xba50
 96 135 118 170 155 195 c 1
 155 199 l 1
 121 224 93 267 93 325 c 0
 93 434 184 501 290 501 c 0xd690
 318 501 342 497 364 489 c 1
 565 489 l 1
 565 414 l 1
 443 414 l 1
 463 393 482 360 482 322 c 0xda90
 482 215 397 155 290 155 c 0
 266 155 238 160 211 171 c 1
 189 157 177 141 177 120 c 0
 177 84 212 69 274 69 c 2
 378 69 l 2
 505 69 567 35 567 -49 c 0xda48
 567 -142 460 -220 291 -220 c 0
 153 -220 67 -174 67 -88 c 0
290 219 m 0xd690
 346 219 392 259 392 325 c 0
 392 389 346 431 290 431 c 0
 234 431 188 389 188 325 c 0
 188 259 234 219 290 219 c 0xd690
307 582 m 0xdab0
 264 582 233 609 233 652 c 0
 233 694 264 723 307 723 c 0
 349 723 381 694 381 652 c 0
 381 609 349 582 307 582 c 0xdab0
EndSplineSet
Substitution2: "'ss03' Style Set 3 in Latin lookup 19 subtable" gdotaccent.a
Substitution2: "'aalt' Access All Alternates in Latin lookup 0 subtable" gdotaccent.a
EndChar

StartChar: uni0122
Encoding: 290 290 107
Width: 600
Flags: MW
HStem: -220 46<246 255> -12 87<283.5 365 283.5 381> 265 82<324 445 324 537> 580 87<287.5 374>
VStem: 51 103<250.5 406.5 250.5 433> 333 74<-143.5 -119> 445 92<109 265 265 265>
LayerCount: 2
Fore
SplineSet
51 326 m 0
 51 540 175 667 344 667 c 0
 431 667 489 626 528 586 c 1
 472 523 l 1
 441 556 404 580 344 580 c 0
 231 580 154 484 154 329 c 0
 154 172 222 75 345 75 c 0
 385 75 423 88 445 109 c 1
 445 265 l 1
 324 265 l 1
 324 347 l 1
 537 347 l 1
 537 65 l 1
 494 23 423 -12 339 -12 c 0
 173 -12 51 111 51 326 c 0
304 -46 m 1
 378 -56 407 -79 407 -125 c 0
 407 -186 335 -214 255 -220 c 1
 246 -174 l 1
 297 -168 333 -156 333 -131 c 0
 333 -107 313 -96 284 -89 c 1
 304 -46 l 1
EndSplineSet
EndChar

StartChar: uni0123
Encoding: 291 291 284
Width: 600
GlyphClass: 3
Flags: MW
HStem: -220 66<252.5 353 252.5 375.5> -11 80<274 280 280 366> -3 21G 155 64<278 318 262 343.5> 414 75<443 565 443 443> 431 70<262 304 237 318> 670 45<386 395> 695 20G<386 386>
VStem: 67 84<-99.5 -68.5> 93 95<296 357 292 379.5> 96 81<102 119> 233 75<614.5 639.5 614.5 651> 392 90<292 341 268.5 357> 472 95<-87.5 -43>
LayerCount: 2
Fore
SplineSet
151 -76 m 0xb998
 151 -123 204 -154 301 -154 c 0
 405 -154 472 -111 472 -64 c 0
 472 -22 436 -11 366 -11 c 2
 280 -11 l 2xd954
 250 -11 226 -9 205 -3 c 1
 165 -26 151 -50 151 -76 c 0xb998
67 -88 m 0
 67 -49 95 -11 146 18 c 1
 146 22 l 1
 120 37 96 62 96 103 c 0xb938
 96 135 118 170 155 195 c 1
 155 199 l 1
 121 224 93 267 93 325 c 0
 93 434 184 501 290 501 c 0xd558
 318 501 342 497 364 489 c 1
 565 489 l 1
 565 414 l 1
 443 414 l 1
 463 393 482 360 482 322 c 0xd958
 482 215 397 155 290 155 c 0
 266 155 238 160 211 171 c 1
 189 157 177 141 177 120 c 0
 177 84 212 69 274 69 c 2
 378 69 l 2
 505 69 567 35 567 -49 c 0xd934
 567 -142 460 -220 291 -220 c 0
 153 -220 67 -174 67 -88 c 0
290 219 m 0xd658
 346 219 392 259 392 325 c 0
 392 389 346 431 290 431 c 0
 234 431 188 389 188 325 c 0
 188 259 234 219 290 219 c 0xd658
336 542 m 1
 263 552 233 575 233 621 c 0
 233 681 306 709 386 715 c 1
 395 670 l 1
 344 664 308 652 308 627 c 0
 308 602 328 591 357 584 c 1
 336 542 l 1
EndSplineSet
Substitution2: "'ss03' Style Set 3 in Latin lookup 19 subtable" uni0123.a
Ligature2: "'ccmp' Glyph Composition/Decomposition in Latin lookup 6 subtable" g uni0327
Substitution2: "'aalt' Access All Alternates in Latin lookup 0 subtable" uni0123.a
EndChar

StartChar: Hcircumflex
Encoding: 292 292 111
Width: 600
Flags: MW
HStem: 0 21G<75 75 75 176 424 424 424 525> 299 87<176 424 176 424> 635 20G<75 176 176 176 424 525 525 525> 705 114<155 348 155 348 251 365 251 444>
VStem: 75 101<0 299 386 655> 424 101<0 299 299 299 386 655 0 655>
LayerCount: 2
Fore
SplineSet
75 0 m 1
 75 655 l 1
 176 655 l 1
 176 386 l 1
 424 386 l 1
 424 655 l 1
 525 655 l 1
 525 0 l 1
 424 0 l 1
 424 299 l 1
 176 299 l 1
 176 0 l 1
 75 0 l 1
234 705 m 1
 155 705 l 1
 251 819 l 1
 348 819 l 1
 444 705 l 1
 365 705 l 1
 302 771 l 1
 298 771 l 1
 234 705 l 1
EndSplineSet
EndChar

StartChar: hcircumflex
Encoding: 293 293 288
Width: 600
Flags: MW
HStem: 0 21G<88 88 88 187 428 428 428 527> 415 86<323 363> 689 20G<88 187 187 187> 749 114<2 194 2 194 98 212 98 290>
VStem: 88 99<0 337 521 709> 428 99<0 290 290 303 0 332.5>
LayerCount: 2
Fore
SplineSet
88 0 m 1
 88 709 l 1
 187 709 l 1
 187 521 l 1
 181 411 l 1
 230 461 285 501 361 501 c 0
 475 501 527 430 527 303 c 2
 527 0 l 1
 428 0 l 1
 428 290 l 2
 428 375 400 415 326 415 c 0
 274 415 237 389 187 337 c 1
 187 0 l 1
 88 0 l 1
81 749 m 1
 2 749 l 1
 98 863 l 1
 194 863 l 1
 290 749 l 1
 212 749 l 1
 148 815 l 1
 144 815 l 1
 81 749 l 1
EndSplineSet
EndChar

StartChar: Hbar
Encoding: 294 294 114
Width: 600
Flags: MW
HStem: 0 21G<75 176 75 75 424 525 424 424> 299 87<176 424 176 424> 490 53<8 75 176 424 525 592> 490 165<8 176 8 176 75 424 75 176>
VStem: 75 101<0 299 386 490 543 655> 424 101<0 299 299 299 386 490 0 490 543 655>
LayerCount: 2
Fore
SplineSet
424 386 m 1xdc
 424 490 l 1
 176 490 l 1
 176 386 l 1
 424 386 l 1xdc
592 543 m 1xec
 592 490 l 1
 525 490 l 1
 525 0 l 1
 424 0 l 1
 424 299 l 1
 176 299 l 1
 176 0 l 1
 75 0 l 1
 75 490 l 1
 8 490 l 1xdc
 8 538 l 1
 75 543 l 1xec
 75 655 l 1
 176 655 l 1xdc
 176 543 l 1
 424 543 l 1xec
 424 655 l 1
 525 655 l 1xdc
 525 543 l 1
 592 543 l 1xec
EndSplineSet
EndChar

StartChar: hbar
Encoding: 295 295 291
Width: 600
Flags: MW
HStem: 0 21G<88 187 88 88 428 527 428 428> 395 86<323 363> 567 54<16 88 187 391> 567 142<16 187 16 187 88 187 88 391>
VStem: 88 99<0 317 501 567 621 709> 428 99<0 270 270 283 0 312.5>
LayerCount: 2
Fore
SplineSet
187 501 m 1xdc
 181 391 l 1
 230 441 285 481 361 481 c 0
 475 481 527 410 527 283 c 2
 527 0 l 1
 428 0 l 1
 428 270 l 2
 428 355 400 395 326 395 c 0
 274 395 237 369 187 317 c 1
 187 0 l 1
 88 0 l 1
 88 567 l 1
 16 567 l 1xdc
 16 616 l 1
 88 621 l 1xec
 88 709 l 1
 187 709 l 1xdc
 187 621 l 1
 391 621 l 1xec
 391 567 l 1
 187 567 l 1
 187 501 l 1xdc
EndSplineSet
EndChar

StartChar: Itilde
Encoding: 296 296 118
Width: 600
Flags: MW
HStem: 0 84<90 250 90 250 350 510> 571 84<90 250 90 510 350 350 350 510> 709 65<340.5 367.5 340.5 385.5> 759 65<232.5 259.5>
VStem: 149 53<709 709> 250 100<84 571 84 571> 398 53<824 824>
LayerCount: 2
Fore
SplineSet
90 0 m 1xe6
 90 84 l 1
 250 84 l 1
 250 571 l 1
 90 571 l 1
 90 655 l 1
 510 655 l 1
 510 571 l 1
 350 571 l 1
 350 84 l 1
 510 84 l 1
 510 0 l 1
 90 0 l 1xe6
361 709 m 0
 308 709 277 759 242 759 c 0
 223 759 208 742 202 709 c 1
 149 709 l 1
 156 778 190 824 239 824 c 0xde
 292 824 323 774 358 774 c 0xe6
 377 774 392 791 398 824 c 1
 451 824 l 1xd6
 444 755 410 709 361 709 c 0
EndSplineSet
EndChar

StartChar: itilde
Encoding: 297 297 295
Width: 600
Flags: MW
HStem: 0 21G<306 405 306 306> 409 80<87 405 87 306> 578 64<386 412 386 428.5> 632 64<282.5 309>
VStem: 198 54<578 578> 306 99<0 409 409 409> 442 54<696 696>
LayerCount: 2
Fore
SplineSet
87 409 m 1xdc
 87 489 l 1
 405 489 l 1
 405 0 l 1
 306 0 l 1
 306 409 l 1
 87 409 l 1xdc
198 578 m 1
 206 650 238 696 293 696 c 0xdc
 342 696 371 642 401 642 c 0xee
 423 642 435 659 442 696 c 1
 496 696 l 1xde
 488 625 456 578 401 578 c 0xee
 352 578 325 632 293 632 c 0
 272 632 259 616 252 578 c 1
 198 578 l 1
EndSplineSet
EndChar

StartChar: imacron
Encoding: 299 299 297
Width: 600
Flags: MW
HStem: 0 21G<306 405 306 306> 409 80<87 405 87 306> 598 67<221 474 221 474>
VStem: 221 253<598 665 598 665> 306 99<0 409 409 409>
LayerCount: 2
Fore
SplineSet
87 409 m 1xe8
 87 489 l 1
 405 489 l 1
 405 0 l 1
 306 0 l 1
 306 409 l 1
 87 409 l 1xe8
221 598 m 1xf0
 221 665 l 1
 474 665 l 1
 474 598 l 1
 221 598 l 1xf0
EndSplineSet
EndChar

StartChar: uni012C
Encoding: 300 300 121
Width: 600
Flags: MW
HStem: 0 84<90 250 90 250 350 510> 571 84<90 250 90 510 350 350 350 510> 706 54<279 321 279 341>
VStem: 250 100<84 571 84 571>
LayerCount: 2
Fore
SplineSet
90 0 m 1
 90 84 l 1
 250 84 l 1
 250 571 l 1
 90 571 l 1
 90 655 l 1
 510 655 l 1
 510 571 l 1
 350 571 l 1
 350 84 l 1
 510 84 l 1
 510 0 l 1
 90 0 l 1
300 706 m 0
 218 706 180 759 173 819 c 1
 231 819 l 1
 237 789 258 760 300 760 c 0
 342 760 363 789 369 819 c 1
 427 819 l 1
 420 759 382 706 300 706 c 0
EndSplineSet
EndChar

StartChar: uni012D
Encoding: 301 301 298
Width: 600
Flags: MW
HStem: 0 21G<306 405 306 306> 409 80<87 405 87 306> 575 58<323.5 370.5 323.5 392.5> 575 139<213 392.5>
VStem: 213 59<714 714> 306 99<0 409 409 409> 423 59<714 714>
LayerCount: 2
Fore
SplineSet
87 409 m 1xdc
 87 489 l 1
 405 489 l 1
 405 0 l 1
 306 0 l 1
 306 409 l 1
 87 409 l 1xdc
347 575 m 0
 256 575 217 647 213 714 c 1
 272 714 l 1xdc
 277 671 300 633 347 633 c 0xee
 394 633 417 671 423 714 c 1
 482 714 l 1xde
 477 647 438 575 347 575 c 0
EndSplineSet
EndChar

StartChar: Iogonek
Encoding: 302 302 126
Width: 600
GlyphClass: 2
Flags: MW
HStem: -215 68<316.5 321.5> 0 84<90 250 90 250 90 275 350 510> 571 84<90 250 90 510 350 350 350 510>
VStem: 207 75<-118 -96.5> 250 100<84 571>
AnchorPoint: "Anchor-0" 300 677 basechar 0
LayerCount: 2
Fore
SplineSet
90 0 m 1x68
 90 84 l 1
 250 84 l 1
 250 571 l 1
 90 571 l 1
 90 655 l 1
 510 655 l 1
 510 571 l 1
 350 571 l 1
 350 84 l 1x68
 510 84 l 1
 510 0 l 1
 350 0 l 1
 305 -29 282 -63 282 -103 c 0
 282 -133 305 -147 328 -147 c 0
 344 -147 357 -141 368 -133 c 1
 393 -185 l 1
 372 -202 336 -215 307 -215 c 0
 251 -215 207 -184 207 -126 c 0
 207 -67 244 -27 275 0 c 1xf0
 90 0 l 1x68
EndSplineSet
Ligature2: "'ccmp' Glyph Composition/Decomposition in Latin lookup 6 subtable" I uni0328
EndChar

StartChar: iogonek
Encoding: 303 303 302
Width: 600
GlyphClass: 3
Flags: MW
HStem: -207 63<372 375.5> 0 21G<306 306 306 331 405 405> 409 80<87 306 87 405> 582 141<326 368>
VStem: 268 70<-114.5 -93> 273 148<630.5 673> 306 99<0 409 409 409>
LayerCount: 2
Fore
SplineSet
306 0 m 1xf2
 306 409 l 1
 87 409 l 1
 87 489 l 1
 405 489 l 1
 405 0 l 1xf2
 362 -26 338 -63 338 -100 c 0
 338 -129 360 -144 384 -144 c 0
 399 -144 410 -139 423 -131 c 1
 446 -178 l 1
 426 -195 389 -207 362 -207 c 0
 309 -207 268 -178 268 -120 c 0
 268 -66 304 -26 331 0 c 1xf8
 306 0 l 1xf2
347 582 m 0xf4
 305 582 273 609 273 652 c 0
 273 694 305 723 347 723 c 0
 389 723 421 694 421 652 c 0
 421 609 389 582 347 582 c 0xf4
EndSplineSet
Substitution2: "Single Substitution lookup 22 subtable" iogonek.d
Ligature2: "'ccmp' Glyph Composition/Decomposition in Latin lookup 6 subtable" i uni0328
EndChar

StartChar: Idotaccent
Encoding: 304 304 122
Width: 600
Flags: MW
HStem: 0 84<90 250 90 250 350 510> 571 84<90 250 90 510 350 350 350 510> 710 120<282 318>
VStem: 236 128<753 788> 250 100<84 571 84 571>
LayerCount: 2
Fore
SplineSet
90 0 m 1xc8
 90 84 l 1
 250 84 l 1
 250 571 l 1
 90 571 l 1
 90 655 l 1
 510 655 l 1
 510 571 l 1
 350 571 l 1
 350 84 l 1
 510 84 l 1
 510 0 l 1
 90 0 l 1xc8
300 710 m 0xf0
 264 710 236 735 236 771 c 0
 236 805 264 830 300 830 c 0
 336 830 364 805 364 771 c 0
 364 735 336 710 300 710 c 0xf0
EndSplineSet
EndChar

StartChar: dotlessi
Encoding: 305 305 304
Width: 600
GlyphClass: 2
Flags: MW
HStem: 0 21G<306 405 306 306> 409 80<87 405 87 306>
VStem: 306 99<0 409 409 409>
AnchorPoint: "Anchor-4" 387 0 basechar 0
AnchorPoint: "Anchor-2" 355 -22 basechar 0
AnchorPoint: "Anchor-0" 355 511 basechar 0
LayerCount: 2
Fore
SplineSet
87 409 m 1
 87 489 l 1
 405 489 l 1
 405 0 l 1
 306 0 l 1
 306 409 l 1
 87 409 l 1
EndSplineSet
EndChar

StartChar: Jcircumflex
Encoding: 308 308 127
Width: 600
Flags: MW
HStem: -12 87<248.5 316 248.5 359> 572 84<130 399 130 499> 705 114<177 369 177 369 273 386 273 465>
VStem: 399 100<221 572 572 572>
LayerCount: 2
Fore
SplineSet
75 97 m 1
 138 157 l 1
 175 102 224 75 273 75 c 0
 359 75 399 118 399 221 c 2
 399 572 l 1
 130 572 l 1
 130 656 l 1
 499 656 l 1
 499 213 l 2
 499 89 443 -12 275 -12 c 0
 202 -12 123 20 75 97 c 1
256 705 m 1
 177 705 l 1
 273 819 l 1
 369 819 l 1
 465 705 l 1
 386 705 l 1
 323 771 l 1
 319 771 l 1
 256 705 l 1
EndSplineSet
EndChar

StartChar: jcircumflex
Encoding: 309 309 305
Width: 600
Flags: MW
HStem: -212 80<173.5 236 173.5 275.5> 409 80<87 405 87 306> 573 153<207 389 207 389 305 413 305 487>
VStem: 306 99<-7 -1 -1 409 409 409>
LayerCount: 2
Fore
SplineSet
87 409 m 1
 87 489 l 1
 405 489 l 1
 405 -1 l 2
 405 -121 357 -212 194 -212 c 0
 141 -212 91 -198 52 -179 c 1
 83 -106 l 1
 119 -123 156 -132 191 -132 c 0
 281 -132 306 -87 306 -7 c 2
 306 409 l 1
 87 409 l 1
207 573 m 1
 305 726 l 1
 389 726 l 1
 487 573 l 1
 413 573 l 1
 349 671 l 1
 345 671 l 1
 282 573 l 1
 207 573 l 1
EndSplineSet
EndChar

StartChar: uni0136
Encoding: 310 310 128
Width: 600
Flags: MW
HStem: -220 46<244 253> 0 21G<90 90 90 191 472 472 472 583> 635 20G<90 191 191 191 448 560 560 560>
VStem: 90 101<0 199 342 655> 332 74<-143.5 -119>
LayerCount: 2
Fore
SplineSet
90 0 m 1
 90 655 l 1
 191 655 l 1
 191 342 l 1
 194 342 l 1
 448 655 l 1
 560 655 l 1
 357 402 l 1
 583 0 l 1
 472 0 l 1
 296 324 l 1
 191 199 l 1
 191 0 l 1
 90 0 l 1
303 -46 m 1
 376 -56 406 -79 406 -125 c 0
 406 -186 334 -214 253 -220 c 1
 244 -174 l 1
 296 -168 332 -156 332 -131 c 0
 332 -107 311 -96 282 -89 c 1
 303 -46 l 1
EndSplineSet
EndChar

StartChar: uni0137
Encoding: 311 311 306
Width: 600
Flags: MW
HStem: -220 46<243 252> 0 21G<98 98 98 197 468 468 468 577> 469 20G<442 553 553 553> 689 20G<98 197 197 197>
VStem: 98 99<0 130 247 709> 330 75<-143.5 -119>
LayerCount: 2
Fore
SplineSet
98 0 m 1
 98 709 l 1
 197 709 l 1
 197 247 l 1
 201 247 l 1
 442 489 l 1
 553 489 l 1
 362 293 l 1
 577 0 l 1
 468 0 l 1
 301 232 l 1
 197 130 l 1
 197 0 l 1
 98 0 l 1
302 -46 m 1
 375 -56 405 -79 405 -125 c 0
 405 -186 332 -214 252 -220 c 1
 243 -174 l 1
 294 -168 330 -156 330 -131 c 0
 330 -107 310 -96 281 -89 c 1
 302 -46 l 1
EndSplineSet
EndChar

StartChar: kgreenlandic
Encoding: 312 312 307
Width: 600
Flags: MW
HStem: 0 21G<98 98 98 197 468 468 468 577> 469 20G<98 197 197 197 442 553 553 553>
VStem: 98 99<0 128 248 489>
LayerCount: 2
Fore
SplineSet
98 0 m 1
 98 489 l 1
 197 489 l 1
 197 248 l 1
 200 249 l 1
 442 489 l 1
 553 489 l 1
 362 293 l 1
 577 0 l 1
 468 0 l 1
 302 228 l 1
 197 128 l 1
 197 0 l 1
 98 0 l 1
EndSplineSet
EndChar

StartChar: Lacute
Encoding: 313 313 129
Width: 600
Flags: MW
HStem: 0 84<226 541 226 541> 635 20G<127 226 226 226> 705 114<134 330 134 330>
VStem: 127 99<84 655 84 655 84 655>
LayerCount: 2
Fore
SplineSet
127 0 m 1
 127 655 l 1
 226 655 l 1
 226 84 l 1
 541 84 l 1
 541 0 l 1
 127 0 l 1
330 819 m 1
 216 705 l 1
 134 705 l 1
 220 819 l 1
 330 819 l 1
EndSplineSet
EndChar

StartChar: lacute
Encoding: 314 314 308
Width: 600
Flags: MW
HStem: -12 81<400 431> 630 79<76 335 76 236> 758 114<216 412 216 412>
VStem: 236 99<171 630 630 630>
LayerCount: 2
Fore
SplineSet
76 630 m 1
 76 709 l 1
 335 709 l 1
 335 165 l 2
 335 97 373 69 427 69 c 0
 453 69 480 76 515 90 c 1
 539 16 l 1
 493 1 459 -12 403 -12 c 0
 294 -12 236 53 236 171 c 2
 236 630 l 1
 76 630 l 1
412 872 m 1
 298 758 l 1
 216 758 l 1
 302 872 l 1
 412 872 l 1
EndSplineSet
EndChar

StartChar: uni013B
Encoding: 315 315 131
Width: 600
Flags: MW
HStem: -220 46<253 262> 0 84<226 541 226 541> 635 20G<127 226 226 226>
VStem: 127 99<84 655 84 655 84 655> 340 75<-143.5 -119>
LayerCount: 2
Fore
SplineSet
127 0 m 1
 127 655 l 1
 226 655 l 1
 226 84 l 1
 541 84 l 1
 541 0 l 1
 127 0 l 1
312 -46 m 1
 385 -56 415 -79 415 -125 c 0
 415 -186 342 -214 262 -220 c 1
 253 -174 l 1
 304 -168 340 -156 340 -131 c 0
 340 -107 320 -96 291 -89 c 1
 312 -46 l 1
EndSplineSet
EndChar

StartChar: uni013C
Encoding: 316 316 311
Width: 600
Flags: MW
HStem: -220 46<279 288> -12 81<400 431> 630 79<76 335 76 236>
VStem: 236 99<171 630 630 630> 366 75<-143.5 -119>
LayerCount: 2
Fore
SplineSet
76 630 m 1
 76 709 l 1
 335 709 l 1
 335 165 l 2
 335 97 373 69 427 69 c 0
 453 69 480 76 515 90 c 1
 539 16 l 1
 493 1 459 -12 403 -12 c 0
 294 -12 236 53 236 171 c 2
 236 630 l 1
 76 630 l 1
337 -46 m 1
 411 -56 441 -79 441 -125 c 0
 441 -186 368 -214 288 -220 c 1
 279 -174 l 1
 330 -168 366 -156 366 -131 c 0
 366 -107 346 -96 317 -89 c 1
 337 -46 l 1
EndSplineSet
EndChar

StartChar: Lcaron
Encoding: 317 317 130
Width: 600
Flags: MW
HStem: 0 84<226 541 226 541> 513 215<389 435 389 389> 635 20G<127 226 226 226>
VStem: 127 99<84 655 84 655 84 655> 387 65.5
LayerCount: 2
Fore
SplineSet
127 0 m 1xb8
 127 655 l 1
 226 655 l 1
 226 84 l 1
 541 84 l 1
 541 0 l 1
 127 0 l 1xb8
435 513 m 1xd8
 389 513 l 1
 385 728 l 1
 453 728 l 1
 452 667 l 1
 435 513 l 1xd8
EndSplineSet
EndChar

StartChar: lcaron
Encoding: 318 318 309
Width: 600
GlyphClass: 3
Flags: MW
HStem: -12 81<400 431> 548 215<405 451 405 405> 630 79<76 335 76 236>
VStem: 236 99<171 630 630 630> 403 65.5
LayerCount: 2
Fore
SplineSet
76 630 m 1xb8
 76 709 l 1
 335 709 l 1
 335 165 l 2
 335 97 373 69 427 69 c 0
 453 69 480 76 515 90 c 1
 539 16 l 1
 493 1 459 -12 403 -12 c 0
 294 -12 236 53 236 171 c 2
 236 630 l 1
 76 630 l 1xb8
451 548 m 1xd8
 405 548 l 1
 401 763 l 1
 469 763 l 1
 468 702 l 1
 451 548 l 1xd8
EndSplineSet
Ligature2: "'ccmp' Glyph Composition/Decomposition in Latin lookup 6 subtable" l uni030C
EndChar

StartChar: Ldot
Encoding: 319 319 132
Width: 600
Flags: MW
HStem: 0 84<226 541 226 541> 279 141<415 457.5> 635 20G<127 226 226 226>
VStem: 127 99<84 655 84 655 84 655> 362 148<327.5 370>
LayerCount: 2
Fore
SplineSet
127 0 m 1
 127 655 l 1
 226 655 l 1
 226 84 l 1
 541 84 l 1
 541 0 l 1
 127 0 l 1
436 279 m 0
 394 279 362 306 362 349 c 0
 362 391 394 420 436 420 c 0
 479 420 510 391 510 349 c 0
 510 306 479 279 436 279 c 0
EndSplineSet
EndChar

StartChar: ldot
Encoding: 320 320 310
Width: 600
Flags: MW
HStem: -12 81<358 389.5> 278 141<425 467> 630 79<34 294 34 195>
VStem: 195 99<171 630 630 630> 372 148<326.5 369>
LayerCount: 2
Fore
SplineSet
34 630 m 1
 34 709 l 1
 294 709 l 1
 294 165 l 2
 294 97 331 69 385 69 c 0
 412 69 438 76 473 90 c 1
 497 16 l 1
 451 1 417 -12 362 -12 c 0
 253 -12 195 53 195 171 c 2
 195 630 l 1
 34 630 l 1
446 278 m 0
 404 278 372 305 372 348 c 0
 372 390 404 419 446 419 c 0
 488 419 520 390 520 348 c 0
 520 305 488 278 446 278 c 0
EndSplineSet
EndChar

StartChar: Lslash
Encoding: 321 321 136
Width: 600
Flags: MW
HStem: 0 84<226 541 226 541> 635 20G<127 226 226 226>
VStem: 127 99<84 84 84 220 220 220 347 655>
LayerCount: 2
Fore
SplineSet
226 84 m 1
 541 84 l 1
 541 0 l 1
 127 0 l 1
 127 220 l 1
 48 177 l 1
 48 256 l 1
 127 299 l 1
 127 655 l 1
 226 655 l 1
 226 347 l 1
 446 466 l 1
 446 386 l 1
 226 268 l 1
 226 84 l 1
EndSplineSet
EndChar

StartChar: lslash
Encoding: 322 322 315
Width: 600
Flags: MW
HStem: -12 81<400 431> 630 79<76 236 76 335>
VStem: 236 99<171 318 318 318 450 630 630 630>
LayerCount: 2
Fore
SplineSet
515 90 m 1
 539 16 l 1
 493 1 459 -12 403 -12 c 0
 294 -12 236 53 236 171 c 2
 236 318 l 1
 115 248 l 1
 115 331 l 1
 236 400 l 1
 236 630 l 1
 76 630 l 1
 76 709 l 1
 335 709 l 1
 335 450 l 1
 494 539 l 1
 494 456 l 1
 335 368 l 1
 335 165 l 2
 335 97 373 69 427 69 c 0
 453 69 480 76 515 90 c 1
EndSplineSet
EndChar

StartChar: Nacute
Encoding: 323 323 138
Width: 600
Flags: MW
HStem: 0 21G<79 79 79 174 420 420 420 521> 0 128<420 440 437 440 437 521> 527 128<160 163 160 160> 635 20G<79 180 180 180 426 521 521 521> 705 114<249 445 249 445>
VStem: 79 95<0 314 0 655> 426 95<343 655 0 655>
LayerCount: 2
Fore
SplineSet
79 0 m 1x9e
 79 655 l 1
 180 655 l 1
 374 264 l 1
 437 128 l 1
 440 128 l 1x5e
 436 194 426 273 426 343 c 2
 426 655 l 1
 521 655 l 1
 521 0 l 1
 420 0 l 1
 226 391 l 1
 163 527 l 1
 160 527 l 1xae
 164 459 174 385 174 314 c 2
 174 0 l 1
 79 0 l 1x9e
445 819 m 1
 330 705 l 1
 249 705 l 1
 335 819 l 1
 445 819 l 1
EndSplineSet
EndChar

StartChar: uni0145
Encoding: 325 325 141
Width: 600
Flags: MW
HStem: -220 46<211 219> 0 21G<79 79 79 174 420 420 420 521> 0 128<420 440 437 440 437 521> 527 128<160 163 160 160> 635 20G<79 180 180 180 426 521 521 521>
VStem: 79 95<0 314 0 655> 298 74<-143.5 -119> 426 95<343 655 0 655>
LayerCount: 2
Fore
SplineSet
79 0 m 1xcd
 79 655 l 1
 180 655 l 1
 374 264 l 1
 437 128 l 1
 440 128 l 1xaf
 436 194 426 273 426 343 c 2
 426 655 l 1
 521 655 l 1
 521 0 l 1
 420 0 l 1
 226 391 l 1
 163 527 l 1
 160 527 l 1xd5
 164 459 174 385 174 314 c 2
 174 0 l 1
 79 0 l 1xcd
269 -46 m 1
 343 -56 372 -79 372 -125 c 0
 372 -186 300 -214 219 -220 c 1
 211 -174 l 1
 262 -168 298 -156 298 -131 c 0
 298 -107 277 -96 249 -89 c 1
 269 -46 l 1
EndSplineSet
EndChar

StartChar: uni0146
Encoding: 326 326 320
Width: 600
Flags: MW
HStem: -220 46<222 231> 0 21G<88 88 88 187 428 428 428 527> 415 86<323 363> 469 20G<88 169 169 169>
VStem: 88 99<0 337 0 489> 309 75<-143.5 -119> 428 99<0 290 290 303 0 332.5>
LayerCount: 2
Fore
SplineSet
88 0 m 1xea
 88 489 l 1
 169 489 l 1xde
 177 410 l 1
 181 410 l 1
 230 461 285 501 361 501 c 0
 475 501 527 430 527 303 c 2
 527 0 l 1
 428 0 l 1
 428 290 l 2
 428 375 400 415 326 415 c 0
 274 415 237 389 187 337 c 1
 187 0 l 1
 88 0 l 1xea
280 -46 m 1
 354 -56 384 -79 384 -125 c 0
 384 -186 311 -214 231 -220 c 1
 222 -174 l 1
 273 -168 309 -156 309 -131 c 0
 309 -107 289 -96 260 -89 c 1
 280 -46 l 1
EndSplineSet
EndChar

StartChar: ncaron
Encoding: 328 328 318
Width: 600
Flags: MW
HStem: 0 21G<88 88 88 187 428 428 428 527> 415 86<323 363> 469 20G<88 169 169 169> 573 153<177 275 177 359>
VStem: 88 99<0 337 0 489> 428 99<0 290 290 303 0 332.5>
LayerCount: 2
Fore
SplineSet
88 0 m 1xdc
 88 489 l 1
 169 489 l 1xbc
 177 410 l 1
 181 410 l 1
 230 461 285 501 361 501 c 0
 475 501 527 430 527 303 c 2
 527 0 l 1
 428 0 l 1
 428 290 l 2
 428 375 400 415 326 415 c 0
 274 415 237 389 187 337 c 1
 187 0 l 1
 88 0 l 1xdc
275 573 m 1
 177 726 l 1
 252 726 l 1
 315 628 l 1
 319 628 l 1
 383 726 l 1
 457 726 l 1
 359 573 l 1
 275 573 l 1
EndSplineSet
EndChar

StartChar: napostrophe
Encoding: 329 329 324
Width: 600
Flags: MW
HStem: 0 21G<201 300 201 201 511 610 511 511> 415 86<423.5 454> 469 20G<201 283 283 283> 538 160<34 57>
VStem: 78 76 201 99<0 342 0 489> 511 99<0 295 295 308 0 336>
LayerCount: 2
Fore
SplineSet
2 334 m 1xde
 -28 390 l 1
 36 424 74 475 78 543 c 1
 70 540 61 538 53 538 c 0
 9 538 -23 569 -23 615 c 0
 -23 664 11 698 57 698 c 0
 115 698 154 650 154 567 c 0
 154 465 99 382 2 334 c 1xde
291 415 m 1
 295 415 l 1
 340 463 389 501 458 501 c 0
 561 501 610 432 610 308 c 2
 610 0 l 1
 511 0 l 1
 511 295 l 2
 511 377 485 415 423 415 c 0
 377 415 346 391 300 342 c 1xde
 300 0 l 1
 201 0 l 1
 201 489 l 1
 283 489 l 1xbe
 291 415 l 1
EndSplineSet
EndChar

StartChar: omacron
Encoding: 333 333 330
Width: 600
Flags: MW
HStem: -12 81<256.5 343.5 256.5 364> 419 82<256.5 343.5> 598 67<173 427 173 427>
VStem: 56 102<191.5 296.5 191.5 325.5> 173 254<598 665 598 665> 442 102<191.5 296.5>
LayerCount: 2
Fore
SplineSet
56 244 m 0
 56 407 172 501 300 501 c 0
 428 501 544 407 544 244 c 0
 544 82 428 -12 300 -12 c 0
 172 -12 56 82 56 244 c 0
158 244 m 0
 158 139 213 69 300 69 c 0
 387 69 442 139 442 244 c 0
 442 349 387 419 300 419 c 0
 213 419 158 349 158 244 c 0
173 598 m 1xfc
 173 665 l 1
 427 665 l 1
 427 598 l 1
 173 598 l 1xfc
EndSplineSet
EndChar

StartChar: uni014E
Encoding: 334 334 151
Width: 600
Flags: MW
HStem: -12 87<254.5 345.5 254.5 375> 580 87<254.5 345.5> 706 54<279 321 279 341>
VStem: 45 103<252.5 407.5 252.5 435.5> 452 103<252.5 407.5>
LayerCount: 2
Fore
SplineSet
300 -12 m 0
 150 -12 45 119 45 330 c 0
 45 541 150 667 300 667 c 0
 450 667 555 540 555 330 c 0
 555 119 450 -12 300 -12 c 0
300 75 m 0
 391 75 452 175 452 330 c 0
 452 485 391 580 300 580 c 0
 209 580 148 485 148 330 c 0
 148 175 209 75 300 75 c 0
300 706 m 0
 218 706 180 759 173 819 c 1
 231 819 l 1
 237 789 258 760 300 760 c 0
 342 760 363 789 369 819 c 1
 427 819 l 1
 420 759 382 706 300 706 c 0
EndSplineSet
EndChar

StartChar: uni014F
Encoding: 335 335 331
Width: 600
Flags: MW
HStem: -12 81<256.5 343.5 256.5 364> 419 82<256.5 343.5> 575 58<276.5 323.5 276.5 345.5> 575 139<166 345.5>
VStem: 56 102<191.5 296.5 191.5 325.5> 166 59<714 714> 375 59<714 714> 442 102<191.5 296.5>
LayerCount: 2
Fore
SplineSet
56 244 m 0xd9
 56 407 172 501 300 501 c 0
 428 501 544 407 544 244 c 0
 544 82 428 -12 300 -12 c 0
 172 -12 56 82 56 244 c 0xd9
158 244 m 0
 158 139 213 69 300 69 c 0
 387 69 442 139 442 244 c 0
 442 349 387 419 300 419 c 0
 213 419 158 349 158 244 c 0
300 575 m 0xdf
 209 575 170 647 166 714 c 1
 225 714 l 1xdd
 230 671 253 633 300 633 c 0xeb
 347 633 370 671 375 714 c 1
 434 714 l 1
 430 647 391 575 300 575 c 0xdf
EndSplineSet
EndChar

StartChar: Ohungarumlaut
Encoding: 336 336 152
Width: 600
Flags: MW
HStem: -12 87<254.5 345.5 254.5 375> 580 87<254.5 345.5> 705 114<249 254 184 338 412 417 249 347>
VStem: 45 103<252.5 407.5 252.5 435.5> 452 103<252.5 407.5>
LayerCount: 2
Fore
SplineSet
300 -12 m 0
 150 -12 45 119 45 330 c 0
 45 541 150 667 300 667 c 0
 450 667 555 540 555 330 c 0
 555 119 450 -12 300 -12 c 0
300 75 m 0
 391 75 452 175 452 330 c 0
 452 485 391 580 300 580 c 0
 209 580 148 485 148 330 c 0
 148 175 209 75 300 75 c 0
254 705 m 1
 184 705 l 1
 249 819 l 1
 338 819 l 1
 254 705 l 1
347 705 m 1
 412 819 l 1
 502 819 l 1
 417 705 l 1
 347 705 l 1
EndSplineSet
EndChar

StartChar: ohungarumlaut
Encoding: 337 337 332
Width: 600
Flags: MW
HStem: -12 81<256.5 343.5 256.5 364> 419 82<256.5 343.5> 572 145<195 349 195 349 348 349 265 412 348 348>
VStem: 56 102<191.5 296.5 191.5 325.5> 442 102<191.5 296.5>
LayerCount: 2
Fore
SplineSet
56 244 m 0
 56 407 172 501 300 501 c 0
 428 501 544 407 544 244 c 0
 544 82 428 -12 300 -12 c 0
 172 -12 56 82 56 244 c 0
158 244 m 0
 158 139 213 69 300 69 c 0
 387 69 442 139 442 244 c 0
 442 349 387 419 300 419 c 0
 213 419 158 349 158 244 c 0
195 572 m 1
 265 717 l 1
 349 717 l 1
 259 572 l 1
 195 572 l 1
348 572 m 1
 418 717 l 1
 502 717 l 1
 412 572 l 1
 348 572 l 1
EndSplineSet
EndChar

StartChar: OE
Encoding: 338 338 162
Width: 600
GlyphClass: 2
Flags: MW
HStem: 0 81<286 294 294 306 286 592> 0 84<397 592 397 592> 300 84<397 538 397 538> 572 84<397 582 397 397>
VStem: 29 103<248 412.5 248 436.5> 306 91<84 300 384 572>
AnchorPoint: "Anchor-0" 404 677 basechar 0
LayerCount: 2
Fore
SplineSet
29 330 m 0x7c
 29 543 134 656 298 656 c 2
 582 656 l 1
 582 572 l 1
 397 572 l 1
 397 384 l 1
 538 384 l 1
 538 300 l 1
 397 300 l 1
 397 84 l 1
 592 84 l 1
 592 0 l 1
 294 0 l 2
 132 0 29 118 29 330 c 0x7c
132 330 m 0xbc
 132 166 184 81 286 81 c 2
 306 81 l 1
 306 574 l 1
 286 574 l 2
 184 574 132 495 132 330 c 0xbc
EndSplineSet
EndChar

StartChar: oe
Encoding: 339 339 342
Width: 600
GlyphClass: 2
Flags: MW
HStem: -12 80<164.5 219.5> 219 63<355 515 354 591 355 355> 420 81<164.5 220.5 140 221.5> 423 78<421.5 471>
VStem: 11 91<192 296.5 192 325.5> 282 72<282 282 282 296.5> 515 80<282 319.5>
AnchorPoint: "Anchor-0" 318 511 basechar 0
LayerCount: 2
Fore
SplineSet
102 244 m 0xee
 102 140 134 68 195 68 c 0
 248 68 282 140 282 244 c 0
 282 349 248 420 195 420 c 0
 134 420 102 349 102 244 c 0xee
11 244 m 0
 11 407 90 501 190 501 c 0
 251 501 296 460 322 392 c 1
 349 460 392 501 451 501 c 0
 545 501 595 397 595 274 c 0
 595 253 594 240 591 219 c 1
 355 219 l 1
 362 126 399 67 464 67 c 0
 496 67 520 79 547 97 c 1
 581 32 l 1
 548 7 505 -12 461 -12 c 0
 401 -12 351 24 323 91 c 1
 294 24 250 -12 189 -12 c 0
 88 -12 11 82 11 244 c 0
354 282 m 1
 515 282 l 1
 515 357 498 423 444 423 c 0xde
 391 423 361 371 354 282 c 1
EndSplineSet
EndChar

StartChar: racute
Encoding: 341 341 350
Width: 600
Flags: MW
HStem: 0 21G<138 138 138 237> 412 89<400.5 447.5> 469 20G<138 220 220 220> 481 20 573 153<272 467 272 467>
VStem: 138 99<0 278 0 489>
LayerCount: 2
Fore
SplineSet
138 0 m 1xcc
 138 489 l 1
 220 489 l 1xac
 228 375 l 1
 231 375 l 1
 281 454 357 501 444 501 c 0xcc
 482 501 510 495 540 481 c 1x9c
 518 396 l 1
 485 407 466 412 429 412 c 0
 359 412 291 376 237 278 c 1
 237 0 l 1
 138 0 l 1xcc
467 726 m 1
 346 573 l 1
 272 573 l 1
 362 726 l 1
 467 726 l 1
EndSplineSet
EndChar

StartChar: uni0156
Encoding: 342 342 172
Width: 600
Flags: MW
HStem: -220 46<231 239> 0 21G<92 192 92 92 448 561 448 448> 266 81<192 291 291 299 192 291> 575 80<192 192 192 291>
VStem: 92 100<0 266 347 575> 318 74<-143.5 -119> 439 99<426 506>
LayerCount: 2
Fore
SplineSet
269 -89 m 1
 289 -46 l 1
 363 -56 392 -79 392 -125 c 0
 392 -186 320 -214 239 -220 c 1
 231 -174 l 1
 282 -168 318 -156 318 -131 c 0
 318 -107 297 -96 269 -89 c 1
192 575 m 1
 192 347 l 1
 291 347 l 2
 387 347 439 386 439 466 c 0
 439 546 387 575 291 575 c 2
 192 575 l 1
400 279 m 1
 561 0 l 1
 448 0 l 1
 299 266 l 1
 192 266 l 1
 192 0 l 1
 92 0 l 1
 92 655 l 1
 303 655 l 2
 438 655 538 607 538 466 c 0
 538 365 483 304 400 279 c 1
EndSplineSet
EndChar

StartChar: uni0157
Encoding: 343 343 351
Width: 600
Flags: MW
HStem: -220 46<111 120> 0 21G<138 138 138 237> 412 89<400.5 447.5> 469 20G<138 220 220 220> 481 20
VStem: 138 99<0 278 0 489> 199 74<-143.5 -119>
LayerCount: 2
Fore
SplineSet
138 0 m 1xe4
 138 489 l 1
 220 489 l 1xd4
 228 375 l 1
 231 375 l 1
 281 454 357 501 444 501 c 0xe4
 482 501 510 495 540 481 c 1xcc
 518 396 l 1
 485 407 466 412 429 412 c 0
 359 412 291 376 237 278 c 1
 237 0 l 1
 138 0 l 1xe4
170 -46 m 1xe2
 243 -56 273 -79 273 -125 c 0
 273 -186 201 -214 120 -220 c 1
 111 -174 l 1
 163 -168 199 -156 199 -131 c 0
 199 -107 178 -96 149 -89 c 1
 170 -46 l 1xe2
EndSplineSet
EndChar

StartChar: Rcaron
Encoding: 344 344 171
Width: 600
Flags: MW
HStem: 0 21G<92 192 92 92 448 561 448 448> 266 81<192 291 291 299 192 291> 575 80<192 192 192 291> 705 114<160 352 160 256>
VStem: 92 100<0 266 347 575> 439 99<426 506>
LayerCount: 2
Fore
SplineSet
352 705 m 1
 256 705 l 1
 160 819 l 1
 239 819 l 1
 302 753 l 1
 306 753 l 1
 369 819 l 1
 448 819 l 1
 352 705 l 1
192 575 m 1
 192 347 l 1
 291 347 l 2
 387 347 439 386 439 466 c 0
 439 546 387 575 291 575 c 2
 192 575 l 1
561 0 m 1
 448 0 l 1
 299 266 l 1
 192 266 l 1
 192 0 l 1
 92 0 l 1
 92 655 l 1
 303 655 l 2
 438 655 538 607 538 466 c 0
 538 365 483 304 400 279 c 1
 561 0 l 1
EndSplineSet
EndChar

StartChar: rcaron
Encoding: 345 345 352
Width: 600
Flags: MW
HStem: 0 21G<138 138 138 237> 412 89<400.5 447.5> 469 20G<138 220 220 220> 481 20 573 153<201 299 201 383>
VStem: 138 99<0 278 0 489>
LayerCount: 2
Fore
SplineSet
138 0 m 1xcc
 138 489 l 1
 220 489 l 1xac
 228 375 l 1
 231 375 l 1
 281 454 357 501 444 501 c 0xcc
 482 501 510 495 540 481 c 1x9c
 518 396 l 1
 485 407 466 412 429 412 c 0
 359 412 291 376 237 278 c 1
 237 0 l 1
 138 0 l 1xcc
299 573 m 1
 201 726 l 1
 276 726 l 1
 339 628 l 1
 343 628 l 1
 407 726 l 1
 481 726 l 1
 383 573 l 1
 299 573 l 1
EndSplineSet
EndChar

StartChar: sacute
Encoding: 347 347 356
Width: 600
Flags: MW
HStem: -12 76<268.5 350.5> 425 76<265.5 336> 573 153<236 431 236 431>
VStem: 96 100<344.5 380.5 344.5 399> 430 100<112 149>
LayerCount: 2
Fore
SplineSet
67 64 m 1
 114 128 l 1
 169 89 228 64 309 64 c 0
 392 64 430 93 430 131 c 0
 430 167 387 191 279 218 c 0
 182 243 96 287 96 358 c 0
 96 440 170 501 306 501 c 0
 383 501 457 470 506 437 c 1
 460 375 l 1
 416 404 365 425 307 425 c 0
 224 425 196 398 196 363 c 0
 196 326 255 304 339 283 c 0
 461 252 530 214 530 137 c 0
 530 55 450 -12 306 -12 c 0
 213 -12 127 23 67 64 c 1
431 726 m 1
 311 573 l 1
 236 573 l 1
 326 726 l 1
 431 726 l 1
EndSplineSet
EndChar

StartChar: Scircumflex
Encoding: 348 348 177
Width: 600
Flags: MW
HStem: -12 87<271 348 271 377.5> 580 87<277 345> 705 114<166 358 166 358 262 376 262 454>
VStem: 93 101<465 520.5 465 539> 439 102<142 201>
LayerCount: 2
Fore
SplineSet
63 85 m 1
 121 153 l 1
 171 106 237 75 305 75 c 0
 391 75 439 113 439 171 c 0
 439 231 391 250 325 276 c 1
 233 317 l 1
 166 343 93 392 93 488 c 0
 93 590 184 667 314 667 c 0
 395 667 468 635 519 585 c 1
 467 521 l 1
 424 558 376 580 314 580 c 0
 240 580 194 547 194 494 c 0
 194 436 250 416 308 393 c 1
 397 354 l 1
 479 322 541 275 541 179 c 0
 541 74 452 -12 303 -12 c 0
 209 -12 125 24 63 85 c 1
245 705 m 1
 166 705 l 1
 262 819 l 1
 358 819 l 1
 454 705 l 1
 376 705 l 1
 312 771 l 1
 308 771 l 1
 245 705 l 1
EndSplineSet
EndChar

StartChar: uni015E
Encoding: 350 350 179
Width: 600
Flags: MW
HStem: -215 46<217 226> -11 86<275 275> 580 87<277 345>
VStem: 93 101<465 520.5 465 539> 304 75<-135.5 -110.5> 439 102<142 201>
LayerCount: 2
Fore
SplineSet
308 393 m 1
 397 354 l 1
 479 322 541 275 541 179 c 0
 541 82 466 2 338 -10 c 1
 320 -48 l 1
 353 -59 379 -79 379 -120 c 0
 379 -181 306 -209 226 -215 c 1
 217 -169 l 1
 268 -163 304 -149 304 -122 c 0
 304 -99 284 -86 242 -75 c 1
 275 -11 l 1
 192 -4 119 30 63 85 c 1
 121 153 l 1
 171 106 237 75 305 75 c 0
 391 75 439 113 439 171 c 0
 439 231 391 250 325 276 c 1
 233 317 l 1
 166 343 93 392 93 488 c 0
 93 590 184 667 314 667 c 0
 395 667 468 635 519 585 c 1
 467 521 l 1
 424 558 376 580 314 580 c 0
 240 580 194 547 194 494 c 0
 194 436 250 416 308 393 c 1
EndSplineSet
EndChar

StartChar: uni015F
Encoding: 351 351 359
Width: 600
Flags: MW
HStem: -215 46<224 233> -11 75<282 282> 425 76<265.5 336>
VStem: 96 100<344.5 380.5 344.5 399> 311 75<-135.5 -110.5> 430 100<112 149>
LayerCount: 2
Fore
SplineSet
506 437 m 1
 460 375 l 1
 416 404 365 425 307 425 c 0
 224 425 196 398 196 363 c 0
 196 326 255 304 339 283 c 0
 461 252 530 214 530 137 c 0
 530 63 464 1 345 -10 c 1
 327 -48 l 1
 359 -59 386 -79 386 -120 c 0
 386 -181 313 -209 233 -215 c 1
 224 -169 l 1
 275 -163 311 -149 311 -122 c 0
 311 -99 291 -86 249 -75 c 1
 282 -11 l 1
 198 -6 122 27 67 64 c 1
 114 128 l 1
 169 89 228 64 309 64 c 0
 392 64 430 93 430 131 c 0
 430 167 387 191 279 218 c 0
 182 243 96 287 96 358 c 0
 96 440 170 501 306 501 c 0
 383 501 457 470 506 437 c 1
EndSplineSet
EndChar

StartChar: scaron
Encoding: 353 353 358
Width: 600
Flags: MW
HStem: -12 76<268.5 350.5> 425 76<265.5 336> 573 153<166 264 166 348>
VStem: 96 100<344.5 380.5 344.5 399> 430 100<112 149>
LayerCount: 2
Fore
SplineSet
67 64 m 1
 114 128 l 1
 169 89 228 64 309 64 c 0
 392 64 430 93 430 131 c 0
 430 167 387 191 279 218 c 0
 182 243 96 287 96 358 c 0
 96 440 170 501 306 501 c 0
 383 501 457 470 506 437 c 1
 460 375 l 1
 416 404 365 425 307 425 c 0
 224 425 196 398 196 363 c 0
 196 326 255 304 339 283 c 0
 461 252 530 214 530 137 c 0
 530 55 450 -12 306 -12 c 0
 213 -12 127 23 67 64 c 1
264 573 m 1
 166 726 l 1
 240 726 l 1
 304 628 l 1
 308 628 l 1
 371 726 l 1
 446 726 l 1
 348 573 l 1
 264 573 l 1
EndSplineSet
EndChar

StartChar: uni0162
Encoding: 354 354 185
Width: 600
Flags: MW
HStem: -215 46<206 215> 0 21G<250 269 250 250 332 350 332 332> 571 84<39 250 39 561 350 350 350 561>
VStem: 250 100<0 571> 294 74<-135.5 -110.5>
LayerCount: 2
Fore
SplineSet
350 0 m 1xf0
 332 0 l 1xf0
 309 -48 l 1
 342 -59 368 -79 368 -120 c 0
 368 -181 296 -209 215 -215 c 1
 206 -169 l 1
 258 -163 294 -149 294 -122 c 0
 294 -99 273 -86 231 -75 c 1
 269 0 l 1xe8
 250 0 l 1
 250 571 l 1
 39 571 l 1
 39 655 l 1
 561 655 l 1
 561 571 l 1
 350 571 l 1
 350 0 l 1xf0
EndSplineSet
EndChar

StartChar: uni0163
Encoding: 355 355 365
Width: 600
Flags: MW
HStem: -215 46<286 295> -12 80<406 406> -9 21G<345 345> 409 80<64 202 297 528>
VStem: 198 99<193 409> 373 75<-135.5 -110.5>
LayerCount: 2
Fore
SplineSet
406 -12 m 1xd8
 389 -48 l 1xdc
 421 -59 448 -79 448 -120 c 0
 448 -181 375 -209 295 -215 c 1
 286 -169 l 1
 337 -163 373 -149 373 -122 c 0
 373 -99 353 -86 311 -75 c 1
 345 -9 l 1xbc
 236 8 198 85 198 193 c 2
 198 409 l 1
 64 409 l 1
 64 484 l 1
 202 489 l 1
 215 624 l 1
 297 624 l 1
 297 489 l 1
 528 489 l 1
 528 409 l 1
 297 409 l 1
 297 193 l 2
 297 109 326 68 415 68 c 0
 458 68 494 76 527 89 c 1
 547 16 l 1
 507 2 456 -10 406 -12 c 1xd8
EndSplineSet
EndChar

StartChar: Tcaron
Encoding: 356 356 184
Width: 600
Flags: MW
HStem: 0 21G<250 250 250 350> 571 84<39 250 39 561 350 350 350 561> 705 114<155 348 155 251>
VStem: 250 100<0 571 0 571>
LayerCount: 2
Fore
SplineSet
250 0 m 1
 250 571 l 1
 39 571 l 1
 39 655 l 1
 561 655 l 1
 561 571 l 1
 350 571 l 1
 350 0 l 1
 250 0 l 1
365 819 m 1
 444 819 l 1
 348 705 l 1
 251 705 l 1
 155 819 l 1
 234 819 l 1
 297 753 l 1
 301 753 l 1
 365 819 l 1
EndSplineSet
EndChar

StartChar: tcaron
Encoding: 357 357 364
Width: 600
GlyphClass: 3
Flags: MW
HStem: -12 80<370.5 419.5> 409 80<64 202 297 528> 548 76
VStem: 198 99<193 409> 392 65.5
LayerCount: 2
Fore
SplineSet
198 193 m 2
 198 409 l 1
 64 409 l 1
 64 484 l 1
 202 489 l 1
 215 624 l 1
 297 624 l 1
 297 489 l 1
 528 489 l 1
 528 409 l 1
 297 409 l 1
 297 193 l 2
 297 109 326 68 415 68 c 0
 458 68 494 76 527 89 c 1
 547 16 l 1
 503 1 447 -12 392 -12 c 0
 247 -12 198 71 198 193 c 2
440 548 m 1
 394 548 l 1
 390 763 l 1
 458 763 l 1
 457 702 l 1
 440 548 l 1
EndSplineSet
Ligature2: "'ccmp' Glyph Composition/Decomposition in Latin lookup 6 subtable" t uni030C
EndChar

StartChar: Utilde
Encoding: 360 360 192
Width: 600
Flags: MW
HStem: -12 87<264 338.5 264 369> 635 20G<75 176 176 176 428 525 525 525> 709 65<340.5 367.5 340.5 385.5> 759 65<232.5 259.5>
VStem: 75 101<249 655> 398 53<824 824> 428 97<243 249 249 655>
LayerCount: 2
Fore
SplineSet
75 249 m 2xda
 75 655 l 1
 176 655 l 1
 176 243 l 2
 176 123 227 75 301 75 c 0
 376 75 428 123 428 243 c 2
 428 655 l 1
 525 655 l 1
 525 249 l 2
 525 65 437 -12 301 -12 c 0
 165 -12 75 65 75 249 c 2xda
361 709 m 0xec
 308 709 277 759 242 759 c 0
 223 759 208 742 202 709 c 1
 149 709 l 1
 156 778 190 824 239 824 c 0xda
 292 824 323 774 358 774 c 0xec
 377 774 392 791 398 824 c 1
 451 824 l 1xdc
 444 755 410 709 361 709 c 0xec
EndSplineSet
EndChar

StartChar: utilde
Encoding: 361 361 373
Width: 600
Flags: MW
HStem: -12 85<237 277> 0 21G<429 510 429 429> 469 20G<73 172 172 172 411 510 510 510> 578 64<333.5 360 333.5 376.5> 632 64<230 257>
VStem: 73 99<186 199 199 489> 146 54<578 578> 390 54<696 696> 411 99<154 489 0 489>
LayerCount: 2
Fore
SplineSet
510 489 m 1xac80
 510 0 l 1
 429 0 l 1x6a80
 421 81 l 1
 417 81 l 1
 369 26 314 -12 240 -12 c 0
 125 -12 73 58 73 186 c 2
 73 489 l 1
 172 489 l 1
 172 199 l 2
 172 113 200 73 274 73 c 0
 325 73 363 96 411 154 c 1
 411 489 l 1
 510 489 l 1xac80
146 578 m 1
 154 650 186 696 241 696 c 0xaa80
 289 696 318 642 349 642 c 0xb5
 371 642 383 659 390 696 c 1
 444 696 l 1xad
 436 625 404 578 349 578 c 0xb5
 300 578 273 632 241 632 c 0
 219 632 207 616 200 578 c 1
 146 578 l 1
EndSplineSet
EndChar

StartChar: Umacron
Encoding: 362 362 194
Width: 600
Flags: MW
HStem: -12 87<264 338.5 264 369> 635 20G<75 176 176 176 428 525 525 525> 726 67<172 428 172 428>
VStem: 75 101<249 655> 172 256<726 793 243 793> 428 97<243 249 249 655>
LayerCount: 2
Fore
SplineSet
75 249 m 2xf4
 75 655 l 1
 176 655 l 1
 176 243 l 2
 176 123 227 75 301 75 c 0
 376 75 428 123 428 243 c 2
 428 655 l 1
 525 655 l 1
 525 249 l 2
 525 65 437 -12 301 -12 c 0
 165 -12 75 65 75 249 c 2xf4
172 726 m 1xe8
 172 793 l 1
 428 793 l 1
 428 726 l 1
 172 726 l 1xe8
EndSplineSet
EndChar

StartChar: umacron
Encoding: 363 363 375
Width: 600
Flags: MW
HStem: -12 85<237 277> 0 21G<429 510 429 429> 469 20G<73 172 172 172 411 510 510 510> 598 67<168 421 168 421>
VStem: 73 99<186 199 199 489> 168 253<598 665> 411 99<154 489 0 489>
LayerCount: 2
Fore
SplineSet
510 489 m 1xba
 510 0 l 1
 429 0 l 1x7a
 421 81 l 1
 417 81 l 1
 369 26 314 -12 240 -12 c 0
 125 -12 73 58 73 186 c 2
 73 489 l 1
 172 489 l 1
 172 199 l 2
 172 113 200 73 274 73 c 0
 325 73 363 96 411 154 c 1
 411 489 l 1
 510 489 l 1xba
168 598 m 1xb4
 168 665 l 1
 421 665 l 1
 421 598 l 1
 168 598 l 1xb4
EndSplineSet
EndChar

StartChar: Ubreve
Encoding: 364 364 195
Width: 600
Flags: MW
HStem: -12 87<264 338.5 264 369> 635 20G<75 176 176 176 428 525 525 525> 706 54<279 321 279 341>
VStem: 75 101<249 655> 428 97<243 249 249 655>
LayerCount: 2
Fore
SplineSet
75 249 m 2
 75 655 l 1
 176 655 l 1
 176 243 l 2
 176 123 227 75 301 75 c 0
 376 75 428 123 428 243 c 2
 428 655 l 1
 525 655 l 1
 525 249 l 2
 525 65 437 -12 301 -12 c 0
 165 -12 75 65 75 249 c 2
300 706 m 0
 218 706 180 759 173 819 c 1
 231 819 l 1
 237 789 258 760 300 760 c 0
 342 760 363 789 369 819 c 1
 427 819 l 1
 420 759 382 706 300 706 c 0
EndSplineSet
EndChar

StartChar: ubreve
Encoding: 365 365 376
Width: 600
Flags: MW
HStem: -12 85<237 277> 0 21G<429 510 429 429> 469 20G<73 172 172 172 411 510 510 510> 575 58<271.5 318.5 271.5 340.5> 575 139<161 340.5>
VStem: 73 99<186 199 199 489> 161 59<714 714> 370 59<714 714> 411 99<154 489 0 489>
LayerCount: 2
Fore
SplineSet
510 489 m 1xac80
 510 0 l 1
 429 0 l 1x6a80
 421 81 l 1
 417 81 l 1
 369 26 314 -12 240 -12 c 0
 125 -12 73 58 73 186 c 2
 73 489 l 1
 172 489 l 1
 172 199 l 2
 172 113 200 73 274 73 c 0
 325 73 363 96 411 154 c 1
 411 489 l 1
 510 489 l 1xac80
295 575 m 0
 204 575 165 647 161 714 c 1
 220 714 l 1xaa80
 225 671 248 633 295 633 c 0xb5
 342 633 365 671 370 714 c 1
 429 714 l 1xad
 425 647 386 575 295 575 c 0
EndSplineSet
EndChar

StartChar: Uring
Encoding: 366 366 196
Width: 600
Flags: MW
HStem: -12 87<264 338.5 264 369> 635 20G<75 176 176 176 428 525 525 525> 698 41<287 312.5 287 328.5> 838 41<287 312.5>
VStem: 75 101<249 655> 202 52<773.5 804 773.5 816.5> 345 53<773.5 804> 428 97<243 249 249 655>
LayerCount: 2
Fore
SplineSet
75 249 m 2
 75 655 l 1
 176 655 l 1
 176 243 l 2
 176 123 227 75 301 75 c 0
 376 75 428 123 428 243 c 2
 428 655 l 1
 525 655 l 1
 525 249 l 2
 525 65 437 -12 301 -12 c 0
 165 -12 75 65 75 249 c 2
300 698 m 0xff
 242 698 202 734 202 789 c 0
 202 844 242 879 300 879 c 0
 357 879 398 844 398 789 c 0
 398 734 357 698 300 698 c 0xff
300 739 m 0
 325 739 345 758 345 789 c 0
 345 819 325 838 300 838 c 0
 274 838 254 819 254 789 c 0
 254 758 274 739 300 739 c 0
EndSplineSet
EndChar

StartChar: uring
Encoding: 367 367 377
Width: 600
Flags: MW
HStem: -12 85<237 277> 0 21G<429 510 429 429> 469 20G<73 172 172 172 411 510 510 510> 544 41<282 308 282 324> 692 41<282 308>
VStem: 73 99<186 199 199 489> 197 52<622.5 655 622.5 667> 341 52<622.5 655> 411 99<154 489 0 489>
LayerCount: 2
Fore
SplineSet
510 489 m 1xbc80
 510 0 l 1
 429 0 l 1x7c80
 421 81 l 1
 417 81 l 1
 369 26 314 -12 240 -12 c 0
 125 -12 73 58 73 186 c 2
 73 489 l 1
 172 489 l 1
 172 199 l 2
 172 113 200 73 274 73 c 0
 325 73 363 96 411 154 c 1
 411 489 l 1
 510 489 l 1xbc80
295 544 m 0xbf80
 237 544 197 582 197 639 c 0
 197 695 237 733 295 733 c 0
 353 733 393 695 393 639 c 0
 393 582 353 544 295 544 c 0xbf80
295 585 m 0
 321 585 341 606 341 639 c 0
 341 671 321 692 295 692 c 0
 269 692 249 671 249 639 c 0
 249 606 269 585 295 585 c 0
EndSplineSet
EndChar

StartChar: Uhungarumlaut
Encoding: 368 368 197
Width: 600
Flags: MW
HStem: -12 87<264 338.5 264 369> 635 20G<75 176 176 176 428 525 525 525> 705 114<249 254 184 338 412 417 249 347>
VStem: 75 101<249 655> 428 97<243 249 249 655>
LayerCount: 2
Fore
SplineSet
75 249 m 2
 75 655 l 1
 176 655 l 1
 176 243 l 2
 176 123 227 75 301 75 c 0
 376 75 428 123 428 243 c 2
 428 655 l 1
 525 655 l 1
 525 249 l 2
 525 65 437 -12 301 -12 c 0
 165 -12 75 65 75 249 c 2
254 705 m 1
 184 705 l 1
 249 819 l 1
 338 819 l 1
 254 705 l 1
347 705 m 1
 412 819 l 1
 502 819 l 1
 417 705 l 1
 347 705 l 1
EndSplineSet
EndChar

StartChar: uhungarumlaut
Encoding: 369 369 378
Width: 600
Flags: MW
HStem: -12 85<237 277> 0 21G<429 510 429 429> 469 20G<73 172 172 172 411 510 510 510> 572 145<190 343 190 343 260 407 260 343>
VStem: 73 99<186 199 199 489> 411 99<154 489 0 489>
LayerCount: 2
Fore
SplineSet
510 489 m 1xbc
 510 0 l 1
 429 0 l 1x7c
 421 81 l 1
 417 81 l 1
 369 26 314 -12 240 -12 c 0
 125 -12 73 58 73 186 c 2
 73 489 l 1
 172 489 l 1
 172 199 l 2
 172 113 200 73 274 73 c 0
 325 73 363 96 411 154 c 1
 411 489 l 1
 510 489 l 1xbc
190 572 m 1
 260 717 l 1
 343 717 l 1
 254 572 l 1
 190 572 l 1
343 572 m 1
 413 717 l 1
 497 717 l 1
 407 572 l 1
 343 572 l 1
EndSplineSet
EndChar

StartChar: Uogonek
Encoding: 370 370 205
Width: 600
GlyphClass: 2
Flags: MW
HStem: -215 68<335.5 340.5> -11 86 635 20G<75 176 176 176 428 525 525 525>
VStem: 75 101<249 655> 226 75<-118 -97.5> 428 97<243 249 249 655>
AnchorPoint: "Anchor-0" 299 677 basechar 0
LayerCount: 2
Fore
SplineSet
75 249 m 2
 75 655 l 1
 176 655 l 1
 176 243 l 2
 176 123 226 75 300 75 c 0
 375 75 428 123 428 243 c 2
 428 655 l 1
 525 655 l 1
 525 249 l 2
 525 116 477 41 401 6 c 0
 329 -27 301 -68 301 -103 c 0
 301 -133 324 -147 347 -147 c 0
 363 -147 375 -141 387 -133 c 1
 412 -185 l 1
 391 -202 355 -215 326 -215 c 0
 270 -215 226 -184 226 -126 c 0
 226 -69 267 -33 291 -11 c 1
 146 -7 75 86 75 249 c 2
EndSplineSet
Ligature2: "'ccmp' Glyph Composition/Decomposition in Latin lookup 6 subtable" U uni0328
EndChar

StartChar: uogonek
Encoding: 371 371 386
Width: 600
GlyphClass: 2
Flags: MW
HStem: -207 63<457 460.5> -12 85<237 277> 0 21G<510 510> 469 20G<73 172 172 172 411 510 510 510>
VStem: 73 99<186 199 199 489> 353 70<-114.5 -92.5> 411 99<154 489 0 489>
AnchorPoint: "Anchor-0" 295 511 basechar 0
LayerCount: 2
Fore
SplineSet
510 489 m 1xda
 510 0 l 1xba
 450 -26 423 -63 423 -100 c 0
 423 -129 445 -144 469 -144 c 0
 484 -144 497 -139 508 -131 c 1
 531 -178 l 1
 511 -195 474 -207 447 -207 c 0
 394 -207 353 -178 353 -120 c 0xdc
 353 -65 391 -25 430 2 c 1
 421 81 l 1
 417 81 l 1
 369 26 314 -12 240 -12 c 0
 125 -12 73 58 73 186 c 2
 73 489 l 1
 172 489 l 1
 172 199 l 2
 172 113 200 73 274 73 c 0
 325 73 363 96 411 154 c 1
 411 489 l 1
 510 489 l 1xda
EndSplineSet
Ligature2: "'ccmp' Glyph Composition/Decomposition in Latin lookup 6 subtable" u uni0328
EndChar

StartChar: Wcircumflex
Encoding: 372 372 214
Width: 600
Flags: MW
HStem: 0 97<106 168 165 168 165 212 439 443> 377 110<299 302 299 299> 636 20G<9 109 109 109 497 591 591 591> 705 114<156 348 156 348 252 365 252 444>
VStem: 9 582<656 656>
LayerCount: 2
Fore
SplineSet
106 0 m 1
 9 656 l 1
 109 656 l 1
 153 260 l 1
 156 206 161 152 165 97 c 1
 168 97 l 1
 181 152 196 206 208 260 c 1
 271 487 l 1
 337 487 l 1
 400 260 l 1
 411 207 426 152 439 97 c 1
 443 97 l 1
 447 152 451 207 455 260 c 1
 497 656 l 1
 591 656 l 1
 499 0 l 1
 391 0 l 1
 325 257 l 1
 316 297 308 338 302 377 c 1
 299 377 l 1
 292 338 285 297 275 257 c 2
 212 0 l 1
 106 0 l 1
235 705 m 1
 156 705 l 1
 252 819 l 1
 348 819 l 1
 444 705 l 1
 365 705 l 1
 302 771 l 1
 298 771 l 1
 235 705 l 1
EndSplineSet
EndChar

StartChar: wcircumflex
Encoding: 373 373 395
Width: 600
Flags: MW
HStem: 0 82<109 184 180 184 180 225 423 427> 367 83<298 302 298 298> 469 20G<7 106 106 106 501 593 593 593> 573 153<160 343 160 343 258 366 258 441>
VStem: 7 586<489 489>
LayerCount: 2
Fore
SplineSet
109 0 m 1
 7 489 l 1
 106 489 l 1
 158 221 l 2
 167 174 173 129 180 82 c 1
 184 82 l 1
 192 129 201 175 211 221 c 2
 263 450 l 1
 341 450 l 1
 395 221 l 1
 405 174 414 129 423 82 c 1
 427 82 l 1
 436 129 441 174 449 221 c 1
 501 489 l 1
 593 489 l 1
 495 0 l 1
 377 0 l 1
 327 225 l 1
 318 271 311 317 302 367 c 1
 298 367 l 1
 291 327 285 284 274 224 c 1
 225 0 l 1
 109 0 l 1
160 573 m 1
 258 726 l 1
 343 726 l 1
 441 573 l 1
 366 573 l 1
 302 671 l 1
 298 671 l 1
 235 573 l 1
 160 573 l 1
EndSplineSet
EndChar

StartChar: Ycircumflex
Encoding: 374 374 218
Width: 600
Flags: MW
HStem: 0 21G<250 250 250 350> 635 20G<33 139 139 139 464 567 567 567> 705 114<156 348 156 348 252 365 252 444>
VStem: 250 100<0 230 0 230>
LayerCount: 2
Fore
SplineSet
250 0 m 1
 250 230 l 1
 33 655 l 1
 139 655 l 1
 229 470 l 2
 253 419 275 370 300 318 c 1
 304 318 l 1
 329 370 353 419 377 470 c 2
 464 655 l 1
 567 655 l 1
 350 230 l 1
 350 0 l 1
 250 0 l 1
235 705 m 1
 156 705 l 1
 252 819 l 1
 348 819 l 1
 444 705 l 1
 365 705 l 1
 302 771 l 1
 298 771 l 1
 235 705 l 1
EndSplineSet
EndChar

StartChar: Ydieresis
Encoding: 376 376 219
Width: 600
Flags: MW
HStem: 0 21G<250 250 250 350> 635 20G<33 139 139 139 464 567 567 567> 711 109<194.5 226 374 405.5>
VStem: 156 109<750 781.5> 250 100<0 230 0 230> 335 109<750 781.5>
LayerCount: 2
Fore
SplineSet
250 0 m 1xe8
 250 230 l 1
 33 655 l 1
 139 655 l 1
 229 470 l 2
 253 419 275 370 300 318 c 1
 304 318 l 1
 329 370 353 419 377 470 c 2
 464 655 l 1
 567 655 l 1
 350 230 l 1
 350 0 l 1
 250 0 l 1xe8
210 711 m 0xf4
 179 711 156 734 156 766 c 0
 156 797 179 820 210 820 c 0
 242 820 265 797 265 766 c 0
 265 734 242 711 210 711 c 0xf4
390 711 m 0
 358 711 335 734 335 766 c 0
 335 797 358 820 390 820 c 0
 421 820 444 797 444 766 c 0
 444 734 421 711 390 711 c 0
EndSplineSet
EndChar

StartChar: Zacute
Encoding: 377 377 224
Width: 600
Flags: MW
HStem: 0 84<185 541 185 541> 572 84<94 414 94 536> 705 114<258 454 258 454>
VStem: 63 478<0 60 60 60>
LayerCount: 2
Fore
SplineSet
63 0 m 1
 63 60 l 1
 414 572 l 1
 94 572 l 1
 94 656 l 1
 536 656 l 1
 536 595 l 1
 185 84 l 1
 541 84 l 1
 541 0 l 1
 63 0 l 1
454 819 m 1
 339 705 l 1
 258 705 l 1
 344 819 l 1
 454 819 l 1
EndSplineSet
EndChar

StartChar: zacute
Encoding: 378 378 405
Width: 600
Flags: MW
HStem: 0 80<210 534 210 534> 409 80<107 385 107 525> 573 153<251 447 251 447>
VStem: 71 463<0 53 53 53>
LayerCount: 2
Fore
SplineSet
71 0 m 1
 71 53 l 1
 385 409 l 1
 107 409 l 1
 107 489 l 1
 525 489 l 1
 525 436 l 1
 210 80 l 1
 534 80 l 1
 534 0 l 1
 71 0 l 1
447 726 m 1
 326 573 l 1
 251 573 l 1
 341 726 l 1
 447 726 l 1
EndSplineSet
EndChar

StartChar: Zdotaccent
Encoding: 379 379 226
Width: 600
Flags: MW
HStem: 0 84<185 541 185 541> 572 84<94 414 94 536> 710 120<297 333>
VStem: 251 128<753 788>
LayerCount: 2
Fore
SplineSet
63 0 m 1
 63 60 l 1
 414 572 l 1
 94 572 l 1
 94 656 l 1
 536 656 l 1
 536 595 l 1
 185 84 l 1
 541 84 l 1
 541 0 l 1
 63 0 l 1
315 710 m 0
 279 710 251 735 251 771 c 0
 251 805 279 830 315 830 c 0
 351 830 379 805 379 771 c 0
 379 735 351 710 315 710 c 0
EndSplineSet
EndChar

StartChar: zdotaccent
Encoding: 380 380 407
Width: 600
Flags: MW
HStem: 0 80<210 534 210 534> 409 80<107 385 107 525> 582 141<300 342>
VStem: 247 148<630.5 673>
LayerCount: 2
Fore
SplineSet
71 0 m 1
 71 53 l 1
 385 409 l 1
 107 409 l 1
 107 489 l 1
 525 489 l 1
 525 436 l 1
 210 80 l 1
 534 80 l 1
 534 0 l 1
 71 0 l 1
321 582 m 0
 279 582 247 609 247 652 c 0
 247 694 279 723 321 723 c 0
 363 723 395 694 395 652 c 0
 395 609 363 582 321 582 c 0
EndSplineSet
EndChar

StartChar: Zcaron
Encoding: 381 381 225
Width: 600
Flags: MW
HStem: 0 84<185 541 185 541> 572 84<94 414 94 536> 705 114<171 363 171 267>
VStem: 63 478<0 60 60 60>
LayerCount: 2
Fore
SplineSet
63 0 m 1
 63 60 l 1
 414 572 l 1
 94 572 l 1
 94 656 l 1
 536 656 l 1
 536 595 l 1
 185 84 l 1
 541 84 l 1
 541 0 l 1
 63 0 l 1
380 819 m 1
 459 819 l 1
 363 705 l 1
 267 705 l 1
 171 819 l 1
 250 819 l 1
 313 753 l 1
 317 753 l 1
 380 819 l 1
EndSplineSet
EndChar

StartChar: zcaron
Encoding: 382 382 406
Width: 600
Flags: MW
HStem: 0 80<210 534 210 534> 409 80<107 385 107 525> 573 153<181 279 181 363>
VStem: 71 463<0 53 53 53>
LayerCount: 2
Fore
SplineSet
71 0 m 1
 71 53 l 1
 385 409 l 1
 107 409 l 1
 107 489 l 1
 525 489 l 1
 525 436 l 1
 210 80 l 1
 534 80 l 1
 534 0 l 1
 71 0 l 1
279 573 m 1
 181 726 l 1
 255 726 l 1
 319 628 l 1
 323 628 l 1
 386 726 l 1
 461 726 l 1
 363 573 l 1
 279 573 l 1
EndSplineSet
EndChar

StartChar: uni0180
Encoding: 384 384 254
Width: 600
Flags: MW
HStem: -12 82<301.5 344.5 290 382> 0 21G<88 166 88 88> 398 83<314.5 360> 567 54<16 88 187 391> 567 142<16 187 16 187 88 187 88 391>
VStem: 88 99<121 332 501 567 621 709> 442 102<186.5 289>
LayerCount: 2
Fore
SplineSet
187 332 m 1xae
 187 121 l 1
 228 84 274 70 306 70 c 0
 383 70 442 132 442 241 c 0
 442 337 404 398 316 398 c 0
 276 398 231 378 187 332 c 1xae
187 501 m 1
 184 411 l 1
 228 453 287 481 342 481 c 0
 471 481 544 387 544 242 c 0
 544 81 439 -12 325 -12 c 0
 278 -12 222 12 178 54 c 1
 175 54 l 1xae
 166 0 l 1
 88 0 l 1
 88 567 l 1
 16 567 l 1x6e
 16 616 l 1
 88 621 l 1xb6
 88 709 l 1
 187 709 l 1xae
 187 621 l 1
 391 621 l 1xb6
 391 567 l 1
 187 567 l 1
 187 501 l 1
EndSplineSet
EndChar

StartChar: uni018F
Encoding: 399 399 230
Width: 600
GlyphClass: 2
Flags: MW
HStem: -12 85<264 344 264 378> 278.5 74.5 582 85<272 347>
VStem: 61 102<278 278 278 329> 452 101<279 279>
AnchorPoint: "Anchor-2" 323 -22 basechar 0
AnchorPoint: "Anchor-0" 318 677 basechar 0
LayerCount: 2
Fore
SplineSet
452 279 m 1
 163 278 l 1
 171 148 224 73 304 73 c 0
 384 73 440 150 452 279 c 1
174 525 m 1
 129 594 l 1
 171 636 229 667 308 667 c 0
 458 667 553 540 553 329 c 0
 553 118 452 -12 304 -12 c 0
 156 -12 61 120 61 324 c 0
 61 334 62 344 63 353 c 1
 454 353 l 1
 448 497 396 582 298 582 c 0
 246 582 206 558 174 525 c 1
EndSplineSet
EndChar

StartChar: uni0192
Encoding: 402 402 635
Width: 600
Flags: MW
HStem: -97 79 335 75<218 247 147 255 350 485> 587 80<422 463.5 388 467> 627 20G<540 540>
VStem: 49 491 258 95.5
LayerCount: 2
Fore
SplineSet
540 647 m 1xd8
 517 573 l 1
 500 581 481 587 453 587 c 0
 391 587 365 533 357 470 c 2
 350 410 l 1
 485 410 l 1
 485 335 l 1
 342 335 l 1
 316 111 l 2
 301 -10 259 -97 135 -97 c 0
 97 -97 67 -88 49 -79 c 1
 65 -5 l 1
 83 -12 103 -17 123 -18 c 1
 188 -17 211 30 225 135 c 1
 247 335 l 1
 147 335 l 1
 147 405 l 1
 218 410 l 1
 255 410 l 1
 261 462 l 1xe4
 280 598 329 667 447 667 c 0xe8
 480 667 518 658 540 647 c 1xd8
EndSplineSet
EndChar

StartChar: Ohorn
Encoding: 416 416 163
Width: 600
GlyphClass: 2
Flags: MW
HStem: -12 87<254.5 345.5 254.5 375> 580 87<254.5 322 225 345.5>
VStem: 45 103<252.5 407.5 252.5 435.5> 452 103<252.5 389 224.5 407.5> 491 80<680.5 708>
AnchorPoint: "Anchor-2" 299 -22 basechar 0
AnchorPoint: "Anchor-0" 299 677 basechar 0
LayerCount: 2
Fore
SplineSet
300 75 m 0xf0
 391 75 452 175 452 330 c 0
 452 485 391 580 300 580 c 0
 209 580 148 485 148 330 c 0
 148 175 209 75 300 75 c 0xf0
476 743 m 1xe8
 546 776 l 1
 560 758 571 734 571 707 c 0xe8
 571 645 528 611 467 597 c 1
 522 539 555 448 555 330 c 0xf0
 555 119 450 -12 300 -12 c 0
 150 -12 45 119 45 330 c 0
 45 541 150 667 300 667 c 0
 344 667 383 656 418 636 c 1
 465 644 491 661 491 700 c 0
 491 716 485 731 476 743 c 1xe8
EndSplineSet
EndChar

StartChar: ohorn
Encoding: 417 417 343
Width: 600
GlyphClass: 2
Flags: MW
HStem: -12 81<256.5 343.5 256.5 364> 419 60 419 82<256.5 318 236 343.5>
VStem: 56 102<191.5 296.5 191.5 325.5> 442 102<191.5 287 163 296.5> 484 79<524 552>
AnchorPoint: "Anchor-2" 300 -22 basechar 0
AnchorPoint: "Anchor-0" 300 511 basechar 0
LayerCount: 2
Fore
SplineSet
300 69 m 0xb8
 387 69 442 139 442 244 c 0
 442 349 387 419 300 419 c 0
 213 419 158 349 158 244 c 0
 158 139 213 69 300 69 c 0xb8
469 587 m 1xd4
 538 619 l 1
 552 601 563 577 563 551 c 0xb4
 563 490 521 456 462 441 c 1
 512 397 544 330 544 244 c 0
 544 82 428 -12 300 -12 c 0
 172 -12 56 82 56 244 c 0
 56 407 172 501 300 501 c 0xb8
 336 501 372 493 404 479 c 1
 457 486 484 504 484 544 c 0
 484 560 477 574 469 587 c 1xd4
EndSplineSet
EndChar

StartChar: uhorn
Encoding: 432 432 387
Width: 600
GlyphClass: 2
Flags: MW
HStem: -12 85<237 277> 0 21G<429 510 429 429> 469 20G<73 172 172 172 411 442 442 442>
VStem: 73 99<186 199 199 489> 411 99<154 453 0 489 0 489> 525 79<530.5 562>
AnchorPoint: "Anchor-2" 307 -22 basechar 0
AnchorPoint: "Anchor-0" 295 511 basechar 0
LayerCount: 2
Fore
SplineSet
510 597 m 1xbc
 579 629 l 1
 593 611 604 587 604 561 c 0xbc
 604 498 558 467 510 453 c 1
 510 0 l 1
 429 0 l 1x78
 421 81 l 1
 417 81 l 1
 369 26 314 -12 240 -12 c 0
 125 -12 73 58 73 186 c 2
 73 489 l 1
 172 489 l 1
 172 199 l 2
 172 113 200 73 274 73 c 0
 325 73 363 96 411 154 c 1
 411 489 l 1xb8
 442 489 l 1
 486 493 525 507 525 554 c 0
 525 570 518 584 510 597 c 1xbc
EndSplineSet
EndChar

StartChar: uni01CE
Encoding: 462 462 239
Width: 600
Flags: MW
HStem: -12 79<242.5 274.5> 0 21G<439 520 439 439> 420 81<273.5 342.5> 573 153<172 270 172 354>
VStem: 76 96<111.5 165.5 111.5 184> 421 99<132 248 248 248>
LayerCount: 2
Fore
SplineSet
76 129 m 0xbc
 76 239 175 292 421 311 c 1
 418 371 386 420 299 420 c 0
 239 420 181 393 133 365 c 1
 96 432 l 1
 150 465 231 501 316 501 c 0
 451 501 520 423 520 294 c 2
 520 0 l 1
 439 0 l 1x7c
 431 63 l 1
 428 63 l 1
 376 23 308 -12 241 -12 c 0
 147 -12 76 43 76 129 c 0xbc
172 136 m 0
 172 87 216 67 269 67 c 0
 321 67 371 91 421 132 c 1
 421 248 l 1
 229 233 172 195 172 136 c 0
270 573 m 1
 172 726 l 1
 247 726 l 1
 310 628 l 1
 314 628 l 1
 378 726 l 1
 452 726 l 1
 354 573 l 1
 270 573 l 1
EndSplineSet
Substitution2: "'ss02' Style Set 2 in Latin lookup 18 subtable" uni01CE.a
Substitution2: "'aalt' Access All Alternates in Latin lookup 0 subtable" uni01CE.a
EndChar

StartChar: uni01D0
Encoding: 464 464 299
Width: 600
Flags: MW
HStem: 0 21G<306 405 306 306> 409 80<87 405 87 306> 573 153<207 305 207 389>
VStem: 306 99<0 409 409 409>
LayerCount: 2
Fore
SplineSet
87 409 m 1
 87 489 l 1
 405 489 l 1
 405 0 l 1
 306 0 l 1
 306 409 l 1
 87 409 l 1
305 573 m 1
 207 726 l 1
 282 726 l 1
 345 628 l 1
 349 628 l 1
 413 726 l 1
 487 726 l 1
 389 573 l 1
 305 573 l 1
EndSplineSet
EndChar

StartChar: uni01D1
Encoding: 465 465 153
Width: 600
Flags: MW
HStem: -12 87<254.5 345.5 254.5 375> 580 87<254.5 345.5> 705 114<156 348 156 252>
VStem: 45 103<252.5 407.5 252.5 435.5> 452 103<252.5 407.5>
LayerCount: 2
Fore
SplineSet
300 -12 m 0
 150 -12 45 119 45 330 c 0
 45 541 150 667 300 667 c 0
 450 667 555 540 555 330 c 0
 555 119 450 -12 300 -12 c 0
300 75 m 0
 391 75 452 175 452 330 c 0
 452 485 391 580 300 580 c 0
 209 580 148 485 148 330 c 0
 148 175 209 75 300 75 c 0
365 819 m 1
 444 819 l 1
 348 705 l 1
 252 705 l 1
 156 819 l 1
 235 819 l 1
 298 753 l 1
 302 753 l 1
 365 819 l 1
EndSplineSet
EndChar

StartChar: uni01D2
Encoding: 466 466 333
Width: 600
Flags: MW
HStem: -12 81<256.5 343.5 256.5 364> 419 82<256.5 343.5> 573 153<160 258 160 342>
VStem: 56 102<191.5 296.5 191.5 325.5> 442 102<191.5 296.5>
LayerCount: 2
Fore
SplineSet
56 244 m 0
 56 407 172 501 300 501 c 0
 428 501 544 407 544 244 c 0
 544 82 428 -12 300 -12 c 0
 172 -12 56 82 56 244 c 0
158 244 m 0
 158 139 213 69 300 69 c 0
 387 69 442 139 442 244 c 0
 442 349 387 419 300 419 c 0
 213 419 158 349 158 244 c 0
258 573 m 1
 160 726 l 1
 235 726 l 1
 298 628 l 1
 302 628 l 1
 365 726 l 1
 440 726 l 1
 342 573 l 1
 258 573 l 1
EndSplineSet
EndChar

StartChar: uni01D3
Encoding: 467 467 198
Width: 600
Flags: MW
HStem: -12 87<264 338.5 264 369> 635 20G<75 176 176 176 428 525 525 525> 705 114<156 348 156 252>
VStem: 75 101<249 655> 428 97<243 249 249 655>
LayerCount: 2
Fore
SplineSet
75 249 m 2
 75 655 l 1
 176 655 l 1
 176 243 l 2
 176 123 227 75 301 75 c 0
 376 75 428 123 428 243 c 2
 428 655 l 1
 525 655 l 1
 525 249 l 2
 525 65 437 -12 301 -12 c 0
 165 -12 75 65 75 249 c 2
365 819 m 1
 444 819 l 1
 348 705 l 1
 252 705 l 1
 156 819 l 1
 235 819 l 1
 298 753 l 1
 302 753 l 1
 365 819 l 1
EndSplineSet
EndChar

StartChar: uni01D4
Encoding: 468 468 379
Width: 600
Flags: MW
HStem: -12 85<237 277> 0 21G<429 510 429 429> 469 20G<73 172 172 172 411 510 510 510> 573 153<155 253 155 337>
VStem: 73 99<186 199 199 489> 411 99<154 489 0 489>
LayerCount: 2
Fore
SplineSet
510 489 m 1xbc
 510 0 l 1
 429 0 l 1x7c
 421 81 l 1
 417 81 l 1
 369 26 314 -12 240 -12 c 0
 125 -12 73 58 73 186 c 2
 73 489 l 1
 172 489 l 1
 172 199 l 2
 172 113 200 73 274 73 c 0
 325 73 363 96 411 154 c 1
 411 489 l 1
 510 489 l 1xbc
253 573 m 1
 155 726 l 1
 230 726 l 1
 293 628 l 1
 297 628 l 1
 360 726 l 1
 435 726 l 1
 337 573 l 1
 253 573 l 1
EndSplineSet
EndChar

StartChar: uni01D5
Encoding: 469 469 199
Width: 600
Flags: MW
HStem: -12 87<264 338.5 264 369> 635 20G<75 176 176 176 428 525 525 525> 711 99<196 224.5 375.5 404> 864 52<172 428 172 428>
VStem: 75 101<249 655> 161 99<746.5 775.5> 172 256<864 916> 340 99<746.5 775.5> 428 97<243 249 249 655>
LayerCount: 2
Fore
SplineSet
75 249 m 2xf880
 75 655 l 1
 176 655 l 1
 176 243 l 2
 176 123 227 75 301 75 c 0
 376 75 428 123 428 243 c 2
 428 655 l 1
 525 655 l 1
 525 249 l 2
 525 65 437 -12 301 -12 c 0
 165 -12 75 65 75 249 c 2xf880
172 864 m 1xf2
 172 916 l 1
 428 916 l 1
 428 864 l 1
 172 864 l 1xf2
210 711 m 0xf5
 182 711 161 732 161 761 c 0
 161 790 182 810 210 810 c 0
 239 810 260 790 260 761 c 0
 260 732 239 711 210 711 c 0xf5
390 711 m 0
 361 711 340 732 340 761 c 0
 340 790 361 810 390 810 c 0
 418 810 439 790 439 761 c 0
 439 732 418 711 390 711 c 0
EndSplineSet
EndChar

StartChar: uni01D6
Encoding: 470 470 380
Width: 600
Flags: MW
HStem: -12 85<237 277> 0 21G<429 510 429 429> 469 20G<73 172 172 172 411 510 510 510> 584 99<191 219.5 370.5 399> 752 52<167 421 167 421>
VStem: 73 99<186 199 199 489> 156 99<619 647> 167 254<752 804> 335 99<619 647> 411 99<154 489 0 489>
LayerCount: 2
Fore
SplineSet
510 489 m 1xbc40
 510 0 l 1
 429 0 l 1x7a40
 421 81 l 1
 417 81 l 1
 369 26 314 -12 240 -12 c 0
 125 -12 73 58 73 186 c 2
 73 489 l 1
 172 489 l 1
 172 199 l 2
 172 113 200 73 274 73 c 0
 325 73 363 96 411 154 c 1
 411 489 l 1
 510 489 l 1xbc40
205 584 m 0
 177 584 156 605 156 633 c 0
 156 661 177 683 205 683 c 0
 234 683 255 661 255 633 c 0
 255 605 234 584 205 584 c 0
385 584 m 0xbc80
 356 584 335 605 335 633 c 0
 335 661 356 683 385 683 c 0
 413 683 434 661 434 633 c 0
 434 605 413 584 385 584 c 0xbc80
167 752 m 1xb9
 167 804 l 1
 421 804 l 1
 421 752 l 1
 167 752 l 1xb9
EndSplineSet
EndChar

StartChar: uni01DA
Encoding: 474 474 382
Width: 600
Flags: MW
HStem: -12 85<237 277> 0 21G<429 510 429 429> 469 20G<73 172 172 172 411 510 510 510> 584 99<191 219.5 370.5 399> 724 105<164 253 164 337>
VStem: 73 99<186 199 199 489> 156 99<619 647> 335 99<619 647> 411 99<154 489 0 489>
LayerCount: 2
Fore
SplineSet
510 489 m 1xbc80
 510 0 l 1
 429 0 l 1x7a80
 421 81 l 1
 417 81 l 1
 369 26 314 -12 240 -12 c 0
 125 -12 73 58 73 186 c 2
 73 489 l 1
 172 489 l 1
 172 199 l 2
 172 113 200 73 274 73 c 0
 325 73 363 96 411 154 c 1
 411 489 l 1
 510 489 l 1xbc80
253 724 m 1
 164 829 l 1
 234 829 l 1
 293 767 l 1
 297 767 l 1
 355 829 l 1
 426 829 l 1
 337 724 l 1
 253 724 l 1
205 584 m 0
 177 584 156 605 156 633 c 0
 156 661 177 683 205 683 c 0
 234 683 255 661 255 633 c 0
 255 605 234 584 205 584 c 0
385 584 m 0xbd
 356 584 335 605 335 633 c 0
 335 661 356 683 385 683 c 0
 413 683 434 661 434 633 c 0
 434 605 413 584 385 584 c 0xbd
EndSplineSet
EndChar

StartChar: uni01DB
Encoding: 475 475 202
Width: 600
Flags: MW
HStem: -12 87<264 338.5 264 369> 635 20G<75 176 176 176 428 525 525 525> 711 99<196 224.5 375.5 404> 843 113<163 357 163 277>
VStem: 75 101<249 655> 161 99<746.5 775.5> 340 99<746.5 775.5> 428 97<243 249 249 655>
LayerCount: 2
Fore
SplineSet
75 249 m 2xf9
 75 655 l 1
 176 655 l 1
 176 243 l 2
 176 123 227 75 301 75 c 0
 376 75 428 123 428 243 c 2
 428 655 l 1
 525 655 l 1
 525 249 l 2
 525 65 437 -12 301 -12 c 0
 165 -12 75 65 75 249 c 2xf9
270 956 m 1
 357 843 l 1
 277 843 l 1
 163 956 l 1
 270 956 l 1
390 711 m 0xf6
 361 711 340 732 340 761 c 0
 340 790 361 810 390 810 c 0
 418 810 439 790 439 761 c 0
 439 732 418 711 390 711 c 0xf6
210 711 m 0
 182 711 161 732 161 761 c 0
 161 790 182 810 210 810 c 0
 239 810 260 790 260 761 c 0
 260 732 239 711 210 711 c 0
EndSplineSet
EndChar

StartChar: uni01DC
Encoding: 476 476 383
Width: 600
Flags: MW
HStem: -12 85<237 277> 0 21G<429 510 429 429> 469 20G<73 172 172 172 411 510 510 510> 584 99<191 219.5 370.5 399> 724 105<178 351 178 285>
VStem: 73 99<186 199 199 489> 156 99<619 647> 335 99<619 647> 411 99<154 489 0 489>
LayerCount: 2
Fore
SplineSet
510 489 m 1xbc80
 510 0 l 1
 429 0 l 1x7c80
 421 81 l 1
 417 81 l 1
 369 26 314 -12 240 -12 c 0
 125 -12 73 58 73 186 c 2
 73 489 l 1
 172 489 l 1
 172 199 l 2
 172 113 200 73 274 73 c 0
 325 73 363 96 411 154 c 1
 411 489 l 1
 510 489 l 1xbc80
270 829 m 1
 351 724 l 1
 285 724 l 1
 178 829 l 1
 270 829 l 1
385 584 m 0xbb
 356 584 335 605 335 633 c 0
 335 661 356 683 385 683 c 0
 413 683 434 661 434 633 c 0
 434 605 413 584 385 584 c 0xbb
205 584 m 0
 177 584 156 605 156 633 c 0
 156 661 177 683 205 683 c 0
 234 683 255 661 255 633 c 0
 255 605 234 584 205 584 c 0
EndSplineSet
EndChar

StartChar: Gcaron
Encoding: 486 486 108
Width: 600
Flags: MW
HStem: -12 87<283.5 365 283.5 381> 265 82<324 445 324 537> 580 87<287.5 374> 705 114<187 379 187 283>
VStem: 51 103<250.5 406.5 250.5 433> 445 92<109 265 265 265>
LayerCount: 2
Fore
SplineSet
51 326 m 0
 51 540 175 667 344 667 c 0
 431 667 489 626 528 586 c 1
 472 523 l 1
 441 556 404 580 344 580 c 0
 231 580 154 484 154 329 c 0
 154 172 222 75 345 75 c 0
 385 75 423 88 445 109 c 1
 445 265 l 1
 324 265 l 1
 324 347 l 1
 537 347 l 1
 537 65 l 1
 494 23 423 -12 339 -12 c 0
 173 -12 51 111 51 326 c 0
396 819 m 1
 475 819 l 1
 379 705 l 1
 283 705 l 1
 187 819 l 1
 266 819 l 1
 329 753 l 1
 333 753 l 1
 396 819 l 1
EndSplineSet
EndChar

StartChar: gcaron
Encoding: 487 487 285
Width: 600
Flags: MW
HStem: -220 66<252.5 353 252.5 375.5> -11 80<274 280 280 366> -3 21G 155 64<278 318 262 343.5> 414 75<443 565 443 443> 431 70<262 304 237 318> 573 153<167 264 167 349>
VStem: 67 84<-99.5 -68.5> 93 95<296 357 292 379.5> 96 81<102 119> 392 90<292 341 268.5 357> 472 95<-87.5 -43>
LayerCount: 2
Fore
SplineSet
151 -76 m 0xbb20
 151 -123 204 -154 301 -154 c 0
 405 -154 472 -111 472 -64 c 0
 472 -22 436 -11 366 -11 c 2
 280 -11 l 2xda90
 250 -11 226 -9 205 -3 c 1
 165 -26 151 -50 151 -76 c 0xbb20
67 -88 m 0
 67 -49 95 -11 146 18 c 1
 146 22 l 1
 120 37 96 62 96 103 c 0xba60
 96 135 118 170 155 195 c 1
 155 199 l 1
 121 224 93 267 93 325 c 0
 93 434 184 501 290 501 c 0xd6a0
 318 501 342 497 364 489 c 1
 565 489 l 1
 565 414 l 1
 443 414 l 1
 463 393 482 360 482 322 c 0xdaa0
 482 215 397 155 290 155 c 0
 266 155 238 160 211 171 c 1
 189 157 177 141 177 120 c 0
 177 84 212 69 274 69 c 2
 378 69 l 2
 505 69 567 35 567 -49 c 0xda50
 567 -142 460 -220 291 -220 c 0
 153 -220 67 -174 67 -88 c 0
290 219 m 0xd6a0
 346 219 392 259 392 325 c 0
 392 389 346 431 290 431 c 0
 234 431 188 389 188 325 c 0
 188 259 234 219 290 219 c 0xd6a0
264 573 m 1
 167 726 l 1
 241 726 l 1
 305 628 l 1
 309 628 l 1
 372 726 l 1
 447 726 l 1
 349 573 l 1
 264 573 l 1
EndSplineSet
Substitution2: "'ss03' Style Set 3 in Latin lookup 19 subtable" gcaron.a
Substitution2: "'aalt' Access All Alternates in Latin lookup 0 subtable" gcaron.a
EndChar

StartChar: uni01EA
Encoding: 490 490 169
Width: 600
GlyphClass: 2
Flags: MW
HStem: -215 68<338.5 343> -11 86 580 87<254.5 345.5>
VStem: 45 103<252.5 407.5 252.5 435.5> 228 76<-118 -103> 452 103<252.5 407.5>
AnchorPoint: "Anchor-0" 300 677 basechar 0
LayerCount: 2
Fore
SplineSet
389 -133 m 1
 415 -185 l 1
 394 -202 357 -215 329 -215 c 0
 273 -215 228 -184 228 -126 c 0
 228 -80 257 -39 290 -11 c 1
 121 -2 45 157 45 330 c 0
 45 541 150 667 300 667 c 0
 450 667 555 540 555 330 c 0
 555 153 486 47 380 1 c 0
 327 -22 304 -68 304 -103 c 0
 304 -133 327 -147 350 -147 c 0
 365 -147 378 -141 389 -133 c 1
300 75 m 0
 391 75 452 175 452 330 c 0
 452 485 391 580 300 580 c 0
 209 580 148 485 148 330 c 0
 148 175 209 75 300 75 c 0
EndSplineSet
Ligature2: "'ccmp' Glyph Composition/Decomposition in Latin lookup 6 subtable" O uni0328
EndChar

StartChar: uni01EB
Encoding: 491 491 349
Width: 600
GlyphClass: 2
Flags: MW
HStem: -207 63<333 336.5> -11 80 419 82<256.5 343.5>
VStem: 56 102<191.5 296.5 191.5 325.5> 229 70<-115 -95> 442 102<191.5 296.5>
AnchorPoint: "Anchor-0" 300 511 basechar 0
LayerCount: 2
Fore
SplineSet
229 -120 m 0
 229 -70 261 -30 284 -11 c 1
 159 -3 56 90 56 244 c 0
 56 407 171 501 300 501 c 0
 429 501 544 407 544 244 c 0
 544 110 475 41 370 -3 c 1
 323 -25 299 -64 299 -100 c 0
 299 -130 321 -144 345 -144 c 0
 360 -144 372 -139 384 -131 c 1
 407 -178 l 1
 387 -195 350 -207 323 -207 c 0
 270 -207 229 -178 229 -120 c 0
158 244 m 0
 158 139 213 69 300 69 c 0
 387 69 442 139 442 244 c 0
 442 349 387 419 300 419 c 0
 213 419 158 349 158 244 c 0
EndSplineSet
Ligature2: "'ccmp' Glyph Composition/Decomposition in Latin lookup 6 subtable" o uni0328
EndChar

StartChar: uni0218
Encoding: 536 536 180
Width: 600
Flags: MW
HStem: -220 46<221 229> -12 87<271 348 271 377.5> 580 87<277 345>
VStem: 93 101<465 520.5 465 539> 308 74<-143.5 -119> 439 102<142 201>
LayerCount: 2
Fore
SplineSet
63 85 m 1
 121 153 l 1
 171 106 237 75 305 75 c 0
 391 75 439 113 439 171 c 0
 439 231 391 250 325 276 c 1
 233 317 l 1
 166 343 93 392 93 488 c 0
 93 590 184 667 314 667 c 0
 395 667 468 635 519 585 c 1
 467 521 l 1
 424 558 376 580 314 580 c 0
 240 580 194 547 194 494 c 0
 194 436 250 416 308 393 c 1
 397 354 l 1
 479 322 541 275 541 179 c 0
 541 74 452 -12 303 -12 c 0
 209 -12 125 24 63 85 c 1
279 -46 m 1
 353 -56 382 -79 382 -125 c 0
 382 -186 310 -214 229 -220 c 1
 221 -174 l 1
 272 -168 308 -156 308 -131 c 0
 308 -107 287 -96 259 -89 c 1
 279 -46 l 1
EndSplineSet
EndChar

StartChar: uni021A
Encoding: 538 538 186
Width: 600
Flags: MW
HStem: -220 46<211 220> 0 21G<250 250 250 350> 571 84<39 250 39 561 350 350 350 561>
VStem: 250 100<0 571 0 571> 298 75<-143.5 -119>
LayerCount: 2
Fore
SplineSet
250 0 m 1xf0
 250 571 l 1
 39 571 l 1
 39 655 l 1
 561 655 l 1
 561 571 l 1
 350 571 l 1
 350 0 l 1
 250 0 l 1xf0
270 -46 m 1xe8
 343 -56 373 -79 373 -125 c 0
 373 -186 300 -214 220 -220 c 1
 211 -174 l 1
 262 -168 298 -156 298 -131 c 0
 298 -107 278 -96 249 -89 c 1
 270 -46 l 1xe8
EndSplineSet
EndChar

StartChar: uni021B
Encoding: 539 539 366
Width: 600
Flags: MW
HStem: -220 46<287 296> -12 80<370.5 419.5> 409 80<64 202 297 528>
VStem: 198 99<193 409> 374 75<-143.5 -119>
LayerCount: 2
Fore
SplineSet
198 193 m 2
 198 409 l 1
 64 409 l 1
 64 484 l 1
 202 489 l 1
 215 624 l 1
 297 624 l 1
 297 489 l 1
 528 489 l 1
 528 409 l 1
 297 409 l 1
 297 193 l 2
 297 109 326 68 415 68 c 0
 458 68 494 76 527 89 c 1
 547 16 l 1
 503 1 447 -12 392 -12 c 0
 247 -12 198 71 198 193 c 2
346 -46 m 1
 419 -56 449 -79 449 -125 c 0
 449 -186 376 -214 296 -220 c 1
 287 -174 l 1
 338 -168 374 -156 374 -131 c 0
 374 -107 354 -96 325 -89 c 1
 346 -46 l 1
EndSplineSet
EndChar

StartChar: uni0237
Encoding: 567 567 411
Width: 600
GlyphClass: 2
Flags: MW
HStem: -212 80<173.5 236 173.5 275.5> 409 80<87 405 87 306>
VStem: 306 99<-7 -1 -1 409 409 409>
AnchorPoint: "Anchor-0" 355 511 basechar 0
LayerCount: 2
Fore
SplineSet
87 409 m 1
 87 489 l 1
 405 489 l 1
 405 -1 l 2
 405 -121 357 -212 194 -212 c 0
 141 -212 91 -198 52 -179 c 1
 83 -106 l 1
 119 -123 156 -132 191 -132 c 0
 281 -132 306 -87 306 -7 c 2
 306 409 l 1
 87 409 l 1
EndSplineSet
EndChar

StartChar: uni0243
Encoding: 579 579 77
Width: 600
Flags: MW
HStem: 0 74<199 295 295 307> 176 53<23 99 199 332> 321 63<199 279 279 295 199 279> 581 74<199 199 199 282>
VStem: 99 100<74 74 74 176 229 321 384 581> 422 97<466.5 521> 459 96<159.5 243 130.5 243.5>
LayerCount: 2
Fore
SplineSet
199 74 m 1xfa
 295 74 l 2
 398 74 459 116 459 203 c 0
 459 284 401 321 295 321 c 2
 199 321 l 1
 199 229 l 1
 332 229 l 1
 332 176 l 1
 199 176 l 1
 199 74 l 1xfa
199 581 m 1
 199 384 l 1
 279 384 l 2
 380 384 422 420 422 488 c 0xfc
 422 554 375 581 282 581 c 2
 199 581 l 1
405 362 m 1xfa
 405 358 l 1
 501 341 555 289 555 197 c 0xfa
 555 64 452 0 307 0 c 2
 99 0 l 1
 99 176 l 1
 23 176 l 1
 23 224 l 1
 99 229 l 1
 99 655 l 1
 291 655 l 2
 425 655 519 611 519 497 c 0xfc
 519 436 483 381 405 362 c 1xfa
EndSplineSet
EndChar

StartChar: uni0250
Encoding: 592 592 412
Width: 600
Flags: MW
HStem: -12 80<267 335.5> 178 63<188 188> 422 79<334.5 366.5>
VStem: 89 99<241 356 241 489> 437 96<323 376.5>
LayerCount: 2
Fore
SplineSet
533 360 m 0
 533 250 434 196 188 178 c 1
 191 117 224 68 310 68 c 0
 370 68 428 96 476 124 c 1
 513 57 l 1
 459 23 378 -12 293 -12 c 0
 159 -12 89 65 89 194 c 2
 89 489 l 1
 170 489 l 1
 178 425 l 1
 181 425 l 1
 234 466 301 501 368 501 c 0
 462 501 533 446 533 360 c 0
437 352 m 0
 437 401 393 422 340 422 c 0
 288 422 238 397 188 356 c 1
 188 241 l 1
 380 255 437 294 437 352 c 0
EndSplineSet
EndChar

StartChar: uni0251
Encoding: 593 593 413
Width: 600
GlyphClass: 2
Flags: MW
HStem: -12 82<248.5 295> 0 21G<431 512 431 431> 418 83<259 304.5 219 316.5> 469 20G<434 512 512 512>
VStem: 56 102<189 298 189 323.5> 413 99<136 368 368 368>
AnchorPoint: "Anchor-2" 310 -22 basechar 0
AnchorPoint: "Anchor-0" 309 511 basechar 0
LayerCount: 2
Fore
SplineSet
158 245 m 0xac
 158 133 207 70 290 70 c 0
 334 70 375 92 413 136 c 1
 413 368 l 1
 374 405 336 418 297 418 c 0
 221 418 158 351 158 245 c 0xac
56 244 m 0
 56 403 161 501 277 501 c 0
 332 501 378 479 422 436 c 1
 425 436 l 1xac
 434 489 l 1
 512 489 l 1
 512 0 l 1
 431 0 l 1x5c
 423 60 l 1
 420 60 l 1
 381 21 324 -12 266 -12 c 0
 141 -12 56 82 56 244 c 0
EndSplineSet
EndChar

StartChar: uni0252
Encoding: 594 594 414
Width: 600
Flags: MW
HStem: -12 82<300.5 343.5 288.5 382> 418 83<311.5 358>
VStem: 88 99<121 352 121 489> 442 102<191 300>
LayerCount: 2
Fore
SplineSet
442 247 m 0
 442 353 402 418 314 418 c 0
 270 418 225 397 187 352 c 1
 187 121 l 1
 228 84 272 70 305 70 c 0
 382 70 442 135 442 247 c 0
544 253 m 0
 544 85 440 -12 324 -12 c 0
 277 -12 222 12 178 54 c 1
 175 54 l 1
 166 0 l 1
 88 0 l 1
 88 489 l 1
 169 489 l 1
 177 428 l 1
 180 428 l 1
 219 468 280 501 343 501 c 0
 471 501 544 403 544 253 c 0
EndSplineSet
EndChar

StartChar: uni0254
Encoding: 596 596 415
Width: 600
Flags: MW
HStem: -12 81<219 298 217 331> 419 82<229 305>
VStem: 422 102<191.5 296.5>
LayerCount: 2
Fore
SplineSet
524 244 m 0
 524 82 406 -12 256 -12 c 0
 182 -12 112 15 58 63 c 1
 102 127 l 1
 139 95 188 69 246 69 c 0
 350 69 422 139 422 244 c 0
 422 349 354 419 256 419 c 0
 202 419 158 400 117 368 c 1
 68 431 l 1
 110 470 175 501 262 501 c 0
 406 501 524 407 524 244 c 0
EndSplineSet
EndChar

StartChar: uni0258
Encoding: 600 600 416
Width: 600
Flags: MW
HStem: -12 78<232.5 306 230.5 343.5> 219 68<152 433> 423 78<251.5 330>
VStem: 60 92<287 330.5 287 338> 433 102<219 219>
LayerCount: 2
Fore
SplineSet
535 244 m 0
 535 83 417 -12 270 -12 c 0
 195 -12 131 13 80 45 c 1
 115 108 l 1
 159 82 204 66 257 66 c 0
 355 66 424 122 433 219 c 1
 65 219 l 1
 63 231 60 250 60 270 c 0
 60 406 155 501 295 501 c 0
 426 501 535 404 535 244 c 0
152 287 m 1
 434 287 l 1
 421 374 369 423 291 423 c 0
 212 423 152 374 152 287 c 1
EndSplineSet
EndChar

StartChar: uni0259
Encoding: 601 601 417
Width: 600
GlyphClass: 2
Flags: MW
HStem: -12 78<250 334 250 363> 207 69<157 157 157 438 70 439> 423 78<249.5 325.5>
VStem: 65 92<161 207 161 234> 439 101<207 207>
AnchorPoint: "Anchor-4" 289 0 basechar 0
AnchorPoint: "Anchor-2" 289 -22 basechar 0
AnchorPoint: "Anchor-0" 291 511 basechar 0
LayerCount: 2
Fore
SplineSet
65 224 m 0
 65 244 68 264 70 276 c 1
 438 276 l 1
 430 367 376 423 275 423 c 0
 222 423 174 407 131 383 c 1
 96 448 l 1
 147 480 213 501 286 501 c 0
 439 501 540 406 540 245 c 0
 540 86 433 -12 293 -12 c 0
 153 -12 65 81 65 224 c 0
157 207 m 1
 157 115 209 66 291 66 c 0
 377 66 430 115 439 207 c 1
 157 207 l 1
EndSplineSet
Substitution2: "'sups' Superscript in Latin lookup 12 subtable" uni0259.sups
Substitution2: "'aalt' Access All Alternates in Latin lookup 0 subtable" uni0259.sups
EndChar

StartChar: uni0261
Encoding: 609 609 418
Width: 600
GlyphClass: 2
Flags: MW
HStem: -212 79<254 321 254 352.5> 7 81<249.5 294.5> 418 83<259 305 218.5 316> 469 20G<434 512 512 512>
VStem: 56 101<202 302.5 202 328> 413 99<155 368 368 368>
AnchorPoint: "Anchor-2" 458 -218 basechar 0
AnchorPoint: "Anchor-0" 307 511 basechar 0
LayerCount: 2
Fore
SplineSet
126 -90 m 1xec
 175 -120 231 -133 277 -133 c 0
 365 -133 413 -86 416 -16 c 1
 418 73 l 1
 382 36 323 7 266 7 c 0
 141 7 56 101 56 252 c 0
 56 404 160 501 277 501 c 0
 333 501 381 477 422 436 c 1
 425 436 l 1xec
 434 489 l 1
 512 489 l 1xdc
 512 -10 l 2
 512 -135 428 -212 277 -212 c 0
 216 -212 145 -195 91 -160 c 1
 126 -90 l 1xec
290 88 m 0
 333 88 374 110 413 155 c 1
 413 368 l 1
 374 405 336 418 296 418 c 0
 222 418 157 352 157 253 c 0
 157 151 209 88 290 88 c 0
EndSplineSet
EndChar

StartChar: uni0265
Encoding: 613 613 419
Width: 600
Flags: MW
HStem: -12 85<237 277>
VStem: 73 99<186 199 199 489> 413 99<-200 -32 -32 -32 151 489 -200 489>
LayerCount: 2
Fore
SplineSet
512 489 m 1
 512 -200 l 1
 413 -200 l 1
 413 -32 l 1
 419 78 l 1
 370 28 315 -12 239 -12 c 0
 125 -12 73 58 73 186 c 2
 73 489 l 1
 172 489 l 1
 172 199 l 2
 172 113 200 73 274 73 c 0
 326 73 363 100 413 151 c 1
 413 489 l 1
 512 489 l 1
EndSplineSet
EndChar

StartChar: uni026F
Encoding: 623 623 420
Width: 600
Flags: MW
HStem: -12 85<167 177 367 382>
VStem: 42 95<141 149 149 489> 257 78<141 149 149 489> 455 94<141 489 0 489>
LayerCount: 2
Fore
SplineSet
549 489 m 1
 549 0 l 1
 473 0 l 1
 465 64 l 1
 462 64 l 1
 439 20 410 -12 354 -12 c 0
 306 -12 275 16 263 71 c 1
 237 22 204 -12 150 -12 c 0
 82 -12 42 43 42 141 c 2
 42 489 l 1
 137 489 l 1
 137 149 l 2
 137 98 151 73 183 73 c 0
 214 73 235 96 257 141 c 1
 257 489 l 1
 335 489 l 1
 335 149 l 2
 335 98 351 73 383 73 c 0
 413 73 433 96 455 141 c 1
 455 489 l 1
 549 489 l 1
EndSplineSet
EndChar

StartChar: uni0279
Encoding: 633 633 421
Width: 600
Flags: MW
HStem: -12 88<152.5 199.5>
VStem: 363 99<211 489 0 489>
LayerCount: 2
Fore
SplineSet
462 489 m 1
 462 0 l 1
 380 0 l 1
 372 113 l 1
 369 113 l 1
 319 34 243 -12 156 -12 c 0
 118 -12 90 -6 60 8 c 1
 82 92 l 1
 115 81 134 76 171 76 c 0
 241 76 309 112 363 211 c 1
 363 489 l 1
 462 489 l 1
EndSplineSet
EndChar

StartChar: uni0287
Encoding: 647 647 422
Width: 600
Flags: MW
HStem: 0 80<72 303 72 303 402 536> 421 80<180.5 229.5>
VStem: 303 99<-135 295 0 295 80 295 80 296 80 338>
LayerCount: 2
Fore
SplineSet
402 295 m 2
 402 80 l 1
 536 80 l 1
 536 0 l 1
 398 0 l 1
 385 -135 l 1
 303 -135 l 1
 303 0 l 1
 72 0 l 1
 72 80 l 1
 303 80 l 1
 303 296 l 2
 303 380 274 421 185 421 c 0
 142 421 106 413 73 400 c 1
 53 473 l 1
 97 488 153 501 208 501 c 0
 353 501 402 418 402 295 c 2
EndSplineSet
EndChar

StartChar: uni028C
Encoding: 652 652 423
Width: 600
Flags: MW
HStem: 411 78<295 299 295 295>
VStem: 46 508<0 0>
LayerCount: 2
Fore
SplineSet
354 489 m 1
 554 0 l 1
 454 0 l 1
 351 265 l 2
 332 314 316 363 299 411 c 1
 295 411 l 1
 278 363 263 314 244 265 c 2
 141 0 l 1
 46 0 l 1
 242 489 l 1
 354 489 l 1
EndSplineSet
EndChar

StartChar: uni028D
Encoding: 653 653 424
Width: 600
Flags: MW
HStem: 39 82<298 302 298 337 259 302> 406 83<173 177 173 173 416 420 416 416>
VStem: 7 586<0 0>
LayerCount: 2
Fore
SplineSet
491 489 m 1
 593 0 l 1
 494 0 l 1
 442 268 l 2
 433 314 427 359 420 406 c 1
 416 406 l 1
 408 359 399 314 389 268 c 2
 337 39 l 1
 259 39 l 1
 205 268 l 2
 195 314 186 359 177 406 c 1
 173 406 l 1
 164 359 159 314 151 268 c 2
 99 0 l 1
 7 0 l 1
 105 489 l 1
 223 489 l 1
 273 263 l 1
 282 217 289 172 298 121 c 1
 302 121 l 1
 309 162 315 205 326 264 c 1
 375 489 l 1
 491 489 l 1
EndSplineSet
EndChar
